<svg width="600" height="587" viewBox="0 0 600 587" fill="none" xmlns="http://www.w3.org/2000/svg">
<path d="M444.742 29.8596H155.331V475.626H444.742V29.8596Z" fill="white"/>
<path d="M454.584 485.386H145.569V20.1147H454.584V485.386ZM165.172 465.864H435.062V39.6366H165.091L165.172 465.864Z" fill="#37474F"/>
<path d="M444.742 198.447H155.331V208.306H444.742V198.447Z" fill="#37474F"/>
<path d="M444.742 124.947H155.331V134.806H444.742V124.947Z" fill="#37474F"/>
<path d="M365.516 48.5353V201.359H374.463V48.5353H365.516Z" fill="#37474F"/>
<path d="M295.562 48.5353V201.359H304.51V48.5353H295.562Z" fill="#37474F"/>
<path d="M225.609 48.5353V201.359H234.557V48.5353H225.609Z" fill="#37474F"/>
<path d="M462.865 18.4717H137.208V54.1642H462.865V18.4717Z" fill="#37474F"/>
<path d="M462.865 18.4717H137.208V43.3621H462.865V18.4717Z" fill="#263238"/>
<path d="M475.18 0.625488H124.909V36.318H475.18V0.625488Z" fill="#37474F"/>
<path d="M145.569 54.1804H0.879639V485.386H145.569V54.1804Z" fill="#DBDBDB"/>
<path d="M132.749 68.6267H13.6985V76.5656H132.749V68.6267Z" fill="#C7C7C7"/>
<path d="M132.749 83.2356H13.6985V91.1745H132.749V83.2356Z" fill="#C7C7C7"/>
<path d="M132.749 97.8445H13.6985V105.783H132.749V97.8445Z" fill="#C7C7C7"/>
<path d="M132.749 112.437H13.6985V120.376H132.749V112.437Z" fill="#C7C7C7"/>
<path d="M132.749 127.046H13.6985V134.985H132.749V127.046Z" fill="#C7C7C7"/>
<path d="M132.749 141.655H13.6985V149.594H132.749V141.655Z" fill="#C7C7C7"/>
<path d="M132.749 156.264H13.6985V164.203H132.749V156.264Z" fill="#C7C7C7"/>
<path d="M132.749 170.873H13.6985V178.811H132.749V170.873Z" fill="#C7C7C7"/>
<path d="M132.749 185.481H13.6985V193.42H132.749V185.481Z" fill="#C7C7C7"/>
<path d="M132.749 200.09H13.6985V208.029H132.749V200.09Z" fill="#C7C7C7"/>
<path d="M132.749 214.683H13.6985V222.622H132.749V214.683Z" fill="#C7C7C7"/>
<path d="M132.749 229.292H13.6985V237.231H132.749V229.292Z" fill="#C7C7C7"/>
<path d="M132.749 258.51H13.6985V266.448H132.749V258.51Z" fill="#C7C7C7"/>
<path d="M132.749 273.118H13.6985V281.057H132.749V273.118Z" fill="#C7C7C7"/>
<path d="M132.749 287.727H13.6985V295.666H132.749V287.727Z" fill="#C7C7C7"/>
<path d="M132.749 302.336H13.6985V310.275H132.749V302.336Z" fill="#C7C7C7"/>
<path d="M132.749 316.929H13.6985V324.868H132.749V316.929Z" fill="#C7C7C7"/>
<path d="M132.749 331.538H13.6985V339.477H132.749V331.538Z" fill="#C7C7C7"/>
<path d="M132.749 346.146H13.6985V354.085H132.749V346.146Z" fill="#C7C7C7"/>
<path d="M132.749 360.755H13.6985V368.694H132.749V360.755Z" fill="#C7C7C7"/>
<path d="M132.749 375.364H13.6985V383.303H132.749V375.364Z" fill="#C7C7C7"/>
<path d="M132.749 389.973H13.6985V397.912H132.749V389.973Z" fill="#C7C7C7"/>
<path d="M132.749 404.582H13.6985V412.521H132.749V404.582Z" fill="#C7C7C7"/>
<path d="M132.749 419.191H13.6985V427.13H132.749V419.191Z" fill="#C7C7C7"/>
<path d="M132.749 433.783H13.6985V441.722H132.749V433.783Z" fill="#C7C7C7"/>
<path d="M132.749 448.392H13.6985V456.331H132.749V448.392Z" fill="#C7C7C7"/>
<path d="M132.749 463.001H13.6985V470.94H132.749V463.001Z" fill="#C7C7C7"/>
<path d="M599.193 54.1804H454.503V485.386H599.193V54.1804Z" fill="#DBDBDB"/>
<path d="M586.374 68.6267H467.323V76.5656H586.374V68.6267Z" fill="#C7C7C7"/>
<path d="M586.374 83.2356H467.323V91.1745H586.374V83.2356Z" fill="#C7C7C7"/>
<path d="M586.374 97.8445H467.323V105.783H586.374V97.8445Z" fill="#C7C7C7"/>
<path d="M586.374 112.437H467.323V120.376H586.374V112.437Z" fill="#C7C7C7"/>
<path d="M586.374 127.046H467.323V134.985H586.374V127.046Z" fill="#C7C7C7"/>
<path d="M586.374 141.655H467.323V149.594H586.374V141.655Z" fill="#C7C7C7"/>
<path d="M586.374 156.264H467.323V164.203H586.374V156.264Z" fill="#C7C7C7"/>
<path d="M586.374 170.873H467.323V178.811H586.374V170.873Z" fill="#C7C7C7"/>
<path d="M586.374 185.481H467.323V193.42H586.374V185.481Z" fill="#C7C7C7"/>
<path d="M586.374 200.09H467.323V208.029H586.374V200.09Z" fill="#C7C7C7"/>
<path d="M586.374 214.683H467.323V222.622H586.374V214.683Z" fill="#C7C7C7"/>
<path d="M586.374 229.292H467.323V237.231H586.374V229.292Z" fill="#C7C7C7"/>
<path d="M586.374 258.51H467.323V266.448H586.374V258.51Z" fill="#C7C7C7"/>
<path d="M586.374 273.118H467.323V281.057H586.374V273.118Z" fill="#C7C7C7"/>
<path d="M586.374 287.727H467.323V295.666H586.374V287.727Z" fill="#C7C7C7"/>
<path d="M586.374 302.336H467.323V310.275H586.374V302.336Z" fill="#C7C7C7"/>
<path d="M586.374 316.929H467.323V324.868H586.374V316.929Z" fill="#C7C7C7"/>
<path d="M586.374 331.538H467.323V339.477H586.374V331.538Z" fill="#C7C7C7"/>
<path d="M586.374 346.146H467.323V354.085H586.374V346.146Z" fill="#C7C7C7"/>
<path d="M586.374 360.755H467.323V368.694H586.374V360.755Z" fill="#C7C7C7"/>
<path d="M586.374 375.364H467.323V383.303H586.374V375.364Z" fill="#C7C7C7"/>
<path d="M586.374 389.973H467.323V397.912H586.374V389.973Z" fill="#C7C7C7"/>
<path d="M586.374 404.582H467.323V412.521H586.374V404.582Z" fill="#C7C7C7"/>
<path d="M586.374 419.191H467.323V427.13H586.374V419.191Z" fill="#C7C7C7"/>
<path d="M586.374 433.783H467.323V441.722H586.374V433.783Z" fill="#C7C7C7"/>
<path d="M586.374 448.392H467.323V456.331H586.374V448.392Z" fill="#C7C7C7"/>
<path d="M586.374 463.001H467.323V470.94H586.374V463.001Z" fill="#C7C7C7"/>
<path d="M331.791 263.715C330.913 292.494 334.687 327.161 320.403 353.451C309.227 374.014 288.078 386.817 266.621 394.43C219.443 411.17 155.297 408.925 126.714 361.178C115.326 342.096 116.009 304.239 138.232 292.022C149.619 285.791 162.634 285.14 175.258 282.749C191.819 279.626 204.216 271.361 212.854 256.883C229.757 228.576 228.472 206.809 233.694 175.2C234.686 169.343 236.508 163.633 242.723 159.094C248.334 154.346 255.134 151.219 262.391 150.049C268.657 147.876 275.363 147.283 281.913 148.325C295.887 150.862 308.43 164.902 318.711 173.817C328.993 182.732 333.548 191.81 333.353 205.719C333.239 225.062 332.377 244.389 331.791 263.715Z" fill="#263238"/>
<path d="M334.312 277.511C333.434 251.059 332.018 224.688 330.782 198.268C330.782 198.105 330.538 198.089 330.538 198.268C330.912 220.035 331.01 241.786 331.677 263.553C332.327 284.88 334.458 306.761 333.303 328.089C330.57 375.933 279.96 391.649 239.501 386.215C237.662 385.971 237.483 388.932 239.354 389.111C275.014 392.771 318.581 383.807 332.327 345.788C339.794 324.981 335.044 299.164 334.312 277.511Z" fill="#263238"/>
<path d="M236.312 172.873C236.294 172.781 236.244 172.699 236.171 172.639C236.098 172.58 236.008 172.548 235.914 172.548C235.82 172.548 235.729 172.58 235.656 172.639C235.584 172.699 235.534 172.781 235.515 172.873C232.261 199.065 231.041 229.812 214.366 251.644C206.12 262.321 194.842 270.259 182.009 274.42C171.841 277.673 161.348 277.234 150.872 278.487C109.941 283.367 105.32 337.784 133.107 361.26C133.676 361.748 134.554 360.771 133.985 360.235C114.61 342.226 110.071 311.82 128.568 291.16C143.404 274.582 168.913 282.147 188.044 274.046C227.69 257.257 234.214 211.087 236.312 172.873Z" fill="#263238"/>
<path d="M240.526 284.522C198.017 327.617 144.543 418.28 154.499 436.646C165.611 457.128 224.811 396.708 224.583 393.178C224.404 390.51 245.244 335.442 261.04 295.389C276.836 255.337 251.051 273.801 240.526 284.522Z" fill="#F7A9A0"/>
<path d="M224.973 393.178C226.796 387.289 255.135 314.684 263.236 291.713C271.338 268.742 263.822 261.649 240.689 282.684C217.555 303.719 166.831 373.965 155.264 411.203C144.104 447.123 162.601 447.123 187.003 430.562C206.981 417.076 224.973 393.178 224.973 393.178Z" fill="#2B2E63"/>
<path d="M266.279 279.317C266.279 279.739 266.197 280.162 266.132 280.618C265.995 280.815 265.813 280.975 265.6 281.085C265.388 281.196 265.152 281.253 264.912 281.252C264.647 281.252 264.387 281.178 264.161 281.04C263.935 280.902 263.751 280.705 263.629 280.469C263.507 280.234 263.453 279.969 263.471 279.705C263.489 279.44 263.58 279.186 263.733 278.97C263.885 278.753 264.095 278.583 264.338 278.477C264.581 278.371 264.848 278.334 265.111 278.37C265.374 278.406 265.621 278.513 265.827 278.68C266.033 278.847 266.189 279.067 266.279 279.317V279.317ZM218.043 309.706C217.752 309.702 217.467 309.786 217.224 309.946C216.981 310.105 216.79 310.334 216.678 310.602C216.565 310.87 216.534 311.166 216.59 311.451C216.646 311.737 216.786 311.999 216.992 312.205C217.198 312.411 217.46 312.55 217.745 312.606C218.031 312.662 218.327 312.632 218.595 312.519C218.863 312.406 219.092 312.216 219.251 311.973C219.411 311.73 219.494 311.444 219.491 311.153C219.491 310.769 219.339 310.401 219.067 310.13C218.796 309.858 218.427 309.706 218.043 309.706V309.706ZM241.47 309.706C241.179 309.706 240.896 309.792 240.654 309.953C240.413 310.115 240.226 310.345 240.115 310.613C240.005 310.882 239.977 311.177 240.035 311.461C240.093 311.746 240.234 312.007 240.44 312.211C240.647 312.415 240.909 312.553 241.194 312.608C241.479 312.662 241.774 312.631 242.041 312.518C242.308 312.404 242.536 312.214 242.695 311.971C242.854 311.728 242.937 311.444 242.934 311.153C242.934 310.962 242.896 310.772 242.822 310.596C242.748 310.419 242.64 310.259 242.504 310.124C242.368 309.989 242.206 309.883 242.029 309.811C241.851 309.739 241.661 309.703 241.47 309.706V309.706ZM229.756 294.69C229.466 294.69 229.182 294.776 228.941 294.938C228.7 295.1 228.513 295.329 228.402 295.598C228.292 295.866 228.264 296.161 228.322 296.446C228.38 296.73 228.521 296.991 228.727 297.195C228.933 297.399 229.196 297.537 229.481 297.592C229.766 297.647 230.061 297.615 230.328 297.502C230.595 297.389 230.823 297.199 230.982 296.956C231.141 296.713 231.224 296.428 231.221 296.138C231.221 295.946 231.183 295.757 231.109 295.58C231.035 295.403 230.927 295.243 230.791 295.108C230.655 294.974 230.493 294.867 230.315 294.795C230.138 294.724 229.948 294.688 229.756 294.69V294.69ZM253.199 294.69C252.908 294.687 252.623 294.77 252.379 294.93C252.136 295.09 251.946 295.318 251.833 295.586C251.72 295.854 251.69 296.15 251.746 296.436C251.802 296.721 251.942 296.984 252.147 297.189C252.353 297.395 252.616 297.535 252.901 297.591C253.187 297.647 253.482 297.616 253.751 297.504C254.019 297.391 254.247 297.201 254.407 296.957C254.566 296.714 254.65 296.429 254.647 296.138C254.647 295.754 254.494 295.386 254.223 295.114C253.951 294.843 253.583 294.69 253.199 294.69V294.69ZM194.633 341.054C194.342 341.051 194.057 341.135 193.814 341.294C193.571 341.454 193.38 341.683 193.268 341.951C193.155 342.219 193.124 342.515 193.18 342.8C193.236 343.086 193.376 343.348 193.582 343.554C193.788 343.76 194.05 343.899 194.335 343.955C194.621 344.011 194.917 343.981 195.185 343.868C195.453 343.755 195.682 343.565 195.841 343.322C196.001 343.079 196.084 342.793 196.081 342.502C196.081 342.311 196.043 342.121 195.969 341.944C195.896 341.768 195.788 341.607 195.651 341.473C195.515 341.338 195.354 341.232 195.176 341.16C194.999 341.088 194.809 341.052 194.617 341.054H194.633ZM218.06 341.054C217.769 341.051 217.483 341.135 217.24 341.294C216.997 341.454 216.807 341.683 216.694 341.951C216.581 342.219 216.551 342.515 216.607 342.8C216.663 343.086 216.802 343.348 217.008 343.554C217.214 343.76 217.476 343.899 217.762 343.955C218.047 344.011 218.343 343.981 218.611 343.868C218.879 343.755 219.108 343.565 219.267 343.322C219.427 343.079 219.511 342.793 219.507 342.502C219.507 342.311 219.469 342.121 219.396 341.944C219.322 341.768 219.214 341.607 219.078 341.473C218.941 341.338 218.78 341.232 218.602 341.16C218.425 341.088 218.235 341.052 218.043 341.054H218.06ZM241.486 341.054C241.196 341.054 240.912 341.141 240.671 341.302C240.43 341.464 240.242 341.694 240.132 341.962C240.021 342.231 239.993 342.526 240.051 342.81C240.109 343.095 240.25 343.356 240.456 343.56C240.663 343.764 240.925 343.902 241.21 343.957C241.495 344.011 241.79 343.98 242.057 343.867C242.325 343.753 242.552 343.563 242.711 343.32C242.87 343.077 242.953 342.793 242.95 342.502C242.95 342.309 242.911 342.118 242.837 341.941C242.762 341.763 242.652 341.602 242.514 341.467C242.377 341.332 242.213 341.226 242.034 341.155C241.854 341.084 241.662 341.05 241.47 341.054H241.486ZM206.346 326.039C206.055 326.036 205.77 326.119 205.527 326.279C205.284 326.438 205.093 326.667 204.981 326.935C204.868 327.203 204.837 327.499 204.893 327.785C204.949 328.07 205.089 328.332 205.295 328.538C205.501 328.744 205.763 328.884 206.049 328.94C206.334 328.996 206.63 328.965 206.898 328.852C207.166 328.74 207.395 328.549 207.554 328.306C207.714 328.063 207.798 327.778 207.794 327.487C207.794 327.295 207.756 327.106 207.683 326.929C207.609 326.752 207.501 326.592 207.364 326.457C207.228 326.322 207.067 326.216 206.889 326.144C206.712 326.073 206.522 326.037 206.33 326.039H206.346ZM229.773 326.039C229.482 326.039 229.199 326.125 228.958 326.287C228.716 326.448 228.529 326.678 228.419 326.947C228.308 327.215 228.28 327.51 228.338 327.795C228.396 328.079 228.537 328.34 228.743 328.544C228.95 328.748 229.212 328.886 229.497 328.941C229.782 328.996 230.077 328.964 230.344 328.851C230.612 328.738 230.839 328.547 230.998 328.305C231.157 328.062 231.24 327.777 231.237 327.487C231.237 327.294 231.198 327.103 231.124 326.925C231.049 326.747 230.939 326.586 230.801 326.451C230.663 326.316 230.5 326.21 230.32 326.14C230.141 326.069 229.949 326.035 229.756 326.039H229.773ZM194.617 372.371C194.326 372.368 194.041 372.451 193.798 372.611C193.554 372.77 193.364 372.999 193.251 373.267C193.138 373.535 193.108 373.831 193.164 374.117C193.22 374.402 193.36 374.664 193.566 374.87C193.771 375.076 194.034 375.216 194.319 375.272C194.605 375.328 194.9 375.297 195.169 375.184C195.437 375.072 195.665 374.881 195.825 374.638C195.985 374.395 196.068 374.11 196.065 373.819C196.065 373.435 195.912 373.066 195.641 372.795C195.369 372.523 195.001 372.371 194.617 372.371V372.371ZM218.043 372.371C217.752 372.368 217.467 372.451 217.224 372.611C216.981 372.77 216.79 372.999 216.678 373.267C216.565 373.535 216.534 373.831 216.59 374.117C216.646 374.402 216.786 374.664 216.992 374.87C217.198 375.076 217.46 375.216 217.745 375.272C218.031 375.328 218.327 375.297 218.595 375.184C218.863 375.072 219.092 374.881 219.251 374.638C219.411 374.395 219.494 374.11 219.491 373.819C219.491 373.435 219.339 373.066 219.067 372.795C218.796 372.523 218.427 372.371 218.043 372.371V372.371ZM182.904 357.388C182.614 357.388 182.33 357.474 182.089 357.636C181.848 357.797 181.66 358.027 181.55 358.295C181.439 358.564 181.411 358.859 181.469 359.144C181.527 359.428 181.668 359.689 181.874 359.893C182.081 360.097 182.343 360.235 182.628 360.29C182.913 360.345 183.208 360.313 183.476 360.2C183.743 360.087 183.97 359.896 184.129 359.653C184.288 359.411 184.371 359.126 184.368 358.836C184.368 358.644 184.33 358.455 184.256 358.278C184.183 358.101 184.074 357.941 183.938 357.806C183.802 357.671 183.641 357.565 183.463 357.493C183.285 357.421 183.095 357.386 182.904 357.388ZM206.346 357.388C206.055 357.385 205.77 357.468 205.527 357.628C205.284 357.787 205.093 358.016 204.981 358.284C204.868 358.552 204.837 358.848 204.893 359.134C204.949 359.419 205.089 359.681 205.295 359.887C205.501 360.093 205.763 360.233 206.049 360.289C206.334 360.345 206.63 360.314 206.898 360.201C207.166 360.089 207.395 359.898 207.554 359.655C207.714 359.412 207.798 359.127 207.794 358.836C207.794 358.644 207.756 358.455 207.683 358.278C207.609 358.101 207.501 357.941 207.364 357.806C207.228 357.671 207.067 357.565 206.889 357.493C206.712 357.421 206.522 357.386 206.33 357.388H206.346ZM229.773 357.388C229.482 357.388 229.199 357.474 228.958 357.636C228.716 357.797 228.529 358.027 228.419 358.295C228.308 358.564 228.28 358.859 228.338 359.144C228.396 359.428 228.537 359.689 228.743 359.893C228.95 360.097 229.212 360.235 229.497 360.29C229.782 360.345 230.077 360.313 230.344 360.2C230.612 360.087 230.839 359.896 230.998 359.653C231.157 359.411 231.24 359.126 231.237 358.836C231.237 358.643 231.198 358.452 231.124 358.274C231.049 358.096 230.939 357.935 230.801 357.8C230.663 357.665 230.5 357.559 230.32 357.489C230.141 357.418 229.949 357.383 229.756 357.388H229.773ZM171.207 403.752C170.921 403.755 170.643 403.843 170.407 404.004C170.171 404.165 169.988 404.392 169.881 404.657C169.774 404.922 169.748 405.213 169.805 405.492C169.863 405.772 170.002 406.029 170.205 406.23C170.408 406.43 170.666 406.567 170.947 406.621C171.227 406.676 171.517 406.646 171.781 406.536C172.045 406.426 172.27 406.241 172.428 406.003C172.587 405.765 172.671 405.486 172.671 405.2C172.671 405.006 172.632 404.813 172.556 404.635C172.481 404.456 172.37 404.294 172.23 404.159C172.09 404.024 171.925 403.918 171.744 403.848C171.562 403.778 171.369 403.746 171.174 403.752H171.207ZM194.65 403.752C194.363 403.752 194.083 403.837 193.845 403.996C193.607 404.155 193.421 404.381 193.312 404.646C193.202 404.911 193.174 405.202 193.23 405.483C193.285 405.763 193.423 406.021 193.626 406.224C193.828 406.426 194.086 406.564 194.367 406.62C194.648 406.676 194.939 406.647 195.204 406.538C195.468 406.428 195.694 406.243 195.853 406.005C196.013 405.766 196.097 405.486 196.097 405.2C196.097 405.007 196.059 404.816 195.984 404.638C195.909 404.461 195.8 404.299 195.662 404.165C195.524 404.03 195.361 403.924 195.181 403.853C195.002 403.782 194.81 403.748 194.617 403.752H194.65ZM182.904 388.737C182.614 388.737 182.33 388.823 182.089 388.985C181.848 389.146 181.66 389.376 181.55 389.644C181.439 389.913 181.411 390.208 181.469 390.492C181.527 390.777 181.668 391.038 181.874 391.242C182.081 391.446 182.343 391.584 182.628 391.639C182.913 391.693 183.208 391.662 183.476 391.549C183.743 391.435 183.97 391.245 184.129 391.002C184.288 390.759 184.371 390.475 184.368 390.185C184.368 389.993 184.33 389.803 184.256 389.627C184.183 389.45 184.074 389.29 183.938 389.155C183.802 389.02 183.641 388.914 183.463 388.842C183.285 388.77 183.095 388.735 182.904 388.737ZM206.346 388.737C206.055 388.733 205.77 388.817 205.527 388.977C205.284 389.136 205.093 389.365 204.981 389.633C204.868 389.901 204.837 390.197 204.893 390.482C204.949 390.768 205.089 391.03 205.295 391.236C205.501 391.442 205.763 391.582 206.049 391.638C206.334 391.693 206.63 391.663 206.898 391.55C207.166 391.437 207.395 391.247 207.554 391.004C207.714 390.761 207.798 390.475 207.794 390.185C207.794 389.993 207.756 389.803 207.683 389.627C207.609 389.45 207.501 389.29 207.364 389.155C207.228 389.02 207.067 388.914 206.889 388.842C206.712 388.77 206.522 388.735 206.33 388.737H206.346ZM171.191 435.101C170.905 435.104 170.627 435.192 170.391 435.353C170.155 435.514 169.972 435.741 169.865 436.006C169.758 436.271 169.731 436.562 169.789 436.841C169.847 437.121 169.986 437.378 170.189 437.578C170.392 437.779 170.65 437.916 170.93 437.97C171.211 438.025 171.501 437.995 171.765 437.885C172.028 437.775 172.254 437.589 172.412 437.352C172.57 437.114 172.655 436.835 172.655 436.549C172.655 436.356 172.616 436.165 172.542 435.987C172.467 435.809 172.357 435.648 172.219 435.514C172.081 435.379 171.918 435.273 171.739 435.202C171.559 435.131 171.367 435.097 171.174 435.101H171.191ZM159.478 420.086C159.187 420.082 158.901 420.166 158.658 420.326C158.415 420.485 158.225 420.714 158.112 420.982C157.999 421.25 157.969 421.546 158.025 421.831C158.081 422.117 158.22 422.379 158.426 422.585C158.632 422.791 158.894 422.93 159.18 422.986C159.465 423.042 159.761 423.012 160.029 422.899C160.297 422.786 160.526 422.596 160.686 422.353C160.845 422.11 160.929 421.824 160.926 421.533C160.926 421.342 160.888 421.152 160.814 420.976C160.74 420.799 160.632 420.639 160.496 420.504C160.36 420.369 160.198 420.263 160.02 420.191C159.843 420.119 159.653 420.083 159.461 420.086H159.478ZM182.904 420.086C182.614 420.086 182.33 420.172 182.089 420.333C181.848 420.495 181.66 420.725 181.55 420.993C181.439 421.262 181.411 421.557 181.469 421.841C181.527 422.126 181.668 422.387 181.874 422.591C182.081 422.795 182.343 422.933 182.628 422.988C182.913 423.042 183.208 423.011 183.476 422.898C183.743 422.784 183.97 422.594 184.129 422.351C184.288 422.108 184.371 421.824 184.368 421.533C184.368 421.342 184.33 421.152 184.256 420.976C184.183 420.799 184.074 420.639 183.938 420.504C183.802 420.369 183.641 420.263 183.463 420.191C183.285 420.119 183.095 420.083 182.904 420.086V420.086Z" fill="white"/>
<path d="M208.168 459.146L212.414 433.686L218.515 388.509C218.515 388.509 204.15 363.423 212.48 345.431C216.693 336.304 253.606 279.642 269.126 268.254C283.767 257.663 304.916 269.002 312.757 277.283C343.113 309.234 357.43 372.68 368.329 459.097L208.168 459.146Z" fill="#F7A9A0"/>
<path d="M213.488 425.698L218.515 388.525C218.515 388.525 204.15 363.44 212.48 345.431C216.693 336.304 253.606 279.642 269.126 268.254C283.767 257.68 304.916 269.002 312.757 277.299C339.046 304.955 353.314 356.265 363.742 425.649L213.488 425.698Z" fill="#2B2E63"/>
<path d="M275.796 387.761C268.709 387.14 261.585 387.047 254.484 387.484C250.97 387.744 247.473 388.167 243.975 388.672C242.234 388.916 240.494 389.111 238.737 389.29C236.911 389.517 235.064 389.517 233.238 389.29C233.218 389.282 233.197 389.28 233.176 389.283C233.155 389.285 233.136 389.293 233.118 389.305C233.101 389.317 233.087 389.333 233.077 389.351C233.068 389.37 233.063 389.391 233.062 389.412C233.063 389.433 233.068 389.453 233.077 389.472C233.087 389.491 233.101 389.507 233.118 389.519C233.136 389.531 233.155 389.538 233.176 389.541C233.197 389.543 233.218 389.541 233.238 389.534C234.937 389.925 236.659 390.202 238.395 390.363C240.08 390.477 241.77 390.477 243.454 390.363C247.033 390.136 250.596 389.729 254.175 389.469C261.382 388.916 268.589 388.379 275.828 388.346C275.906 388.342 275.979 388.307 276.03 388.249C276.082 388.191 276.109 388.115 276.105 388.037C276.1 387.959 276.065 387.887 276.007 387.835C275.949 387.783 275.873 387.756 275.796 387.761V387.761Z" fill="#263238"/>
<path d="M291.901 397.001C286.264 395.375 280.539 394.072 274.754 393.097C271.859 392.608 268.963 392.316 266.035 392.072C264.636 391.958 263.236 391.876 261.837 391.811C260.438 391.746 258.746 391.811 257.201 391.811C257.038 391.811 256.989 392.039 257.201 392.055C258.649 392.202 260.08 392.576 261.512 392.804L265.839 393.454C268.735 393.894 271.631 394.365 274.527 394.788C280.318 395.618 286.093 396.497 291.852 397.522C292.161 397.538 292.226 397.082 291.901 397.001Z" fill="#263238"/>
<path d="M212.414 433.686C213.228 426.137 214.041 418.572 215.001 411.04C215.961 403.508 216.791 395.943 217.799 388.411L217.946 388.948C215.786 385.874 214.01 382.546 212.658 379.041C211.272 375.565 210.268 371.948 209.665 368.255C209.08 364.549 208.916 360.789 209.177 357.046C209.599 353.309 210.53 349.648 211.943 346.163C214.755 339.322 218.249 332.782 222.371 326.641C226.394 320.452 230.783 314.509 235.515 308.843C231.139 314.765 227.04 320.898 223.2 327.161C219.33 333.364 216.015 339.897 213.293 346.683C211.955 350.045 211.09 353.577 210.723 357.176C210.519 360.791 210.699 364.417 211.259 367.995C211.812 371.584 212.755 375.103 214.074 378.488C215.344 381.881 217.027 385.104 219.084 388.086L219.247 388.33V388.606C218.238 396.139 217.051 403.638 215.993 411.17C214.936 418.703 213.635 426.186 212.414 433.686Z" fill="#263238"/>
<path d="M223.2 326.608C223.286 325.596 223.488 324.597 223.802 323.631C224.099 322.668 224.452 321.723 224.86 320.801C225.266 319.889 225.689 318.979 226.177 318.1C226.663 317.214 227.207 316.361 227.804 315.546C227.186 317.482 226.389 319.304 225.608 321.126C224.827 322.948 223.965 324.737 223.2 326.608Z" fill="#263238"/>
<path d="M91.3786 586.412H508.691L524.244 508.194H75.8262L91.3786 586.412Z" fill="#2B2E63"/>
<path opacity="0.12" d="M75.8425 508.194L81.4063 536.159H518.664L524.228 508.194H75.8425Z" fill="black"/>
<path d="M68.0174 526.561H532.052V502.761L68.0174 502.761V526.561Z" fill="#2B2E63"/>
<path d="M526.798 495.245C525.381 496.634 523.588 497.579 521.641 497.962C522.581 500.327 522.774 502.925 522.192 505.403C521.61 507.882 520.282 510.122 518.387 511.822C518.936 513.056 519.117 514.423 518.908 515.758C518.698 517.092 518.108 518.338 517.207 519.345C516.307 520.352 515.135 521.077 513.832 521.434C512.529 521.791 511.151 521.763 509.863 521.355C508.716 523.516 507.129 525.412 505.205 526.921C503.281 528.431 501.062 529.52 498.69 530.12C496.319 530.719 493.849 530.815 491.438 530.401C489.028 529.987 486.731 529.072 484.696 527.716C483.618 529.638 482.083 531.264 480.227 532.45C478.371 533.637 476.25 534.347 474.054 534.517C471.857 534.688 469.653 534.314 467.636 533.428C465.618 532.543 463.851 531.173 462.49 529.441C458.282 532.494 453.102 533.901 447.928 533.394C442.755 532.887 437.946 530.503 434.411 526.691C432.457 528.49 429.987 529.628 427.35 529.945C424.097 530.498 420.68 530.124 417.492 530.889C412.969 531.979 410.252 535.232 406.755 537.949C403.257 540.666 396.994 541.691 393.626 538.925C389.979 545.389 384.801 550.859 378.547 554.856C372.292 558.852 365.153 561.253 357.755 561.847C345.049 562.823 329.22 556.755 326.211 543.74C322.999 546.513 319.172 548.477 315.047 549.469C310.922 550.461 306.62 550.451 302.499 549.442C298.379 548.433 294.56 546.452 291.36 543.666C288.161 540.88 285.675 537.369 284.108 533.426C274.136 537.591 261.219 540.373 254.826 530.758C252.142 533.859 248.407 535.859 244.339 536.375C240.271 536.892 236.156 535.888 232.782 533.556C222.631 544.31 204.427 557.292 192.421 543.073C182.139 552.298 164.976 558.382 156.126 544.7C147.52 549.76 136.604 554.315 127.136 549.337C120.889 546.083 116.855 539.413 117.88 532.597C115.457 533.052 112.954 532.786 110.681 531.831C108.407 530.877 106.465 529.277 105.093 527.228C101.026 529.164 98.7156 524.918 95.5108 522.201C89.3451 516.914 81.1948 520.77 74.7688 516.247C64.3571 508.943 73.3047 497.262 81.6503 493.472C81.2688 490.835 81.5467 488.145 82.459 485.642C83.3713 483.139 84.8897 480.901 86.8783 479.129C88.8669 477.356 91.2638 476.104 93.8547 475.484C96.4456 474.864 99.1497 474.896 101.725 475.577C101.12 471.471 101.775 467.279 103.606 463.554C105.436 459.83 108.354 456.749 111.974 454.721C123.069 448.474 135.954 453.924 144.088 462.416C148.105 456.31 153.654 451.365 160.179 448.074C166.705 444.783 173.979 443.26 181.277 443.658C190.355 444.146 202.426 449.482 206.818 457.942C209.809 456.223 213.038 454.956 216.4 454.184C222.731 452.701 229.348 452.995 235.522 455.034C241.697 457.072 247.189 460.774 251.393 465.734C256.77 463.748 262.589 463.271 268.218 464.355C273.847 465.439 279.072 468.042 283.328 471.884C285.944 468.248 289.419 465.317 293.443 463.35C297.467 461.383 301.915 460.443 306.39 460.612C310.866 460.781 315.23 462.055 319.095 464.319C322.959 466.584 326.202 469.769 328.537 473.592C332.805 468.618 338.152 464.683 344.171 462.09C350.19 459.496 356.721 458.31 363.268 458.624C369.815 458.938 376.203 460.743 381.946 463.9C387.69 467.058 392.636 471.486 396.408 476.845C404.379 462.741 420.452 461.927 435.859 463.652C440.739 464.172 443.993 464.14 448.418 462.106C450.044 461.374 451.443 460.317 453.054 459.617C456.412 458.12 459.997 457.196 463.661 456.884C471.035 456.235 478.433 457.822 484.891 461.439C487.738 463.066 490.65 467.166 493.383 468.288C496.816 469.687 503.144 467.686 507.097 468.207C514.19 469.167 521.739 472.502 526.342 478.212C530.263 483.255 531.89 490.478 526.798 495.245Z" fill="#455A64"/>
<path d="M124.013 488.623C127.266 481.872 124.013 469.801 115.504 466.336C106.996 462.871 95.4131 469.443 93.526 476.878C91.6389 484.312 99.773 496.741 106.443 497.636C113.894 498.58 121.605 493.585 124.013 488.623Z" fill="#2B2E63"/>
<path opacity="0.12" d="M89.9636 478.667C95.9991 483.841 106.02 488.428 114.22 488.087C111.013 492.044 107.367 495.624 103.352 498.759C103.125 498.954 103.352 499.377 103.661 499.198C113.064 492.935 122.321 481.612 122.728 469.915C122.728 469.752 122.516 469.752 122.5 469.915C122.101 473.194 121.173 476.386 119.751 479.367C116.497 472.371 107.289 467.117 100.229 465.457C100.184 465.442 100.134 465.446 100.091 465.467C100.049 465.489 100.016 465.526 100.001 465.571C99.986 465.617 99.9895 465.666 100.011 465.709C100.032 465.752 100.07 465.784 100.115 465.799C102.275 466.673 104.388 467.662 106.443 468.76C102.539 472.209 99.5944 478.928 100.473 484.085C96.9104 482.493 93.5289 480.524 90.3865 478.212C90.1751 477.968 89.687 478.44 89.9636 478.667ZM114.577 487.68C111.201 487.446 107.869 486.768 104.67 485.663C109.503 485.939 114.299 484.674 118.368 482.051C117.239 484.014 115.972 485.895 114.577 487.68ZM119.458 479.904C119.198 480.441 118.921 480.961 118.628 481.531C115.451 483.143 112.015 484.184 108.477 484.605C111.838 482.494 114.458 479.39 115.976 475.723C117.261 477.008 118.426 478.408 119.458 479.904V479.904ZM115.781 475.479C114.487 477.765 112.919 479.884 111.112 481.791C110.445 481.644 109.795 481.449 109.144 481.238C110.195 480.451 111.039 479.421 111.606 478.237C112.173 477.053 112.444 475.749 112.397 474.438C113.308 474.551 114.236 474.714 115.179 474.909L115.781 475.479ZM108.851 474.242C109.148 474.717 109.388 475.225 109.567 475.755C109.716 476.411 109.776 477.084 109.746 477.756C108.662 477.91 107.56 477.866 106.492 477.626C106.74 476.502 107.116 475.41 107.615 474.372C108.07 474.275 108.444 474.259 108.851 474.242V474.242ZM109.453 474.242C110.361 474.24 111.268 474.295 112.17 474.405C111.933 475.49 111.585 476.548 111.129 477.561L109.876 477.74C110.07 477.162 110.132 476.548 110.059 475.943C109.986 475.338 109.779 474.757 109.453 474.242ZM110.933 477.935C110.326 479.099 109.51 480.141 108.526 481.01C107.932 480.774 107.351 480.508 106.785 480.213C106.485 479.505 106.368 478.733 106.443 477.968C107.147 478.295 107.915 478.463 108.692 478.457C109.469 478.451 110.234 478.273 110.933 477.935V477.935ZM106.704 468.874C109.481 470.368 112.079 472.175 114.447 474.259C110.765 473.04 106.755 473.273 103.238 474.909C104.109 472.747 105.275 470.716 106.704 468.874V468.874ZM103.043 475.381C104.417 474.859 105.848 474.504 107.306 474.324C106.672 475.057 106.23 475.935 106.017 476.879C105.804 477.824 105.828 478.807 106.085 479.741C104.733 478.95 103.533 477.926 102.539 476.715C102.702 476.292 102.881 475.853 103.043 475.414V475.381ZM102.295 477.431C103.344 478.726 104.641 479.797 106.111 480.582C107.581 481.367 109.193 481.85 110.852 482.002C109.908 482.966 108.878 483.842 107.777 484.621C106.346 484.817 104.865 484.947 103.304 485.093C102.506 484.784 101.677 484.475 100.912 484.133C101.16 481.871 101.623 479.638 102.295 477.463V477.431Z" fill="black"/>
<path d="M266.181 486.102C269.435 479.334 266.181 467.28 257.673 463.798C249.164 460.317 237.565 466.922 235.678 474.34C233.791 481.758 241.941 494.22 248.693 495.082C256.111 496.009 263.773 491.129 266.181 486.102Z" fill="#2B2E63"/>
<path opacity="0.12" d="M232.131 476.146C238.167 481.303 248.172 485.907 256.387 485.565C253.18 489.522 249.535 493.103 245.52 496.237C245.292 496.432 245.52 496.839 245.829 496.676C255.232 490.413 264.489 479.074 264.895 467.393C264.895 467.363 264.883 467.334 264.862 467.313C264.841 467.292 264.812 467.28 264.782 467.28C264.751 467.28 264.722 467.292 264.701 467.313C264.68 467.334 264.668 467.363 264.668 467.393C264.267 470.672 263.338 473.864 261.918 476.845C258.665 469.85 249.457 464.595 242.396 462.936C242.351 462.921 242.302 462.924 242.259 462.946C242.216 462.967 242.184 463.005 242.169 463.05C242.154 463.095 242.157 463.145 242.178 463.187C242.2 463.23 242.237 463.263 242.283 463.278C244.445 464.148 246.557 465.137 248.611 466.238C244.707 469.687 241.762 476.39 242.64 481.547C239.075 479.967 235.693 478.004 232.554 475.69C232.261 475.446 231.855 475.902 232.131 476.146ZM256.712 485.158C253.335 484.921 250.003 484.237 246.805 483.125C251.635 483.419 256.431 482.153 260.487 479.513C259.373 481.488 258.111 483.375 256.712 485.158V485.158ZM261.593 477.382C261.333 477.919 261.056 478.44 260.763 479.009C257.586 480.622 254.15 481.662 250.612 482.084C253.973 479.972 256.594 476.868 258.112 473.201C259.415 474.479 260.592 475.879 261.625 477.382H261.593ZM257.9 472.941C256.621 475.238 255.058 477.364 253.247 479.269C252.58 479.119 251.923 478.929 251.279 478.7C252.33 477.913 253.174 476.884 253.741 475.7C254.308 474.515 254.579 473.212 254.533 471.9C255.444 472.008 256.371 472.171 257.314 472.388L257.9 472.941ZM250.986 471.721C251.276 472.199 251.516 472.706 251.702 473.234C251.851 473.89 251.912 474.563 251.881 475.235C250.796 475.384 249.694 475.334 248.627 475.088C248.88 473.966 249.256 472.874 249.75 471.835C250.205 471.753 250.612 471.721 251.019 471.721H250.986ZM251.588 471.721C252.496 471.727 253.403 471.781 254.305 471.884C254.073 472.972 253.719 474.031 253.247 475.04C252.841 475.04 252.418 475.186 252.011 475.235C252.211 474.654 252.28 474.036 252.213 473.426C252.145 472.815 251.943 472.227 251.621 471.705L251.588 471.721ZM253.068 475.43C252.457 476.591 251.641 477.632 250.661 478.505C250.067 478.269 249.486 478.003 248.92 477.708C248.622 476.999 248.504 476.228 248.578 475.463C249.288 475.793 250.063 475.96 250.845 475.951C251.628 475.943 252.399 475.759 253.101 475.414L253.068 475.43ZM248.839 466.369C251.616 467.857 254.214 469.658 256.582 471.737C252.898 470.523 248.888 470.762 245.374 472.404C246.252 470.234 247.43 468.197 248.871 466.352L248.839 466.369ZM245.178 472.876C246.549 472.347 247.981 471.991 249.441 471.818C248.807 472.551 248.365 473.429 248.152 474.374C247.939 475.319 247.963 476.302 248.22 477.236C246.883 476.444 245.699 475.419 244.723 474.21L245.178 472.876ZM244.43 474.926C245.481 476.218 246.779 477.287 248.249 478.072C249.718 478.857 251.329 479.341 252.987 479.497C252.038 480.456 251.01 481.332 249.912 482.116C248.481 482.295 247 482.442 245.439 482.572H245.357C244.56 482.279 243.73 481.97 242.966 481.628C243.248 479.356 243.749 477.117 244.463 474.942L244.43 474.926Z" fill="black"/>
<path d="M374.657 516.768C382.011 515.141 389.51 505.201 387.054 496.384C384.597 487.566 372.266 482.409 365.238 485.468C358.21 488.526 353.379 502.598 356.795 508.422C360.602 514.881 369.273 517.907 374.657 516.768Z" fill="#2B2E63"/>
<path opacity="0.12" d="M361.643 483.776C361.269 491.698 363.79 502.419 369.077 508.699C363.99 508.588 358.932 507.906 353.997 506.665C353.688 506.665 353.541 507.088 353.834 507.186C364.539 510.765 379.164 511.123 388.681 504.274C388.695 504.251 388.702 504.225 388.701 504.199C388.7 504.172 388.691 504.146 388.675 504.125C388.659 504.104 388.637 504.088 388.612 504.08C388.587 504.071 388.56 504.071 388.534 504.078C385.699 505.778 382.605 507.003 379.375 507.706C382.954 500.89 381.409 490.348 378.399 483.759C378.384 483.714 378.352 483.677 378.309 483.655C378.266 483.634 378.217 483.63 378.171 483.645C378.126 483.661 378.089 483.693 378.067 483.736C378.046 483.778 378.042 483.828 378.058 483.873C378.725 486.114 379.268 488.389 379.684 490.69C374.56 489.714 367.467 491.519 363.92 495.375C362.969 491.588 362.424 487.711 362.294 483.808C362.277 483.434 361.659 483.401 361.643 483.776ZM369.598 508.715C367.719 505.902 366.215 502.856 365.124 499.653C367.859 503.643 371.798 506.653 376.366 508.243C374.124 508.564 371.862 508.721 369.598 508.715V508.715ZM378.757 507.82C378.171 507.95 377.586 508.048 377 508.129C373.775 506.613 370.845 504.536 368.345 501.996C372.073 503.359 376.132 503.529 379.961 502.484C379.727 504.296 379.324 506.083 378.757 507.82V507.82ZM379.993 502.191C377.398 502.581 374.764 502.647 372.152 502.387C371.857 501.769 371.601 501.133 371.388 500.483C372.654 500.825 373.983 500.855 375.264 500.572C376.544 500.289 377.737 499.7 378.741 498.856C379.218 499.659 379.657 500.489 380.059 501.345C380.042 501.638 380.026 501.915 379.993 502.191ZM376.74 495.961C376.541 496.486 376.284 496.988 375.975 497.457C375.565 497.99 375.07 498.451 374.511 498.824C373.731 498.068 373.096 497.174 372.64 496.188C373.678 495.686 374.77 495.304 375.894 495.05L376.74 495.961ZM377.114 496.449C377.67 497.159 378.181 497.903 378.643 498.677C377.649 499.172 376.601 499.549 375.52 499.8L374.592 498.921C375.168 498.722 375.692 498.397 376.125 497.969C376.559 497.541 376.891 497.021 377.098 496.449H377.114ZM375.113 499.881C373.817 500.125 372.488 500.125 371.192 499.881C371.011 499.273 370.87 498.653 370.769 498.027C371.158 497.35 371.719 496.788 372.396 496.4C372.561 497.143 372.889 497.841 373.356 498.443C373.823 499.045 374.417 499.536 375.097 499.881H375.113ZM379.668 490.982C380.187 494.088 380.351 497.243 380.156 500.385C378.866 496.733 376.222 493.716 372.77 491.959C375.007 491.314 377.324 490.985 379.652 490.982H379.668ZM372.25 492.105C373.511 492.858 374.671 493.772 375.699 494.822C374.731 494.77 373.766 494.958 372.889 495.37C372.012 495.781 371.25 496.403 370.672 497.181C370.47 495.623 370.547 494.042 370.899 492.512L372.25 492.105ZM370.184 492.772C369.801 494.394 369.748 496.077 370.028 497.72C370.307 499.363 370.913 500.933 371.811 502.338C370.47 502.182 369.147 501.904 367.857 501.508C366.832 500.483 365.808 499.409 364.75 498.254C364.49 497.425 364.262 496.628 364.034 495.782C365.977 494.578 368.031 493.565 370.167 492.756L370.184 492.772Z" fill="black"/>
<path d="M486.924 498.84C479.587 497.213 472.072 487.273 474.528 478.456C476.985 469.639 489.316 464.482 496.344 467.556C503.372 470.631 508.203 484.67 504.787 490.494C500.996 496.953 492.309 499.979 486.924 498.84Z" fill="#2B2E63"/>
<path opacity="0.12" d="M499.305 465.881C499.168 469.782 498.622 473.659 497.678 477.447C494.148 473.592 487.039 471.802 481.914 472.762C482.333 470.462 482.876 468.187 483.541 465.946C483.548 465.923 483.551 465.9 483.55 465.876C483.548 465.852 483.542 465.829 483.531 465.808C483.521 465.787 483.506 465.768 483.488 465.753C483.47 465.737 483.45 465.725 483.427 465.718C483.405 465.711 483.381 465.708 483.357 465.709C483.334 465.711 483.311 465.717 483.29 465.728C483.268 465.738 483.25 465.753 483.234 465.771C483.219 465.789 483.207 465.809 483.199 465.832C480.19 472.421 478.66 482.962 482.223 489.779C478.993 489.076 475.899 487.851 473.064 486.151C473.051 486.142 473.037 486.136 473.022 486.133C473.007 486.13 472.991 486.13 472.976 486.133C472.961 486.136 472.947 486.142 472.934 486.151C472.921 486.16 472.91 486.171 472.902 486.183C472.893 486.196 472.887 486.211 472.884 486.226C472.881 486.241 472.881 486.256 472.884 486.271C472.887 486.287 472.893 486.301 472.902 486.314C472.91 486.327 472.921 486.338 472.934 486.346C482.435 493.211 497.06 492.853 507.781 489.258C508.057 489.161 507.911 488.672 507.618 488.754C502.674 489.978 497.612 490.66 492.521 490.787C497.808 484.492 500.346 473.771 499.956 465.848C499.923 465.474 499.305 465.507 499.305 465.881ZM485.217 490.283C489.784 488.693 493.723 485.683 496.458 481.693C495.374 484.899 493.87 487.946 491.984 490.755C489.721 490.772 487.459 490.625 485.217 490.316V490.283ZM481.638 484.524C485.466 485.569 489.525 485.399 493.253 484.036C490.744 486.577 487.81 488.658 484.582 490.185C483.996 490.088 483.411 489.99 482.841 489.86C482.273 488.156 481.87 486.402 481.638 484.622V484.524ZM481.524 483.402C481.947 482.539 482.386 481.775 482.858 480.913C483.861 481.756 485.054 482.345 486.335 482.628C487.615 482.911 488.945 482.881 490.211 482.539C489.99 483.187 489.735 483.822 489.446 484.443C486.829 484.703 484.19 484.638 481.589 484.247C481.556 483.987 481.556 483.711 481.524 483.434V483.402ZM485.672 477.106C486.798 477.348 487.89 477.725 488.926 478.228C488.462 479.219 487.823 480.117 487.039 480.88C486.486 480.493 485.993 480.027 485.574 479.497C485.266 479.034 485.009 478.537 484.81 478.017C485.119 477.74 485.396 477.431 485.672 477.138V477.106ZM487.006 480.961C486.713 481.27 486.404 481.563 486.095 481.84C485.01 481.59 483.957 481.219 482.955 480.734C483.414 479.952 483.925 479.202 484.485 478.489C484.692 479.067 485.026 479.593 485.462 480.026C485.898 480.46 486.426 480.79 487.006 480.994V480.961ZM489.284 478.407C489.962 478.794 490.524 479.356 490.91 480.034C490.797 480.66 490.65 481.279 490.471 481.889C489.181 482.133 487.857 482.133 486.567 481.889C487.244 481.546 487.837 481.06 488.307 480.465C488.776 479.869 489.109 479.178 489.284 478.44V478.407ZM488.828 473.999C485.379 475.768 482.737 478.788 481.442 482.442C481.247 479.294 481.411 476.134 481.93 473.022C484.266 473.034 486.587 473.374 488.828 474.031V473.999ZM490.699 474.568C491.065 476.091 491.148 477.668 490.943 479.221C490.362 478.443 489.597 477.821 488.717 477.413C487.837 477.004 486.869 476.82 485.9 476.878C486.926 475.822 488.086 474.903 489.349 474.145C489.804 474.324 490.26 474.438 490.699 474.6V474.568ZM497.646 477.822C497.434 478.651 497.19 479.448 496.93 480.294C495.856 481.449 494.847 482.523 493.822 483.548C492.527 483.944 491.199 484.222 489.853 484.378C490.75 482.973 491.356 481.403 491.636 479.76C491.915 478.117 491.862 476.434 491.48 474.812C493.626 475.616 495.691 476.624 497.646 477.822V477.822Z" fill="black"/>
<path d="M182.578 529.164C175.241 527.619 167.741 517.597 170.182 508.78C172.622 499.963 184.969 494.806 191.997 497.88C199.025 500.955 203.873 515.011 200.457 520.818C196.65 527.293 187.979 530.319 182.578 529.164Z" fill="#2B2E63"/>
<path opacity="0.12" d="M194.959 496.205C194.839 500.108 194.293 503.986 193.332 507.771C189.802 503.916 182.709 502.126 177.584 503.086C177.976 500.793 178.492 498.523 179.13 496.286C179.147 496.241 179.146 496.19 179.126 496.146C179.106 496.102 179.069 496.067 179.024 496.05C178.979 496.033 178.928 496.034 178.884 496.054C178.84 496.074 178.805 496.11 178.788 496.156C175.762 502.744 174.233 513.303 177.812 520.103C174.581 519.403 171.487 518.177 168.653 516.475C168.523 516.475 168.393 516.589 168.507 516.67C178.007 523.535 192.649 523.177 203.353 519.582C203.646 519.484 203.483 519.013 203.19 519.078C198.256 520.319 193.197 521.001 188.11 521.111C193.397 514.815 195.919 504.095 195.544 496.188C195.577 495.814 194.975 495.847 194.959 496.205ZM180.87 520.607C185.443 519.008 189.386 515.994 192.128 512.001C191.041 515.205 189.537 518.251 187.654 521.062C185.386 521.099 183.118 520.963 180.87 520.656V520.607ZM177.291 514.832C181.119 515.882 185.178 515.717 188.907 514.36C186.402 516.901 183.466 518.977 180.236 520.493L178.495 520.184C177.93 518.457 177.527 516.682 177.291 514.881V514.832ZM177.178 513.726C177.601 512.847 178.04 512.017 178.512 511.22C179.515 512.064 180.708 512.653 181.989 512.936C183.269 513.219 184.599 513.189 185.865 512.847C185.647 513.49 185.391 514.12 185.1 514.734C182.489 515 179.855 514.94 177.259 514.555C177.21 514.327 177.21 514.051 177.178 513.774V513.726ZM181.277 507.397C182.401 507.652 183.493 508.034 184.531 508.536C184.063 509.515 183.43 510.407 182.66 511.171C182.108 510.79 181.615 510.329 181.196 509.805C180.874 509.343 180.617 508.839 180.431 508.308C180.789 508.064 181.049 507.755 181.277 507.397ZM182.611 511.269L181.7 512.131C180.617 511.876 179.564 511.506 178.56 511.025C179.032 510.248 179.548 509.498 180.106 508.78C180.307 509.373 180.642 509.912 181.085 510.355C181.528 510.798 182.067 511.133 182.66 511.334L182.611 511.269ZM184.889 508.699C185.564 509.09 186.124 509.651 186.516 510.325C186.417 510.959 186.271 511.585 186.076 512.196C184.785 512.432 183.463 512.432 182.172 512.196C182.858 511.864 183.462 511.384 183.94 510.79C184.418 510.197 184.759 509.505 184.937 508.764L184.889 508.699ZM184.433 504.29C180.989 506.06 178.352 509.081 177.064 512.733C176.869 509.59 177.033 506.436 177.552 503.33C179.916 503.329 182.267 503.675 184.531 504.355L184.433 504.29ZM186.32 504.859C186.672 506.39 186.75 507.971 186.548 509.528C185.97 508.746 185.206 508.121 184.326 507.709C183.445 507.297 182.475 507.112 181.505 507.169C182.54 506.127 183.698 505.214 184.954 504.453L186.32 504.859ZM193.251 508.113C193.039 508.959 192.795 509.74 192.551 510.586C192.551 510.586 192.551 510.586 192.47 510.586C191.412 511.741 190.387 512.814 189.362 513.839C188.065 514.224 186.737 514.496 185.393 514.653C186.29 513.251 186.896 511.683 187.175 510.043C187.454 508.403 187.402 506.723 187.02 505.103C189.208 505.908 191.312 506.927 193.299 508.145L193.251 508.113Z" fill="black"/>
<path d="M154.5 436.581C164.065 450.279 190.111 452.85 255.103 465.62C264.083 467.377 293.528 407.266 284.076 404.907C272.103 401.914 225.006 392.901 221.476 392.674C191.721 390.77 148.009 427.309 154.5 436.581Z" fill="#F7A9A0"/>
<path d="M271.078 401.93C271.078 401.93 298.62 406.079 312.399 412.749C330.863 421.664 343.13 436.972 347.88 443.658C357.803 457.698 372.087 498.482 361.041 504.648C351.068 510.228 338.574 467.8 338.574 467.8C338.574 467.8 358.454 508.959 345.196 513.465C331.937 517.971 320.224 467.914 320.224 467.914C320.224 467.914 339.746 510.651 325.3 513.14C314.416 515.027 301.255 470.257 301.255 470.257C301.255 470.257 317.735 507.121 306.624 509.528C294.341 512.278 279.618 471.607 279.618 471.607C250.336 472.99 235.824 461.667 226.454 452.394C224.192 450.182 271.078 401.93 271.078 401.93Z" fill="#F7A9A0"/>
<path d="M332.572 453.159C335.077 457.909 337.664 462.692 339.73 467.654C341.796 472.616 343.715 477.642 345.326 482.767C347.571 489.429 349.034 496.33 349.686 503.33C347.603 490.999 340.429 473.136 338.298 468.174C336.167 463.213 334.394 458.169 332.311 453.224C332.36 453.094 332.572 453.045 332.572 453.159Z" fill="#263238"/>
<path d="M314.563 460.333C317.507 466.548 320.663 472.599 323.331 478.928C325.999 485.256 327.951 491.454 330.164 497.929C330.343 498.417 330.018 498.352 329.822 497.848C327.35 491.47 324.568 485.777 322.03 479.416C319.492 473.055 317.149 466.629 314.416 460.398C314.367 460.301 314.53 460.219 314.563 460.333Z" fill="#263238"/>
<path d="M297.985 463.717C302.725 473.126 306.481 482.999 309.194 493.179C309.357 493.667 308.934 493.537 308.755 493.032C305.208 483.174 302.508 475.414 297.66 463.896C297.579 463.717 297.871 463.473 297.985 463.717Z" fill="#263238"/>
<path d="M328.716 423.225C331.926 425.312 334.923 427.71 337.663 430.383C340.446 433.022 343.014 435.878 345.342 438.924C346.53 440.437 347.587 442.031 348.693 443.609C349.799 445.187 350.759 446.863 351.589 448.49C353.427 451.856 354.92 455.398 356.046 459.064C355.087 457.437 354.42 455.632 353.362 454.021L351.996 451.532C351.524 450.719 351.003 449.905 350.515 449.124C348.511 445.916 346.339 442.815 344.008 439.835C341.73 436.842 339.274 433.962 336.736 431.18C335.451 429.781 334.149 428.415 332.799 427.081C331.449 425.747 330.131 424.511 328.716 423.225Z" fill="#263238"/>
<path d="M276.82 401.93L219.882 465.376C219.882 465.376 162.308 452.15 153.833 437.395C148.253 427.634 191.591 388.314 224.307 392.901L276.82 401.93Z" fill="#2B2E63"/>
<path d="M196.065 405.2C196.068 405.491 195.985 405.776 195.825 406.02C195.665 406.263 195.437 406.453 195.169 406.566C194.9 406.679 194.605 406.709 194.319 406.653C194.034 406.597 193.771 406.457 193.566 406.252C193.36 406.046 193.22 405.784 193.164 405.498C193.108 405.212 193.138 404.917 193.251 404.649C193.364 404.38 193.554 404.152 193.798 403.992C194.041 403.833 194.326 403.749 194.617 403.752C195.001 403.752 195.369 403.905 195.641 404.176C195.912 404.448 196.065 404.816 196.065 405.2V405.2ZM218.043 403.752C217.757 403.752 217.477 403.837 217.239 403.996C217.001 404.155 216.815 404.382 216.706 404.646C216.596 404.911 216.567 405.202 216.623 405.483C216.679 405.763 216.817 406.021 217.019 406.224C217.222 406.426 217.48 406.564 217.761 406.62C218.042 406.676 218.333 406.647 218.597 406.538C218.862 406.428 219.088 406.243 219.247 406.005C219.406 405.766 219.491 405.486 219.491 405.2C219.491 404.816 219.339 404.448 219.067 404.176C218.796 403.905 218.427 403.752 218.043 403.752V403.752ZM241.47 403.752C241.184 403.755 240.906 403.843 240.67 404.004C240.434 404.165 240.251 404.392 240.144 404.657C240.036 404.922 240.01 405.213 240.068 405.492C240.125 405.772 240.265 406.029 240.468 406.23C240.671 406.43 240.929 406.567 241.209 406.621C241.49 406.676 241.78 406.646 242.044 406.536C242.307 406.426 242.532 406.241 242.691 406.003C242.849 405.765 242.934 405.486 242.934 405.2C242.934 405.009 242.896 404.819 242.822 404.642C242.748 404.466 242.64 404.305 242.504 404.171C242.368 404.036 242.206 403.93 242.029 403.858C241.851 403.786 241.661 403.75 241.47 403.752V403.752ZM264.912 403.752C264.626 403.752 264.346 403.837 264.108 403.996C263.87 404.155 263.684 404.382 263.574 404.646C263.465 404.911 263.436 405.202 263.492 405.483C263.548 405.763 263.686 406.021 263.888 406.224C264.091 406.426 264.349 406.564 264.63 406.62C264.91 406.676 265.202 406.647 265.466 406.538C265.731 406.428 265.957 406.243 266.116 406.005C266.275 405.766 266.36 405.486 266.36 405.2C266.36 404.816 266.207 404.448 265.936 404.176C265.664 403.905 265.296 403.752 264.912 403.752V403.752ZM171.175 435.101C170.889 435.104 170.611 435.192 170.375 435.353C170.139 435.514 169.956 435.741 169.849 436.006C169.741 436.271 169.715 436.562 169.773 436.841C169.83 437.121 169.97 437.378 170.173 437.578C170.376 437.779 170.634 437.916 170.914 437.97C171.195 438.025 171.485 437.995 171.749 437.885C172.012 437.775 172.237 437.589 172.396 437.352C172.554 437.114 172.639 436.835 172.639 436.549C172.639 436.358 172.601 436.168 172.527 435.991C172.453 435.814 172.345 435.654 172.209 435.519C172.073 435.385 171.911 435.278 171.734 435.207C171.556 435.135 171.366 435.099 171.175 435.101V435.101ZM194.617 435.101C194.331 435.101 194.051 435.186 193.813 435.345C193.575 435.504 193.389 435.73 193.279 435.995C193.17 436.26 193.141 436.551 193.197 436.831C193.253 437.112 193.391 437.37 193.593 437.573C193.796 437.775 194.054 437.913 194.335 437.969C194.615 438.025 194.907 437.996 195.171 437.887C195.436 437.777 195.662 437.592 195.821 437.353C195.98 437.115 196.065 436.835 196.065 436.549C196.065 436.165 195.912 435.797 195.641 435.525C195.369 435.254 195.001 435.101 194.617 435.101ZM218.043 435.101C217.757 435.101 217.477 435.186 217.239 435.345C217.001 435.504 216.815 435.73 216.706 435.995C216.596 436.26 216.567 436.551 216.623 436.831C216.679 437.112 216.817 437.37 217.019 437.573C217.222 437.775 217.48 437.913 217.761 437.969C218.042 438.025 218.333 437.996 218.597 437.887C218.862 437.777 219.088 437.592 219.247 437.353C219.406 437.115 219.491 436.835 219.491 436.549C219.491 436.165 219.339 435.797 219.067 435.525C218.796 435.254 218.427 435.101 218.043 435.101V435.101ZM241.47 435.101C241.184 435.104 240.906 435.192 240.67 435.353C240.434 435.514 240.251 435.741 240.144 436.006C240.036 436.271 240.01 436.562 240.068 436.841C240.125 437.121 240.265 437.378 240.468 437.578C240.671 437.779 240.929 437.916 241.209 437.97C241.49 438.025 241.78 437.995 242.044 437.885C242.307 437.775 242.532 437.589 242.691 437.352C242.849 437.114 242.934 436.835 242.934 436.549C242.934 436.358 242.896 436.168 242.822 435.991C242.748 435.814 242.64 435.654 242.504 435.519C242.368 435.385 242.206 435.278 242.029 435.207C241.851 435.135 241.661 435.099 241.47 435.101V435.101ZM182.904 420.086C182.614 420.086 182.33 420.172 182.089 420.333C181.848 420.495 181.66 420.725 181.55 420.993C181.439 421.262 181.411 421.557 181.469 421.841C181.527 422.126 181.668 422.387 181.874 422.591C182.081 422.795 182.343 422.933 182.628 422.988C182.913 423.042 183.208 423.011 183.476 422.898C183.743 422.784 183.97 422.594 184.129 422.351C184.288 422.108 184.371 421.824 184.368 421.533C184.368 421.342 184.33 421.152 184.256 420.976C184.183 420.799 184.074 420.639 183.938 420.504C183.802 420.369 183.641 420.263 183.463 420.191C183.285 420.119 183.095 420.083 182.904 420.086ZM206.346 420.086C206.056 420.082 205.77 420.166 205.527 420.326C205.284 420.485 205.094 420.714 204.981 420.982C204.868 421.25 204.837 421.546 204.893 421.831C204.949 422.117 205.089 422.379 205.295 422.585C205.501 422.791 205.763 422.93 206.049 422.986C206.334 423.042 206.63 423.012 206.898 422.899C207.166 422.786 207.395 422.596 207.554 422.353C207.714 422.11 207.798 421.824 207.794 421.533C207.794 421.342 207.756 421.152 207.683 420.976C207.609 420.799 207.501 420.639 207.364 420.504C207.228 420.369 207.067 420.263 206.889 420.191C206.712 420.119 206.522 420.083 206.33 420.086H206.346ZM229.773 420.086C229.482 420.086 229.199 420.172 228.958 420.333C228.716 420.495 228.529 420.725 228.419 420.993C228.308 421.262 228.28 421.557 228.338 421.841C228.396 422.126 228.537 422.387 228.743 422.591C228.95 422.795 229.212 422.933 229.497 422.988C229.782 423.042 230.077 423.011 230.344 422.898C230.612 422.784 230.839 422.594 230.998 422.351C231.157 422.108 231.24 421.824 231.237 421.533C231.237 421.341 231.198 421.15 231.124 420.972C231.049 420.794 230.939 420.633 230.801 420.498C230.663 420.363 230.5 420.257 230.32 420.186C230.141 420.115 229.949 420.081 229.756 420.086H229.773ZM253.215 420.086C252.924 420.082 252.639 420.166 252.396 420.326C252.152 420.485 251.962 420.714 251.849 420.982C251.737 421.25 251.706 421.546 251.762 421.831C251.818 422.117 251.958 422.379 252.164 422.585C252.369 422.791 252.632 422.93 252.917 422.986C253.203 423.042 253.499 423.012 253.767 422.899C254.035 422.786 254.263 422.596 254.423 422.353C254.583 422.11 254.666 421.824 254.663 421.533C254.663 421.342 254.625 421.152 254.551 420.976C254.478 420.799 254.369 420.639 254.233 420.504C254.097 420.369 253.936 420.263 253.758 420.191C253.58 420.119 253.39 420.083 253.199 420.086H253.215ZM182.904 451.434C182.614 451.434 182.33 451.521 182.089 451.682C181.848 451.844 181.66 452.074 181.55 452.342C181.439 452.611 181.411 452.906 181.469 453.19C181.527 453.475 181.668 453.736 181.874 453.94C182.081 454.144 182.343 454.282 182.628 454.337C182.913 454.391 183.208 454.36 183.476 454.247C183.743 454.133 183.97 453.943 184.129 453.7C184.288 453.457 184.371 453.173 184.368 452.882C184.368 452.691 184.33 452.501 184.256 452.324C184.183 452.148 184.074 451.987 183.938 451.853C183.802 451.718 183.641 451.612 183.463 451.54C183.285 451.468 183.095 451.432 182.904 451.434ZM206.346 451.434C206.056 451.431 205.77 451.515 205.527 451.674C205.284 451.834 205.094 452.063 204.981 452.331C204.868 452.599 204.837 452.895 204.893 453.18C204.949 453.466 205.089 453.728 205.295 453.934C205.501 454.14 205.763 454.279 206.049 454.335C206.334 454.391 206.63 454.361 206.898 454.248C207.166 454.135 207.395 453.945 207.554 453.702C207.714 453.459 207.798 453.173 207.794 452.882C207.794 452.691 207.756 452.501 207.683 452.324C207.609 452.148 207.501 451.987 207.364 451.853C207.228 451.718 207.067 451.612 206.889 451.54C206.712 451.468 206.522 451.432 206.33 451.434H206.346ZM229.789 451.434C229.401 451.434 229.028 451.589 228.754 451.863C228.479 452.138 228.325 452.51 228.325 452.899C228.325 453.09 228.363 453.28 228.437 453.456C228.51 453.633 228.618 453.794 228.755 453.928C228.891 454.063 229.052 454.169 229.23 454.241C229.407 454.313 229.597 454.349 229.789 454.347L231.221 452.72C231.181 452.363 231.011 452.033 230.744 451.793C230.477 451.553 230.132 451.42 229.773 451.418L229.789 451.434Z" fill="white"/>
<path d="M185.295 403.166C190.566 399.343 205.419 390.428 224.339 392.804C224.502 392.804 224.518 393.096 224.339 393.08C210.056 392.674 190.778 400.141 185.295 403.394C185.279 403.476 185.165 403.28 185.295 403.166Z" fill="#263238"/>
<path d="M204.329 454.704C210.218 447.4 216.481 440.421 222.777 433.458C229.073 426.495 235.352 419.5 241.827 412.684C245.471 408.828 249.115 404.956 252.905 401.296C253.003 401.198 253.182 401.296 253.101 401.458C247.228 408.747 240.965 415.775 234.734 422.77C228.503 429.765 222.159 436.728 215.781 443.626C212.17 447.514 208.493 451.337 204.703 455.013C204.507 455.192 204.166 454.916 204.329 454.704Z" fill="#263238"/>
<path d="M276.934 401.1C273.437 400.049 269.871 399.239 266.262 398.676C262.667 397.993 259.055 397.391 255.46 396.806C248.286 395.651 233.205 392.397 219.947 392.429C219.8 392.429 220.549 393.145 220.695 393.145C227.007 392.804 272.233 401.8 276.007 402.06C275.856 402.301 275.72 402.551 275.6 402.809C275.6 403.004 275.714 403.232 275.909 403.101C276.381 402.792 276.706 402.402 277.146 402.06C277.23 401.999 277.294 401.914 277.331 401.817C277.368 401.719 277.376 401.613 277.353 401.511C277.331 401.41 277.279 401.317 277.205 401.244C277.13 401.171 277.036 401.121 276.934 401.1V401.1Z" fill="#263238"/>
<path d="M323.136 281.269C377.537 328.723 420.322 387.354 417.492 402.012C412.367 429.31 376.496 431.018 370.997 425.112C348.97 401.247 325.723 355.013 300.539 303.426C278.04 257.322 305.225 265.667 323.136 281.269Z" fill="#2B2E63"/>
<path d="M313.229 279.804C313.232 280.095 313.148 280.381 312.989 280.624C312.829 280.867 312.6 281.057 312.332 281.17C312.064 281.283 311.768 281.313 311.483 281.257C311.197 281.201 310.935 281.062 310.729 280.856C310.523 280.65 310.384 280.388 310.328 280.102C310.272 279.817 310.302 279.521 310.415 279.253C310.528 278.985 310.718 278.756 310.961 278.596C311.204 278.437 311.49 278.353 311.781 278.357C312.165 278.357 312.533 278.509 312.804 278.781C313.076 279.052 313.229 279.42 313.229 279.804V279.804ZM311.781 309.705C311.49 309.702 311.204 309.786 310.961 309.945C310.718 310.105 310.528 310.334 310.415 310.602C310.302 310.87 310.272 311.166 310.328 311.451C310.384 311.737 310.523 311.999 310.729 312.205C310.935 312.41 311.197 312.55 311.483 312.606C311.768 312.662 312.064 312.632 312.332 312.519C312.6 312.406 312.829 312.216 312.989 311.973C313.148 311.73 313.232 311.444 313.229 311.153C313.229 310.769 313.076 310.401 312.804 310.129C312.533 309.858 312.165 309.705 311.781 309.705V309.705ZM335.207 309.705C334.917 309.705 334.633 309.792 334.392 309.953C334.151 310.115 333.963 310.345 333.853 310.613C333.742 310.882 333.714 311.177 333.772 311.461C333.83 311.746 333.971 312.007 334.177 312.211C334.384 312.415 334.646 312.553 334.931 312.608C335.216 312.662 335.511 312.631 335.779 312.518C336.046 312.404 336.273 312.214 336.432 311.971C336.591 311.728 336.674 311.444 336.671 311.153C336.671 310.962 336.633 310.772 336.559 310.595C336.486 310.419 336.377 310.258 336.241 310.124C336.105 309.989 335.944 309.883 335.766 309.811C335.588 309.739 335.398 309.703 335.207 309.705V309.705ZM300.035 294.69C299.744 294.687 299.459 294.77 299.216 294.93C298.972 295.089 298.782 295.318 298.669 295.586C298.556 295.854 298.526 296.15 298.582 296.436C298.638 296.721 298.778 296.983 298.984 297.189C299.189 297.395 299.452 297.535 299.737 297.591C300.023 297.647 300.318 297.616 300.587 297.503C300.855 297.391 301.083 297.2 301.243 296.957C301.403 296.714 301.486 296.429 301.483 296.138C301.483 295.754 301.33 295.385 301.059 295.114C300.787 294.842 300.419 294.69 300.035 294.69ZM323.461 294.69C323.17 294.687 322.885 294.77 322.642 294.93C322.399 295.089 322.208 295.318 322.096 295.586C321.983 295.854 321.952 296.15 322.008 296.436C322.064 296.721 322.204 296.983 322.41 297.189C322.616 297.395 322.878 297.535 323.163 297.591C323.449 297.647 323.745 297.616 324.013 297.503C324.281 297.391 324.51 297.2 324.669 296.957C324.829 296.714 324.912 296.429 324.909 296.138C324.909 295.759 324.761 295.396 324.497 295.125C324.232 294.855 323.872 294.698 323.494 294.69H323.461ZM335.174 341.054C334.884 341.054 334.6 341.141 334.359 341.302C334.118 341.464 333.931 341.693 333.82 341.962C333.71 342.23 333.682 342.526 333.74 342.81C333.798 343.095 333.939 343.355 334.145 343.56C334.351 343.764 334.614 343.902 334.899 343.956C335.184 344.011 335.479 343.98 335.746 343.866C336.013 343.753 336.241 343.563 336.4 343.32C336.559 343.077 336.642 342.792 336.639 342.502C336.639 342.121 336.488 341.755 336.22 341.484C335.952 341.213 335.588 341.059 335.207 341.054H335.174ZM358.617 341.054C358.326 341.051 358.041 341.135 357.797 341.294C357.554 341.454 357.364 341.682 357.251 341.951C357.138 342.219 357.108 342.515 357.164 342.8C357.22 343.086 357.36 343.348 357.565 343.554C357.771 343.759 358.034 343.899 358.319 343.955C358.605 344.011 358.9 343.981 359.169 343.868C359.437 343.755 359.665 343.565 359.825 343.322C359.984 343.078 360.068 342.793 360.065 342.502C360.065 342.311 360.027 342.121 359.953 341.944C359.879 341.768 359.771 341.607 359.635 341.473C359.499 341.338 359.337 341.232 359.16 341.16C358.982 341.088 358.792 341.052 358.601 341.054H358.617ZM381.539 341.136C381.262 341.241 381.023 341.428 380.855 341.672C380.686 341.916 380.596 342.206 380.595 342.502C380.595 342.886 380.748 343.254 381.019 343.526C381.291 343.797 381.659 343.95 382.043 343.95C382.294 343.949 382.541 343.885 382.76 343.762C382.979 343.64 383.163 343.464 383.296 343.251L381.539 341.136ZM323.461 326.039C323.17 326.035 322.885 326.119 322.642 326.279C322.399 326.438 322.208 326.667 322.096 326.935C321.983 327.203 321.952 327.499 322.008 327.784C322.064 328.07 322.204 328.332 322.41 328.538C322.616 328.744 322.878 328.884 323.163 328.94C323.449 328.996 323.745 328.965 324.013 328.852C324.281 328.74 324.51 328.549 324.669 328.306C324.829 328.063 324.912 327.778 324.909 327.487C324.909 327.108 324.761 326.745 324.497 326.474C324.232 326.203 323.872 326.047 323.494 326.039H323.461ZM346.887 326.039C346.597 326.039 346.314 326.125 346.072 326.287C345.831 326.448 345.644 326.678 345.533 326.946C345.423 327.215 345.395 327.51 345.453 327.795C345.511 328.079 345.652 328.34 345.858 328.544C346.065 328.748 346.327 328.886 346.612 328.941C346.897 328.995 347.192 328.964 347.459 328.851C347.726 328.738 347.954 328.547 348.113 328.304C348.272 328.062 348.355 327.777 348.352 327.487C348.352 327.105 348.201 326.74 347.933 326.468C347.665 326.197 347.301 326.043 346.92 326.039H346.887ZM369.094 326.722C368.956 326.953 368.883 327.217 368.882 327.487C368.88 327.678 368.916 327.868 368.988 328.046C369.059 328.223 369.166 328.385 369.3 328.521C369.435 328.657 369.595 328.765 369.772 328.839C369.949 328.913 370.139 328.951 370.33 328.951C370.538 328.954 370.744 328.909 370.932 328.821C370.363 328.105 369.744 327.422 369.126 326.722H369.094ZM335.825 372.501C336.134 373.038 336.411 373.574 336.704 374.128C336.711 374.046 336.711 373.965 336.704 373.884C336.716 373.591 336.639 373.301 336.482 373.054C336.325 372.807 336.095 372.614 335.825 372.501V372.501ZM358.601 372.371C358.31 372.367 358.024 372.451 357.781 372.611C357.538 372.77 357.348 372.999 357.235 373.267C357.122 373.535 357.092 373.831 357.148 374.116C357.204 374.402 357.343 374.664 357.549 374.87C357.755 375.076 358.017 375.216 358.303 375.272C358.588 375.327 358.884 375.297 359.152 375.184C359.42 375.071 359.649 374.881 359.809 374.638C359.968 374.395 360.052 374.109 360.049 373.819C360.049 373.435 359.896 373.066 359.624 372.795C359.353 372.523 358.985 372.371 358.601 372.371V372.371ZM382.027 372.371C381.736 372.367 381.451 372.451 381.207 372.611C380.964 372.77 380.774 372.999 380.661 373.267C380.548 373.535 380.518 373.831 380.574 374.116C380.63 374.402 380.77 374.664 380.975 374.87C381.181 375.076 381.444 375.216 381.729 375.272C382.015 375.327 382.31 375.297 382.578 375.184C382.847 375.071 383.075 374.881 383.235 374.638C383.394 374.395 383.478 374.109 383.475 373.819C383.475 373.443 383.329 373.082 383.068 372.812C382.807 372.541 382.451 372.383 382.076 372.371H382.027ZM404.9 372.468C404.598 372.605 404.35 372.84 404.199 373.136C404.048 373.431 404.002 373.769 404.068 374.095C404.134 374.42 404.309 374.713 404.564 374.926C404.818 375.139 405.138 375.259 405.469 375.266C405.835 375.267 406.188 375.134 406.462 374.892C406.006 374.128 405.486 373.314 404.949 372.501L404.9 372.468ZM346.871 357.355C346.581 357.355 346.297 357.441 346.056 357.603C345.815 357.765 345.627 357.994 345.517 358.263C345.407 358.531 345.379 358.826 345.437 359.111C345.494 359.395 345.635 359.656 345.842 359.86C346.048 360.064 346.311 360.203 346.596 360.257C346.881 360.312 347.176 360.281 347.443 360.167C347.71 360.054 347.938 359.864 348.097 359.621C348.255 359.378 348.339 359.093 348.335 358.803C348.327 358.43 348.175 358.075 347.912 357.811C347.648 357.548 347.293 357.396 346.92 357.388L346.871 357.355ZM370.314 357.355C370.023 357.352 369.738 357.435 369.494 357.595C369.251 357.755 369.061 357.983 368.948 358.251C368.835 358.52 368.805 358.815 368.861 359.101C368.917 359.386 369.057 359.649 369.262 359.854C369.468 360.06 369.73 360.2 370.016 360.256C370.301 360.312 370.597 360.282 370.865 360.169C371.134 360.056 371.362 359.866 371.522 359.622C371.681 359.379 371.765 359.094 371.762 358.803C371.754 358.433 371.604 358.08 371.344 357.817C371.084 357.554 370.733 357.4 370.363 357.388L370.314 357.355ZM395.188 358.51L394.505 357.615C394.283 357.485 394.03 357.417 393.773 357.42C393.413 357.458 393.08 357.628 392.838 357.897C392.596 358.166 392.463 358.515 392.463 358.876C392.463 359.238 392.596 359.587 392.838 359.855C393.08 360.124 393.413 360.294 393.773 360.332C394.157 360.328 394.524 360.175 394.798 359.904C395.071 359.634 395.228 359.268 395.237 358.884C395.247 358.771 395.247 358.656 395.237 358.543L395.188 358.51ZM358.601 403.752C358.314 403.752 358.034 403.837 357.796 403.996C357.558 404.155 357.373 404.381 357.263 404.646C357.153 404.91 357.125 405.202 357.181 405.482C357.236 405.763 357.374 406.021 357.577 406.224C357.779 406.426 358.037 406.564 358.318 406.62C358.599 406.676 358.89 406.647 359.155 406.538C359.419 406.428 359.645 406.242 359.805 406.004C359.964 405.766 360.049 405.486 360.049 405.2C360.049 404.816 359.896 404.448 359.624 404.176C359.353 403.905 358.985 403.752 358.601 403.752V403.752ZM382.027 403.752C381.741 403.752 381.461 403.837 381.223 403.996C380.984 404.155 380.799 404.381 380.689 404.646C380.58 404.91 380.551 405.202 380.607 405.482C380.663 405.763 380.801 406.021 381.003 406.224C381.206 406.426 381.464 406.564 381.744 406.62C382.025 406.676 382.316 406.647 382.581 406.538C382.846 406.428 383.072 406.242 383.231 406.004C383.39 405.766 383.475 405.486 383.475 405.2C383.475 404.824 383.329 404.463 383.068 404.193C382.807 403.923 382.451 403.765 382.076 403.752H382.027ZM405.469 403.752C405.183 403.752 404.903 403.837 404.665 403.996C404.427 404.155 404.241 404.381 404.132 404.646C404.022 404.91 403.994 405.202 404.049 405.482C404.105 405.763 404.243 406.021 404.446 406.224C404.648 406.426 404.906 406.564 405.187 406.62C405.468 406.676 405.759 406.647 406.023 406.538C406.288 406.428 406.514 406.242 406.673 406.004C406.832 405.766 406.917 405.486 406.917 405.2C406.918 404.824 406.772 404.463 406.511 404.193C406.25 403.923 405.894 403.765 405.518 403.752H405.469ZM346.904 388.736C346.614 388.737 346.33 388.823 346.089 388.984C345.848 389.146 345.66 389.376 345.55 389.644C345.439 389.913 345.411 390.208 345.469 390.492C345.527 390.777 345.668 391.038 345.874 391.242C346.081 391.446 346.343 391.584 346.628 391.639C346.913 391.693 347.208 391.662 347.475 391.549C347.743 391.435 347.97 391.245 348.129 391.002C348.288 390.759 348.371 390.475 348.368 390.184C348.368 389.8 348.215 389.432 347.944 389.161C347.672 388.889 347.304 388.736 346.92 388.736H346.904ZM370.346 388.736C370.055 388.733 369.77 388.817 369.527 388.976C369.284 389.136 369.093 389.365 368.981 389.633C368.868 389.901 368.837 390.197 368.893 390.482C368.949 390.768 369.089 391.03 369.295 391.236C369.501 391.442 369.763 391.581 370.048 391.637C370.334 391.693 370.63 391.663 370.898 391.55C371.166 391.437 371.395 391.247 371.554 391.004C371.714 390.761 371.797 390.475 371.794 390.184C371.794 389.803 371.644 389.437 371.376 389.166C371.108 388.895 370.744 388.741 370.363 388.736H370.346ZM393.773 388.736C393.482 388.737 393.199 388.823 392.957 388.984C392.716 389.146 392.529 389.376 392.418 389.644C392.308 389.913 392.28 390.208 392.338 390.492C392.396 390.777 392.537 391.038 392.743 391.242C392.95 391.446 393.212 391.584 393.497 391.639C393.782 391.693 394.077 391.662 394.344 391.549C394.611 391.435 394.839 391.245 394.998 391.002C395.157 390.759 395.24 390.475 395.237 390.184C395.237 389.8 395.084 389.432 394.813 389.161C394.541 388.889 394.173 388.736 393.789 388.736H393.773ZM370.346 420.085C370.055 420.082 369.77 420.166 369.527 420.325C369.284 420.485 369.093 420.713 368.981 420.982C368.868 421.25 368.837 421.546 368.893 421.831C368.949 422.117 369.089 422.379 369.295 422.585C369.501 422.79 369.763 422.93 370.048 422.986C370.334 423.042 370.63 423.012 370.898 422.899C371.166 422.786 371.395 422.596 371.554 422.353C371.714 422.109 371.797 421.824 371.794 421.533C371.794 421.152 371.644 420.786 371.376 420.515C371.108 420.244 370.744 420.09 370.363 420.085H370.346ZM393.773 420.085C393.482 420.085 393.199 420.172 392.957 420.333C392.716 420.495 392.529 420.725 392.418 420.993C392.308 421.262 392.28 421.557 392.338 421.841C392.396 422.126 392.537 422.386 392.743 422.591C392.95 422.795 393.212 422.933 393.497 422.988C393.782 423.042 394.077 423.011 394.344 422.898C394.611 422.784 394.839 422.594 394.998 422.351C395.157 422.108 395.24 421.824 395.237 421.533C395.237 421.149 395.084 420.781 394.813 420.509C394.541 420.238 394.173 420.085 393.789 420.085H393.773Z" fill="white"/>
<path d="M362.017 414.457C358.031 408.275 354.273 401.898 350.466 395.586C346.66 389.273 342.885 382.929 339.176 376.552C331.856 363.944 325.055 351.059 318.499 338.045C314.79 330.675 311.016 323.403 307.486 315.887C307.372 315.643 306.981 315.887 307.063 316.066C310.479 324.743 314.156 333.278 318.093 341.673L317.93 341.461C317.051 340.274 316.173 339.086 315.311 337.882C313.603 335.507 312.057 333.083 310.43 330.594C310.316 330.399 310.007 330.594 310.121 330.789C311.881 334.175 313.87 337.436 316.075 340.55C317.153 342.006 318.315 343.396 319.557 344.715L319.671 344.812C321.476 348.554 323.315 352.28 325.251 355.972C332.003 369.09 339.409 381.86 347.441 394.235C349.718 397.7 352.012 401.149 354.403 404.549C356.795 407.949 359.284 411.236 361.822 414.587C361.854 414.798 362.147 414.668 362.017 414.457Z" fill="#263238"/>
<path d="M380.01 419.825C369.696 405.037 374.869 375.624 386.257 305.02C387.884 295.259 461.969 294.495 460.83 305.02C459.399 318.263 446.189 370.598 442.756 378.227C425.886 415.97 386.989 429.863 380.01 419.825Z" fill="#F7A9A0"/>
<path d="M458.423 314.13C461.498 306.224 475.635 262.397 476.318 251.286C477.001 240.175 476.757 208.045 468.298 206.646C459.838 205.247 459.171 214.65 459.171 214.65C459.171 214.65 456.91 201.099 448.271 200.448C439.633 199.797 439.064 214.487 439.064 214.487C439.064 214.487 435.729 200.741 427.058 200.725C418.387 200.708 420.42 215.545 420.42 215.545C420.42 215.545 417.947 202.839 410.806 205.784C402.216 209.363 409.407 232.285 407.698 244.486C407.308 247.268 395.855 300.123 395.855 300.123L458.423 314.13Z" fill="#F7A9A0"/>
<path d="M420.192 214.276C425.447 231.146 424.828 239.427 420.338 256.215C420.257 256.557 420.729 256.752 420.843 256.427C426.732 240.37 428.977 230.089 421.005 213.983C420.615 213.186 419.948 213.479 420.192 214.276Z" fill="#263238"/>
<path d="M438.657 213.154C442.578 231.146 441.992 240.143 438.657 258.086C438.657 258.331 439.047 258.444 439.113 258.184C443.993 240.875 445.961 230.528 439.682 213.105C439.308 212.308 438.478 212.34 438.657 213.154Z" fill="#263238"/>
<path d="M459.008 215.545C461.546 233.245 461.319 243.201 455.755 260.12C455.722 260.202 455.724 260.293 455.759 260.374C455.794 260.455 455.86 260.519 455.942 260.551C456.024 260.583 456.115 260.582 456.196 260.547C456.277 260.512 456.341 260.446 456.373 260.364C463.71 243.591 464.084 231.26 459.529 215.529C459.236 214.455 458.846 214.439 459.008 215.545Z" fill="#263238"/>
<path d="M385.183 313.951C385.183 313.951 379.31 292.624 378.806 282.668C378.301 272.711 390.047 234.985 398.328 237.117C409.048 239.801 406.559 262.934 403.859 274.094C403.859 274.094 428.652 280.276 430.457 297.26C432.263 314.244 385.183 313.951 385.183 313.951Z" fill="#F7A9A0"/>
<path d="M401.061 238.76C409.065 248.244 404.575 262.674 402.688 273.704C402.652 273.865 402.656 274.032 402.699 274.192C402.742 274.351 402.823 274.498 402.935 274.619C403.047 274.74 403.186 274.833 403.341 274.889C403.497 274.945 403.663 274.963 403.827 274.94C414.043 278.194 427.513 285.824 430.832 296.642C430.853 296.7 430.895 296.748 430.948 296.779C431.002 296.809 431.065 296.819 431.125 296.807C431.186 296.796 431.241 296.763 431.279 296.715C431.318 296.666 431.338 296.606 431.336 296.545C429.351 284.441 416.695 275.884 405.307 273.021C407.341 261.73 411.212 246.991 401.061 238.678C401.077 238.63 400.996 238.695 401.061 238.76Z" fill="#263238"/>
<path d="M462.001 328.935L376.024 353.337C376.024 353.337 358.877 409.69 369.777 423.827C381.441 438.94 435.565 415.514 446.335 382.587L462.001 328.935Z" fill="#2B2E63"/>
<path d="M430.392 342.502C430.392 342.789 430.307 343.069 430.148 343.307C429.989 343.545 429.763 343.73 429.498 343.84C429.234 343.95 428.943 343.978 428.662 343.922C428.381 343.867 428.123 343.729 427.921 343.526C427.718 343.324 427.58 343.066 427.524 342.785C427.468 342.504 427.497 342.213 427.607 341.948C427.716 341.684 427.902 341.458 428.14 341.299C428.378 341.139 428.658 341.055 428.944 341.055C429.328 341.055 429.697 341.207 429.968 341.479C430.24 341.75 430.392 342.118 430.392 342.502V342.502ZM452.371 341.055C452.08 341.055 451.797 341.141 451.556 341.302C451.314 341.464 451.127 341.694 451.016 341.962C450.906 342.231 450.878 342.526 450.936 342.81C450.994 343.095 451.135 343.356 451.341 343.56C451.548 343.764 451.81 343.902 452.095 343.957C452.38 344.011 452.675 343.98 452.942 343.867C453.21 343.753 453.437 343.563 453.596 343.32C453.755 343.077 453.838 342.793 453.835 342.502C453.835 342.311 453.797 342.121 453.723 341.945C453.649 341.768 453.541 341.607 453.405 341.473C453.269 341.338 453.107 341.232 452.93 341.16C452.752 341.088 452.562 341.052 452.371 341.055V341.055ZM382.076 372.371C381.785 372.368 381.499 372.451 381.256 372.611C381.013 372.77 380.823 372.999 380.71 373.267C380.597 373.535 380.567 373.831 380.623 374.117C380.679 374.402 380.818 374.665 381.024 374.87C381.23 375.076 381.492 375.216 381.778 375.272C382.063 375.328 382.359 375.297 382.627 375.185C382.895 375.072 383.124 374.882 383.283 374.638C383.443 374.395 383.527 374.11 383.523 373.819C383.523 373.435 383.371 373.066 383.099 372.795C382.828 372.523 382.46 372.371 382.076 372.371V372.371ZM405.518 372.371C405.227 372.368 404.942 372.451 404.699 372.611C404.455 372.77 404.265 372.999 404.152 373.267C404.04 373.535 404.009 373.831 404.065 374.117C404.121 374.402 404.261 374.665 404.467 374.87C404.672 375.076 404.935 375.216 405.22 375.272C405.506 375.328 405.801 375.297 406.07 375.185C406.338 375.072 406.566 374.882 406.726 374.638C406.886 374.395 406.969 374.11 406.966 373.819C406.966 373.435 406.813 373.066 406.542 372.795C406.27 372.523 405.902 372.371 405.518 372.371V372.371ZM428.944 372.371C428.653 372.368 428.368 372.451 428.125 372.611C427.882 372.77 427.691 372.999 427.579 373.267C427.466 373.535 427.435 373.831 427.491 374.117C427.547 374.402 427.687 374.665 427.893 374.87C428.099 375.076 428.361 375.216 428.647 375.272C428.932 375.328 429.228 375.297 429.496 375.185C429.764 375.072 429.993 374.882 430.152 374.638C430.312 374.395 430.395 374.11 430.392 373.819C430.392 373.435 430.24 373.066 429.968 372.795C429.697 372.523 429.328 372.371 428.944 372.371V372.371ZM393.789 357.355C393.498 357.355 393.215 357.442 392.974 357.603C392.732 357.765 392.545 357.994 392.435 358.263C392.324 358.531 392.296 358.827 392.354 359.111C392.412 359.396 392.553 359.656 392.759 359.861C392.966 360.065 393.228 360.203 393.513 360.257C393.798 360.312 394.093 360.281 394.36 360.167C394.628 360.054 394.855 359.864 395.014 359.621C395.173 359.378 395.256 359.093 395.253 358.803C395.244 358.422 395.086 358.06 394.812 357.795C394.538 357.53 394.17 357.383 393.789 357.388V357.355ZM417.231 357.355C416.94 357.352 416.655 357.436 416.412 357.595C416.168 357.755 415.978 357.983 415.865 358.252C415.753 358.52 415.722 358.815 415.778 359.101C415.834 359.387 415.974 359.649 416.18 359.855C416.385 360.06 416.648 360.2 416.933 360.256C417.219 360.312 417.515 360.282 417.783 360.169C418.051 360.056 418.28 359.866 418.439 359.623C418.599 359.379 418.682 359.094 418.679 358.803C418.675 358.61 418.632 358.42 418.554 358.244C418.475 358.067 418.362 357.909 418.221 357.777C418.08 357.645 417.914 357.543 417.733 357.476C417.552 357.409 417.359 357.379 417.166 357.388L417.231 357.355ZM440.657 357.355C440.367 357.355 440.084 357.442 439.842 357.603C439.601 357.765 439.414 357.994 439.303 358.263C439.193 358.531 439.165 358.827 439.223 359.111C439.281 359.396 439.422 359.656 439.628 359.861C439.834 360.065 440.097 360.203 440.382 360.257C440.667 360.312 440.962 360.281 441.229 360.167C441.496 360.054 441.724 359.864 441.883 359.621C442.042 359.378 442.125 359.093 442.122 358.803C442.113 358.422 441.955 358.06 441.68 357.795C441.406 357.53 441.039 357.383 440.657 357.388V357.355ZM382.092 403.72C381.805 403.72 381.526 403.805 381.287 403.964C381.049 404.123 380.864 404.349 380.754 404.614C380.645 404.878 380.616 405.169 380.672 405.45C380.728 405.731 380.866 405.989 381.068 406.191C381.271 406.394 381.528 406.532 381.809 406.588C382.09 406.644 382.381 406.615 382.646 406.505C382.91 406.396 383.137 406.21 383.296 405.972C383.455 405.734 383.54 405.454 383.54 405.168C383.531 404.786 383.373 404.424 383.099 404.159C382.824 403.894 382.457 403.748 382.076 403.752L382.092 403.72ZM405.534 403.72C405.248 403.72 404.968 403.805 404.73 403.964C404.492 404.123 404.306 404.349 404.197 404.614C404.087 404.878 404.058 405.169 404.114 405.45C404.17 405.731 404.308 405.989 404.511 406.191C404.713 406.394 404.971 406.532 405.252 406.588C405.533 406.644 405.824 406.615 406.088 406.505C406.353 406.396 406.579 406.21 406.738 405.972C406.897 405.734 406.982 405.454 406.982 405.168C406.974 404.786 406.815 404.424 406.541 404.159C406.267 403.894 405.899 403.748 405.518 403.752L405.534 403.72ZM428.961 403.72C428.674 403.72 428.394 403.805 428.156 403.964C427.918 404.123 427.733 404.349 427.623 404.614C427.513 404.878 427.485 405.169 427.541 405.45C427.596 405.731 427.734 405.989 427.937 406.191C428.139 406.394 428.397 406.532 428.678 406.588C428.959 406.644 429.25 406.615 429.515 406.505C429.779 406.396 430.005 406.21 430.165 405.972C430.324 405.734 430.409 405.454 430.409 405.168C430.4 404.786 430.241 404.424 429.967 404.159C429.693 403.894 429.326 403.748 428.944 403.752L428.961 403.72ZM370.395 388.704C370.104 388.701 369.819 388.785 369.575 388.944C369.332 389.104 369.142 389.332 369.029 389.6C368.916 389.869 368.886 390.164 368.942 390.45C368.998 390.735 369.138 390.998 369.344 391.204C369.549 391.409 369.812 391.549 370.097 391.605C370.383 391.661 370.678 391.631 370.947 391.518C371.215 391.405 371.443 391.215 371.603 390.972C371.763 390.728 371.846 390.443 371.843 390.152C371.839 389.962 371.797 389.774 371.72 389.6C371.644 389.426 371.533 389.269 371.396 389.138C371.258 389.006 371.096 388.903 370.919 388.834C370.742 388.766 370.553 388.732 370.362 388.737L370.395 388.704ZM393.821 388.704C393.531 388.704 393.247 388.791 393.006 388.952C392.765 389.114 392.577 389.343 392.467 389.612C392.357 389.88 392.329 390.176 392.387 390.46C392.444 390.744 392.585 391.005 392.792 391.209C392.998 391.414 393.261 391.552 393.546 391.606C393.831 391.661 394.126 391.63 394.393 391.516C394.66 391.403 394.888 391.213 395.047 390.97C395.205 390.727 395.289 390.442 395.285 390.152C395.281 389.96 395.239 389.772 395.161 389.597C395.084 389.421 394.972 389.263 394.833 389.132C394.693 389 394.529 388.897 394.35 388.83C394.171 388.762 393.98 388.73 393.789 388.737L393.821 388.704ZM417.264 388.704C416.973 388.701 416.688 388.785 416.444 388.944C416.201 389.104 416.011 389.332 415.898 389.6C415.785 389.869 415.755 390.164 415.811 390.45C415.867 390.735 416.007 390.998 416.212 391.204C416.418 391.409 416.68 391.549 416.966 391.605C417.251 391.661 417.547 391.631 417.815 391.518C418.084 391.405 418.312 391.215 418.472 390.972C418.631 390.728 418.715 390.443 418.712 390.152C418.708 389.956 418.664 389.763 418.583 389.585C418.503 389.406 418.386 389.246 418.242 389.113C418.097 388.981 417.928 388.88 417.743 388.815C417.558 388.75 417.362 388.723 417.166 388.737L417.264 388.704ZM440.69 388.704C440.4 388.704 440.116 388.791 439.875 388.952C439.634 389.114 439.446 389.343 439.336 389.612C439.226 389.88 439.197 390.176 439.255 390.46C439.313 390.744 439.454 391.005 439.661 391.209C439.867 391.414 440.129 391.552 440.414 391.606C440.7 391.661 440.994 391.63 441.262 391.516C441.529 391.403 441.756 391.213 441.915 390.97C442.074 390.727 442.157 390.442 442.154 390.152C442.15 389.96 442.108 389.772 442.03 389.597C441.952 389.421 441.841 389.263 441.701 389.132C441.562 389 441.398 388.897 441.219 388.83C441.04 388.762 440.849 388.73 440.657 388.737L440.69 388.704ZM370.395 420.053C370.104 420.05 369.819 420.133 369.575 420.293C369.332 420.453 369.142 420.681 369.029 420.949C368.916 421.218 368.886 421.513 368.942 421.799C368.998 422.084 369.138 422.347 369.344 422.552C369.549 422.758 369.812 422.898 370.097 422.954C370.383 423.01 370.678 422.98 370.947 422.867C371.215 422.754 371.443 422.564 371.603 422.32C371.763 422.077 371.846 421.792 371.843 421.501C371.839 421.311 371.797 421.123 371.72 420.949C371.644 420.775 371.533 420.618 371.396 420.487C371.258 420.355 371.096 420.252 370.919 420.183C370.742 420.115 370.553 420.081 370.362 420.086L370.395 420.053ZM393.821 420.053C393.531 420.053 393.247 420.139 393.006 420.301C392.765 420.463 392.577 420.692 392.467 420.961C392.357 421.229 392.329 421.524 392.387 421.809C392.444 422.093 392.585 422.354 392.792 422.558C392.998 422.762 393.261 422.901 393.546 422.955C393.831 423.01 394.126 422.978 394.393 422.865C394.66 422.752 394.888 422.562 395.047 422.319C395.205 422.076 395.289 421.791 395.285 421.501C395.281 421.309 395.239 421.121 395.161 420.945C395.084 420.77 394.972 420.612 394.833 420.481C394.693 420.349 394.529 420.246 394.35 420.178C394.171 420.111 393.98 420.079 393.789 420.086L393.821 420.053Z" fill="white"/>
<path d="M378.838 372.875C388.437 370.695 397.905 367.995 407.373 365.294C416.841 362.593 426.325 359.893 435.729 356.948C441.032 355.322 446.352 353.695 451.606 351.791C451.753 351.791 451.704 351.499 451.606 351.531C442.024 353.695 432.524 356.412 423.072 358.998C413.62 361.585 404.103 364.399 394.668 367.23C389.348 368.857 384.044 370.484 378.79 372.387C378.481 372.485 378.562 372.94 378.838 372.875Z" fill="#263238"/>
<path d="M379.082 352.393C377.748 352.523 376.414 352.8 375.097 353.06C374.996 353.089 374.905 353.143 374.831 353.217C374.757 353.291 374.703 353.383 374.674 353.483C373.21 358.494 372.168 363.651 371.127 368.759C370.086 373.867 369.191 378.845 368.362 383.921C367.906 386.638 367.516 389.387 367.207 392.055C365.547 395.374 364.536 398.98 364.229 402.678C364.229 402.722 364.247 402.763 364.277 402.793C364.308 402.824 364.349 402.841 364.392 402.841C364.435 402.841 364.477 402.824 364.507 402.793C364.538 402.763 364.555 402.722 364.555 402.678C364.962 399.396 365.811 396.184 367.076 393.129C366.255 399.826 366.436 406.609 367.613 413.253C365.986 403.329 368.427 392.983 370.054 383.222C370.867 378.341 371.794 373.461 372.754 368.58C373.714 363.7 374.836 358.901 375.731 354.036C376.87 353.597 378.025 353.174 379.115 352.654C379.133 352.636 379.148 352.614 379.156 352.59C379.165 352.566 379.168 352.541 379.165 352.515C379.161 352.49 379.152 352.466 379.138 352.444C379.124 352.423 379.105 352.406 379.082 352.393V352.393Z" fill="#263238"/>
<path d="M291.901 268.579C291.136 271.345 277.113 288.996 264.359 287.922C260.21 287.564 261.105 264.805 261.105 264.805L260.796 263.178L256.404 239.443L284.694 222.703L288.777 220.49C288.777 220.49 289.558 226.998 290.404 235.278C290.404 235.652 290.486 236.027 290.518 236.433C290.551 236.84 290.648 237.344 290.681 237.767C290.843 238.987 290.974 240.24 291.104 241.493C291.201 242.436 291.283 243.364 291.348 244.356C291.413 245.348 291.51 246.341 291.592 247.333C292.175 254.4 292.278 261.498 291.901 268.579V268.579Z" fill="#F7A9A0"/>
<path d="M290.437 235.229C287.81 241.752 283.795 247.624 278.671 252.439C273.547 257.254 267.436 260.896 260.764 263.113L256.371 239.378L284.694 222.703L288.777 220.49C288.777 220.49 289.558 227.03 290.437 235.229Z" fill="#263238"/>
<path d="M226.519 200.969C222.143 243.12 246.903 250.505 255.997 251.4C264.245 252.246 292.454 254.084 301.158 212.6C309.861 171.116 291.641 155.775 272.867 152.831C254.094 149.886 230.895 158.818 226.519 200.969Z" fill="#F7A9A0"/>
<path d="M240.721 191.175C241.692 191.11 242.658 190.996 243.617 190.833C244.656 190.855 245.673 190.535 246.513 189.922C246.744 189.68 246.887 189.367 246.92 189.034C246.952 188.701 246.872 188.366 246.692 188.084C246.248 187.59 245.683 187.221 245.051 187.016C244.42 186.81 243.746 186.775 243.096 186.913C241.732 186.988 240.445 187.567 239.485 188.54C239.297 188.777 239.18 189.061 239.145 189.362C239.11 189.662 239.16 189.966 239.288 190.24C239.416 190.513 239.619 190.746 239.872 190.911C240.125 191.076 240.419 191.168 240.721 191.175Z" fill="#263238"/>
<path d="M270.948 190.947C269.995 190.731 269.055 190.46 268.133 190.134C267.105 189.984 266.155 189.498 265.433 188.751C265.25 188.476 265.164 188.148 265.188 187.818C265.211 187.489 265.343 187.176 265.563 186.929C266.077 186.505 266.694 186.225 267.352 186.12C268.01 186.014 268.684 186.085 269.305 186.327C270.624 186.63 271.784 187.413 272.558 188.524C272.709 188.786 272.783 189.084 272.773 189.386C272.763 189.688 272.669 189.982 272.502 190.233C272.335 190.485 272.101 190.685 271.826 190.811C271.552 190.937 271.248 190.985 270.948 190.947Z" fill="#263238"/>
<path d="M263.416 203.604C263.416 203.506 263.627 203.767 263.611 203.881C263.237 206.744 263.302 210.095 265.807 211.299C265.807 211.299 265.807 211.478 265.807 211.462C262.619 210.697 262.619 206.256 263.416 203.604Z" fill="#263238"/>
<path d="M266.278 200.855C270.931 200.969 270.378 210.258 266.067 210.176C261.756 210.095 262.374 200.773 266.278 200.855Z" fill="#263238"/>
<path d="M268.068 201.457C268.849 202.026 269.597 203.002 270.557 203.165C271.517 203.328 272.607 202.417 273.404 201.538C273.485 201.538 273.55 201.538 273.55 201.652C273.469 203.442 272.688 205.231 270.752 205.377C268.816 205.524 267.84 203.881 267.499 202.124C267.499 201.701 267.759 201.229 268.068 201.457Z" fill="#263238"/>
<path d="M245.862 201.554C245.862 201.44 245.618 201.668 245.618 201.782C245.52 204.678 244.918 207.964 242.25 208.745C242.153 208.745 242.153 208.907 242.25 208.907C245.471 208.598 246.22 204.238 245.862 201.554Z" fill="#263238"/>
<path d="M243.486 198.301C238.882 197.634 237.89 206.907 242.152 207.525C246.415 208.143 247.358 198.87 243.486 198.301Z" fill="#263238"/>
<path d="M241.469 198.707C240.672 199.114 239.842 199.927 238.98 199.895C238.118 199.862 237.353 198.772 236.768 197.747C236.768 197.634 236.638 197.747 236.621 197.829C236.377 199.586 236.768 201.505 238.427 202.026C240.086 202.547 241.258 201.099 241.86 199.391C242.006 199.065 241.811 198.545 241.469 198.707Z" fill="#263238"/>
<path d="M258.86 226.054C258.16 226.721 257.461 227.681 256.403 227.681C255.329 227.655 254.274 227.394 253.312 226.916C253.293 226.913 253.273 226.914 253.254 226.92C253.235 226.927 253.219 226.938 253.206 226.953C253.192 226.967 253.183 226.985 253.179 227.005C253.175 227.024 253.176 227.044 253.182 227.063C253.583 227.641 254.135 228.098 254.777 228.384C255.42 228.671 256.128 228.777 256.826 228.69C257.419 228.547 257.955 228.231 258.367 227.782C258.778 227.333 259.046 226.771 259.136 226.168C259.185 225.957 258.957 225.957 258.86 226.054Z" fill="#263238"/>
<path d="M247.554 214.797C247.554 214.797 246.659 219.059 246.513 221.092C246.513 221.271 246.984 221.402 247.668 221.499C247.668 221.499 247.668 221.499 247.749 221.499C249.467 221.942 251.274 221.901 252.971 221.381C254.668 220.862 256.188 219.883 257.364 218.555C257.526 218.376 257.282 218.148 257.087 218.262C254.375 219.842 251.227 220.51 248.107 220.165C247.993 219.596 249.88 212.926 249.571 212.877C247.984 212.9 246.408 213.141 244.886 213.593C246.513 204.678 249.522 196.072 250.986 187.173C251.008 187.106 251.002 187.034 250.97 186.971C250.938 186.909 250.882 186.861 250.816 186.84C250.749 186.818 250.676 186.824 250.613 186.856C250.551 186.888 250.504 186.944 250.482 187.011C246.659 195.779 244.593 206.012 242.69 215.187C242.429 216.326 246.724 215.089 247.554 214.797Z" fill="#263238"/>
<path d="M248.367 220.751C249.371 222.44 250.794 223.841 252.5 224.818C253.444 225.33 254.528 225.524 255.591 225.371C257.917 225.046 258.21 222.996 257.998 221.174C257.883 220.212 257.653 219.267 257.315 218.359C254.664 220.091 251.529 220.929 248.367 220.751Z" fill="#263238"/>
<path d="M252.499 224.818C253.443 225.33 254.527 225.524 255.59 225.371C257.917 225.046 258.209 222.996 257.998 221.174C256.806 221.08 255.617 221.388 254.62 222.048C253.624 222.709 252.877 223.684 252.499 224.818Z" fill="#FF9CBD"/>
<path d="M299.401 210.16C289.64 209.461 291.023 194.152 291.023 194.152C291.023 194.152 280.09 192.249 280.757 174.419C280.757 174.419 274.575 184.717 259.478 185.66C256.225 185.872 267.613 178.551 267.613 178.551C267.613 178.551 252.353 188.54 229.171 182.244C227.544 181.805 234.767 157.711 253.931 150.749C273.095 143.786 289.347 149.984 299.807 162.576C299.807 162.576 312.822 169.929 313.294 182.878C313.765 195.828 303.175 210.437 299.401 210.16Z" fill="#263238"/>
<path d="M306.9 203.653C310.133 198.326 312.007 192.287 312.359 186.066C312.711 179.846 311.529 173.634 308.917 167.977C300.002 148.097 268.019 140.207 246.919 154.279C246.919 154.279 283.197 147.772 295.463 164.137C307.73 180.503 306.9 203.653 306.9 203.653Z" fill="#2B2E63"/>
<path d="M293.902 214.244C293.902 214.244 303.37 201.229 309.308 204.483C315.246 207.736 307.99 226.949 300.897 229.438C300.011 229.823 299.056 230.024 298.09 230.03C297.124 230.036 296.167 229.846 295.277 229.472C294.386 229.098 293.58 228.548 292.908 227.854C292.235 227.161 291.71 226.338 291.364 225.436L293.902 214.244Z" fill="#F7A9A0"/>
<path d="M307.095 209.981C307.209 209.981 307.225 210.128 307.095 210.176C302.117 212.08 299.449 216.684 297.546 221.336C299.043 219.547 301.06 218.571 303.484 220.36C303.614 220.458 303.484 220.653 303.337 220.621C302.473 220.327 301.538 220.31 300.663 220.573C299.788 220.835 299.017 221.364 298.457 222.085C297.533 223.289 296.737 224.587 296.082 225.957C295.838 226.396 295.041 226.152 295.22 225.648V225.534C295.268 219.238 300.311 210.502 307.095 209.981Z" fill="#263238"/>
</svg>
