<svg width="167" height="32" viewBox="0 0 167 32" fill="none" xmlns="http://www.w3.org/2000/svg">
<path d="M0.786987 0V32H48.2156V0H0.786987ZM14.0816 7.17805H24.1761C27.1508 7.17805 29.4551 7.57292 31.0888 8.36258C32.7225 9.13578 33.5392 10.2543 33.5392 11.7184C33.5392 12.5574 33.2464 13.2895 32.6613 13.9147C32.0761 14.5234 31.2106 15.0087 30.0646 15.3707C31.6495 15.7161 32.8564 16.2672 33.6855 17.024C34.5389 17.7643 34.9655 18.6691 34.9655 19.7384C34.9655 20.7913 34.5511 21.6961 33.7221 22.4529C32.9175 23.2096 31.7592 23.7936 30.2474 24.2049C28.7357 24.6161 26.9193 24.8217 24.798 24.8217H14.0816V7.17805ZM19.531 10.0404V14.4329H23.6642C25.0784 14.4329 26.1512 14.2355 26.8827 13.8407C27.6386 13.4294 28.0165 12.8618 28.0165 12.138C28.0165 10.7396 26.5658 10.0404 23.6642 10.0404H19.531ZM19.531 17.1968V21.9594H24.2857C25.9194 21.9594 27.1753 21.7618 28.0531 21.367C28.9309 20.9557 29.3698 20.3718 29.3698 19.6151C29.3698 18.0028 27.6995 17.1968 24.359 17.1968H19.531ZM119.358 0V32H166.787V0H119.358ZM145.021 6.80771C146.459 6.80771 147.812 6.91475 149.08 7.12861C150.373 7.32602 151.567 7.62213 152.665 8.01695V11.5211C151.665 11.0605 150.58 10.715 149.41 10.4847C148.239 10.2379 147.008 10.1145 145.716 10.1145C143.936 10.1145 142.412 10.3447 141.144 10.8054C139.9 11.266 138.937 11.9324 138.254 12.8043C137.596 13.6762 137.267 14.7372 137.267 15.9875C137.267 17.2378 137.584 18.3071 138.218 19.1955C138.876 20.0674 139.815 20.7336 141.034 21.1942C142.277 21.6548 143.777 21.8852 145.533 21.8852C148.215 21.8852 150.69 21.3999 152.957 20.4292V23.8595C151.885 24.2707 150.641 24.5914 149.227 24.8217C147.812 25.0685 146.325 25.1919 144.765 25.1919C142.692 25.1919 140.827 24.9863 139.169 24.575C137.511 24.1473 136.109 23.5385 134.963 22.7489C133.817 21.9592 132.939 20.9969 132.329 19.8618C131.72 18.7102 131.415 17.4188 131.415 15.9875C131.415 14.5892 131.732 13.3306 132.366 12.2119C133 11.0768 133.914 10.1062 135.109 9.30014C136.304 8.49403 137.73 7.87703 139.388 7.4493C141.071 7.02157 142.948 6.80771 145.021 6.80771ZM60.0727 0V32H107.501V0H60.0727ZM73.3672 7.17805H83.4618C86.4365 7.17805 88.7408 7.57292 90.3745 8.36258C92.0081 9.13578 92.8249 10.2543 92.8249 11.7184C92.8249 12.5574 92.5321 13.2895 91.9469 13.9147C91.3617 14.5234 90.4963 15.0087 89.3503 15.3707C90.9352 15.7161 92.1421 16.2672 92.9711 17.024C93.8245 17.7643 94.2511 18.6691 94.2511 19.7384C94.2511 20.7913 93.8368 21.6961 93.0078 22.4529C92.2031 23.2096 91.0449 23.7936 89.5331 24.2049C88.0214 24.6161 86.205 24.8217 84.0836 24.8217H73.3672V7.17805ZM78.8167 10.0404V14.4329H82.9499C84.3641 14.4329 85.4369 14.2355 86.1684 13.8407C86.9242 13.4294 87.3022 12.8618 87.3022 12.138C87.3022 10.7396 85.8514 10.0404 82.9499 10.0404H78.8167ZM78.8167 17.1968V21.9594H83.5714C85.205 21.9594 86.461 21.7618 87.3388 21.367C88.2166 20.9557 88.6554 20.3718 88.6554 19.6151C88.6554 18.0028 86.9851 17.1968 83.6447 17.1968H78.8167Z" fill="black"/>
</svg>
