<svg width="20" height="14" viewBox="0 0 20 14" fill="none" xmlns="http://www.w3.org/2000/svg">
<path d="M7.56994 13.82C7.37994 13.82 7.18994 13.75 7.03994 13.6L0.969941 7.52999C0.679941 7.24 0.679941 6.76 0.969941 6.47L7.03994 0.399995C7.32994 0.109995 7.80994 0.109995 8.09994 0.399995C8.38994 0.689995 8.38994 1.17 8.09994 1.46L2.55994 7L8.09994 12.54C8.38994 12.83 8.38994 13.31 8.09994 13.6C7.95994 13.75 7.75994 13.82 7.56994 13.82Z" fill="#292D32"/>
<path d="M18.4999 7.75H1.66992C1.25992 7.75 0.919922 7.41 0.919922 7C0.919922 6.59 1.25992 6.25 1.66992 6.25H18.4999C18.9099 6.25 19.2499 6.59 19.2499 7C19.2499 7.41 18.9099 7.75 18.4999 7.75Z" fill="#292D32"/>
</svg>
