<svg width="549" height="375" viewBox="0 0 549 375" fill="none" xmlns="http://www.w3.org/2000/svg">
<path d="M248.358 84.9999L265.429 102.142L299.642 67.8583" stroke="#292D32" stroke-width="1.5" stroke-linecap="round" stroke-linejoin="round"/>
<path d="M265.146 17.3542C270.033 13.1751 278.038 13.1751 282.996 17.3542L294.188 26.9876C296.313 28.8292 300.279 30.3167 303.113 30.3167H315.154C322.663 30.3167 328.825 36.4792 328.825 43.9876V56.0292C328.825 58.7917 330.313 62.8292 332.154 64.9542L341.788 76.1459C345.967 81.0334 345.967 89.0376 341.788 93.9959L332.154 105.188C330.313 107.313 328.825 111.279 328.825 114.113V126.154C328.825 133.663 322.663 139.825 315.154 139.825H303.113C300.35 139.825 296.313 141.313 294.188 143.154L282.996 152.788C278.108 156.967 270.104 156.967 265.146 152.788L253.954 143.154C251.829 141.313 247.863 139.825 245.029 139.825H232.775C225.267 139.825 219.104 133.663 219.104 126.154V114.042C219.104 111.279 217.617 107.313 215.846 105.188L206.283 93.9251C202.175 89.0376 202.175 81.1042 206.283 76.2167L215.846 64.9542C217.617 62.8292 219.104 58.8626 219.104 56.1001V43.9167C219.104 36.4084 225.267 30.2459 232.775 30.2459H245.029C247.792 30.2459 251.829 28.7584 253.954 26.9167L265.146 17.3542Z" stroke="#292D32" stroke-width="1.5" stroke-linecap="round" stroke-linejoin="round"/>
<path d="M167.072 202.076V197.96H152.68V217H167.072V212.884H157.412V209.58H165.868V205.548H157.412V202.076H167.072ZM186.346 203.056C184.582 203.056 183.182 203.588 181.838 204.736C180.858 203.616 179.43 203.056 177.694 203.056C176.182 203.056 175.146 203.504 174.194 204.26V203.42H169.63V217H174.194V208.32C174.866 207.508 175.65 207.172 176.546 207.172C177.694 207.172 178.646 207.704 178.646 209.552V217H183.182V208.992C183.182 208.712 183.182 208.46 183.154 208.208C183.854 207.424 184.582 207.172 185.394 207.172C186.682 207.172 187.634 207.844 187.634 209.692V217H192.17V209.132C192.17 205.212 189.874 203.056 186.346 203.056ZM204.943 203.42V204.12C203.935 203.448 202.731 203.056 201.219 203.056C197.551 203.056 194.471 206.136 194.471 210.196C194.471 214.228 197.551 217.364 201.219 217.364C202.731 217.364 203.935 216.944 204.943 216.272V217H209.479V203.42H204.943ZM202.143 213.5C200.295 213.5 198.923 212.072 198.923 210.196C198.923 208.32 200.295 206.892 202.143 206.892C203.123 206.892 204.075 207.144 204.943 208.096V212.296C204.075 213.248 203.123 213.5 202.143 213.5ZM215.22 201.292C216.676 201.292 217.88 200.2 217.88 198.744C217.88 197.26 216.676 196.168 215.22 196.168C213.736 196.168 212.56 197.26 212.56 198.744C212.56 200.2 213.736 201.292 215.22 201.292ZM212.98 203.42V217H217.516V203.42H212.98ZM220.981 197.12V217H225.545V197.12H220.981ZM250.176 197.96L244.744 210.868L239.312 197.96H234.104L242.364 217.112H247.152L255.384 197.96H250.176ZM261.246 203.056C257.046 203.056 254.162 206.08 254.162 210.196C254.162 214.34 257.13 217.364 261.582 217.364C264.774 217.364 267.294 215.712 268.106 213.052H263.514C263.094 213.556 262.506 213.78 261.498 213.78C259.65 213.78 258.726 212.688 258.418 211.288H268.246C268.918 206.472 266.034 203.056 261.246 203.056ZM261.358 206.416C262.898 206.416 263.878 207.116 264.13 208.684H258.474C258.838 207.312 259.762 206.416 261.358 206.416ZM279.85 203.196C277.834 203.196 276.378 203.84 275.174 204.876V203.42H270.61V217H275.174V209.216C276.238 208.18 277.638 207.592 279.85 207.508V203.196ZM284.755 201.292C286.211 201.292 287.415 200.2 287.415 198.744C287.415 197.26 286.211 196.168 284.755 196.168C283.271 196.168 282.095 197.26 282.095 198.744C282.095 200.2 283.271 201.292 284.755 201.292ZM282.515 203.42V217H287.051V203.42H282.515ZM307.821 203.42H296.929V202.636C296.929 201.264 297.825 200.396 299.281 200.396C299.869 200.396 300.681 200.508 301.353 200.648L301.969 197.036C300.569 196.672 299.617 196.504 298.525 196.504C295.053 196.504 292.393 198.688 292.393 202.636V203.42H289.061V207.312H292.393V217H296.929V207.312H303.285V217H307.821V203.42ZM317.638 213.528C315.678 213.528 314.53 212.044 314.53 210.196C314.53 208.348 315.678 206.892 317.638 206.892C319.01 206.892 320.074 207.76 320.298 208.992H324.582C324.246 205.492 321.362 203.056 317.61 203.056C313.354 203.056 310.19 206.08 310.19 210.196C310.19 214.34 313.354 217.364 317.61 217.364C321.362 217.364 324.246 214.928 324.582 211.428H320.298C320.074 212.66 319.01 213.528 317.638 213.528ZM336.904 203.42V204.12C335.896 203.448 334.692 203.056 333.18 203.056C329.512 203.056 326.432 206.136 326.432 210.196C326.432 214.228 329.512 217.364 333.18 217.364C334.692 217.364 335.896 216.944 336.904 216.272V217H341.44V203.42H336.904ZM334.104 213.5C332.256 213.5 330.884 212.072 330.884 210.196C330.884 208.32 332.256 206.892 334.104 206.892C335.084 206.892 336.036 207.144 336.904 208.096V212.296C336.036 213.248 335.084 213.5 334.104 213.5ZM354.908 212.632C354.096 212.94 353.368 213.192 352.5 213.192C351.184 213.192 350.372 212.548 350.372 211.148V207.312H354.992V203.42H350.372V198.8H345.836V203.42H343.176V207.312H345.836V211.288C345.836 214.956 348.076 217.364 351.772 217.364C352.556 217.364 354.012 217.28 355.412 216.692L354.908 212.632ZM360.333 201.292C361.789 201.292 362.993 200.2 362.993 198.744C362.993 197.26 361.789 196.168 360.333 196.168C358.849 196.168 357.673 197.26 357.673 198.744C357.673 200.2 358.849 201.292 360.333 201.292ZM358.093 203.42V217H362.629V203.42H358.093ZM372.873 203.056C368.505 203.056 365.397 206.052 365.397 210.224C365.397 214.424 368.505 217.364 372.873 217.364C377.241 217.364 380.321 214.424 380.321 210.224C380.321 206.052 377.241 203.056 372.873 203.056ZM372.873 213.584C370.969 213.584 369.653 212.212 369.653 210.224C369.653 208.264 370.969 206.864 372.873 206.864C374.749 206.864 376.065 208.264 376.065 210.224C376.065 212.212 374.749 213.584 372.873 213.584ZM390.844 203.056C389.388 203.056 388.212 203.504 387.12 204.316V203.42H382.556V217H387.12V208.46C387.904 207.592 388.772 207.172 389.584 207.172C391.096 207.172 392.076 208.04 392.076 209.972V217H396.612V209.244C396.612 205.38 394.26 203.056 390.844 203.056Z" fill="#242653"/>
<path d="M7.11006 253.368C8.27806 253.016 8.95006 252.072 8.95006 250.872C8.95006 249.192 7.60606 248.12 5.41406 248.12H0.902063V259H5.54206C7.95806 259 9.51006 257.8 9.51006 256.024C9.51006 254.68 8.71006 253.64 7.11006 253.368ZM5.28606 249.24C6.82206 249.24 7.75006 249.928 7.75006 251.016C7.75006 252.216 6.80606 252.968 5.12606 252.968H2.16606V249.24H5.28606ZM5.49406 257.88H2.16606V254.024H5.52606C7.23806 254.024 8.26206 254.712 8.26206 255.896C8.26206 257.032 7.23806 257.88 5.49406 257.88ZM14.9782 251.384C12.7382 251.384 11.1702 253.096 11.1702 255.288C11.1702 257.48 12.7542 259.192 15.0422 259.192C16.6422 259.192 17.9222 258.424 18.3862 257.144H17.0262C16.7062 257.768 15.9862 258.104 15.0422 258.104C13.4902 258.104 12.5462 257.032 12.4022 255.656H18.6102C18.8502 253.224 17.3622 251.384 14.9782 251.384ZM14.9782 252.44C16.3862 252.44 17.3302 253.32 17.3942 254.792H12.4182C12.5942 253.48 13.5062 252.44 14.9782 252.44ZM22.7759 250.248C22.7759 249.192 23.4319 248.504 24.4719 248.504C24.7759 248.504 25.2399 248.584 25.6399 248.696L25.8159 247.672C25.2719 247.512 24.7759 247.448 24.3439 247.448C22.7119 247.448 21.5599 248.52 21.5599 250.248V251.576H19.3999V252.616H21.5599V259H22.7759V252.616H25.7519V251.576H22.7759V250.248ZM30.3878 251.384C28.1158 251.384 26.4358 253.048 26.4358 255.288C26.4358 257.528 28.1158 259.192 30.3878 259.192C32.6438 259.192 34.3238 257.528 34.3238 255.288C34.3238 253.048 32.6438 251.384 30.3878 251.384ZM30.3878 258.072C28.8198 258.072 27.6518 256.888 27.6518 255.288C27.6518 253.688 28.8198 252.504 30.3878 252.504C31.9398 252.504 33.0918 253.688 33.0918 255.288C33.0918 256.888 31.9398 258.072 30.3878 258.072ZM37.6139 252.792V251.576H36.3979V259H37.6139V254.168C38.2699 253.144 39.2619 252.584 40.4779 252.552V251.4C39.2939 251.4 38.3019 251.912 37.6139 252.792ZM45.3688 251.384C43.1288 251.384 41.5608 253.096 41.5608 255.288C41.5608 257.48 43.1448 259.192 45.4328 259.192C47.0328 259.192 48.3128 258.424 48.7768 257.144H47.4168C47.0968 257.768 46.3768 258.104 45.4328 258.104C43.8808 258.104 42.9368 257.032 42.7928 255.656H49.0008C49.2408 253.224 47.7528 251.384 45.3688 251.384ZM45.3688 252.44C46.7768 252.44 47.7208 253.32 47.7848 254.792H42.8088C42.9848 253.48 43.8968 252.44 45.3688 252.44ZM59.0894 258.072C57.4734 258.072 56.4174 256.84 56.4174 255.288C56.4174 253.752 57.4734 252.504 59.0894 252.504C60.2414 252.504 61.1054 253.144 61.3294 254.12H62.5934C62.3054 252.488 60.8814 251.384 59.0894 251.384C56.8334 251.384 55.2014 253.096 55.2014 255.288C55.2014 257.48 56.8334 259.192 59.0894 259.192C60.8814 259.192 62.3054 258.088 62.5934 256.472H61.3294C61.1054 257.448 60.2414 258.072 59.0894 258.072ZM68.3878 251.384C66.1158 251.384 64.4358 253.048 64.4358 255.288C64.4358 257.528 66.1158 259.192 68.3878 259.192C70.6438 259.192 72.3238 257.528 72.3238 255.288C72.3238 253.048 70.6438 251.384 68.3878 251.384ZM68.3878 258.072C66.8198 258.072 65.6518 256.888 65.6518 255.288C65.6518 253.688 66.8198 252.504 68.3878 252.504C69.9398 252.504 71.0918 253.688 71.0918 255.288C71.0918 256.888 69.9398 258.072 68.3878 258.072ZM78.2699 251.384C77.2139 251.384 76.3019 251.752 75.6139 252.408V251.576H74.3979V259H75.6139V253.784C76.2539 252.952 77.1659 252.504 78.0459 252.504C79.3579 252.504 80.2379 253.304 80.2379 254.808V259H81.4539V254.744C81.4539 252.648 80.1579 251.384 78.2699 251.384ZM88.4941 257.8C88.0941 257.944 87.6301 258.056 87.2141 258.056C86.1581 258.056 85.6141 257.528 85.6141 256.248V252.616H88.4141V251.576H85.6141V248.84H84.3981V251.576H82.4621V252.616H84.3981V256.248C84.3981 258.184 85.2781 259.192 87.1021 259.192C87.5501 259.192 88.0621 259.128 88.6701 258.92L88.4941 257.8ZM91.4639 249.592C91.9279 249.592 92.2959 249.24 92.2959 248.792C92.2959 248.328 91.9279 247.976 91.4639 247.976C90.9999 247.976 90.6479 248.328 90.6479 248.792C90.6479 249.24 90.9999 249.592 91.4639 249.592ZM90.8719 251.576V259H92.0879V251.576H90.8719ZM98.7699 251.384C97.7139 251.384 96.8019 251.752 96.1139 252.408V251.576H94.8979V259H96.1139V253.784C96.7539 252.952 97.6659 252.504 98.5459 252.504C99.8579 252.504 100.738 253.304 100.738 254.808V259H101.954V254.744C101.954 252.648 100.658 251.384 98.7699 251.384ZM109.809 251.576V256.76C109.169 257.608 108.257 258.072 107.377 258.072C106.065 258.072 105.185 257.24 105.185 255.736V251.576H103.969V255.8C103.969 257.896 105.265 259.192 107.153 259.192C108.209 259.192 109.121 258.808 109.809 258.152V259H111.025V251.576H109.809ZM114.464 249.592C114.928 249.592 115.296 249.24 115.296 248.792C115.296 248.328 114.928 247.976 114.464 247.976C114 247.976 113.648 248.328 113.648 248.792C113.648 249.24 114 249.592 114.464 249.592ZM113.872 251.576V259H115.088V251.576H113.872ZM121.77 251.384C120.714 251.384 119.802 251.752 119.114 252.408V251.576H117.898V259H119.114V253.784C119.754 252.952 120.666 252.504 121.546 252.504C122.858 252.504 123.738 253.304 123.738 254.808V259H124.954V254.744C124.954 252.648 123.658 251.384 121.77 251.384ZM133.212 251.576V252.344C132.524 251.736 131.596 251.384 130.524 251.384C128.396 251.384 126.78 253 126.78 255.192C126.78 257.24 128.396 258.936 130.524 258.936C131.596 258.936 132.524 258.584 133.212 257.976V259.368C133.212 260.872 132.22 261.768 130.732 261.768C129.34 261.768 128.412 261.08 128.204 260.072H126.956C127.212 261.72 128.684 262.872 130.732 262.872C132.94 262.872 134.428 261.544 134.428 259.368V251.576H133.212ZM130.684 257.864C129.116 257.864 127.996 256.616 127.996 255.192C127.996 253.624 129.116 252.456 130.684 252.456C131.66 252.456 132.588 252.856 133.212 253.768V256.552C132.588 257.464 131.66 257.864 130.684 257.864ZM136.382 261.048H137.15L138.014 259.096C138.27 258.6 138.27 258.488 138.27 258.312C138.27 257.864 137.918 257.528 137.454 257.528C137.006 257.528 136.654 257.864 136.654 258.312C136.654 258.616 136.83 258.856 137.166 258.984L136.382 261.048ZM148.363 251.4C147.307 251.4 146.411 251.752 145.755 252.36V251.576H144.539V262.712H145.755V258.216C146.411 258.824 147.307 259.176 148.363 259.176C150.491 259.176 152.187 257.464 152.187 255.288C152.187 253.128 150.491 251.4 148.363 251.4ZM148.203 258.104C147.227 258.104 146.363 257.704 145.755 256.808V253.768C146.363 252.872 147.227 252.472 148.203 252.472C149.771 252.472 150.971 253.752 150.971 255.288C150.971 256.824 149.771 258.104 148.203 258.104ZM154.351 247.64V259H155.567V247.64H154.351ZM161.556 251.384C159.316 251.384 157.748 253.096 157.748 255.288C157.748 257.48 159.332 259.192 161.62 259.192C163.22 259.192 164.5 258.424 164.964 257.144H163.604C163.284 257.768 162.564 258.104 161.62 258.104C160.068 258.104 159.124 257.032 158.98 255.656H165.188C165.428 253.224 163.94 251.384 161.556 251.384ZM161.556 252.44C162.964 252.44 163.908 253.32 163.972 254.792H158.996C159.172 253.48 160.084 252.44 161.556 252.44ZM173.508 251.576V252.344C172.852 251.736 171.956 251.384 170.9 251.384C168.772 251.384 167.076 253.128 167.076 255.288C167.076 257.464 168.772 259.192 170.9 259.192C171.956 259.192 172.852 258.84 173.508 258.232V259H174.724V251.576H173.508ZM171.06 258.072C169.492 258.072 168.292 256.824 168.292 255.288C168.292 253.752 169.492 252.504 171.06 252.504C172.036 252.504 172.9 252.872 173.508 253.768V256.808C172.9 257.704 172.036 258.072 171.06 258.072ZM177.975 256.664H176.839C177.063 258.408 178.407 259.192 180.295 259.192C182.119 259.192 183.431 258.376 183.431 256.92C183.431 255.496 182.295 255.016 181.223 254.84L179.751 254.6C178.743 254.424 178.375 254.024 178.375 253.48C178.375 252.808 179.047 252.376 180.167 252.376C181.351 252.376 182.135 252.808 182.263 253.736H183.399C183.255 251.976 181.719 251.384 180.167 251.384C178.375 251.384 177.159 252.216 177.159 253.592C177.159 254.856 178.151 255.4 179.367 255.608L181.047 255.88C181.767 256.008 182.263 256.376 182.263 257C182.263 257.752 181.479 258.184 180.327 258.184C178.967 258.184 178.199 257.656 177.975 256.664ZM188.947 251.384C186.707 251.384 185.139 253.096 185.139 255.288C185.139 257.48 186.723 259.192 189.011 259.192C190.611 259.192 191.891 258.424 192.355 257.144H190.995C190.675 257.768 189.955 258.104 189.011 258.104C187.459 258.104 186.515 257.032 186.371 255.656H192.579C192.819 253.224 191.331 251.384 188.947 251.384ZM188.947 252.44C190.355 252.44 191.299 253.32 191.363 254.792H186.387C186.563 253.48 187.475 252.44 188.947 252.44ZM202.668 258.072C201.052 258.072 199.996 256.84 199.996 255.288C199.996 253.752 201.052 252.504 202.668 252.504C203.82 252.504 204.684 253.144 204.908 254.12H206.172C205.884 252.488 204.46 251.384 202.668 251.384C200.412 251.384 198.78 253.096 198.78 255.288C198.78 257.48 200.412 259.192 202.668 259.192C204.46 259.192 205.884 258.088 206.172 256.472H204.908C204.684 257.448 203.82 258.072 202.668 258.072ZM212.192 251.384C211.136 251.384 210.224 251.752 209.536 252.408V247.64H208.32V259H209.536V253.784C210.176 252.952 211.088 252.504 211.968 252.504C213.28 252.504 214.16 253.304 214.16 254.808V259H215.376V254.744C215.376 252.648 214.08 251.384 212.192 251.384ZM221.119 251.384C218.879 251.384 217.311 253.096 217.311 255.288C217.311 257.48 218.895 259.192 221.183 259.192C222.783 259.192 224.063 258.424 224.527 257.144H223.167C222.847 257.768 222.127 258.104 221.183 258.104C219.631 258.104 218.687 257.032 218.543 255.656H224.751C224.991 253.224 223.503 251.384 221.119 251.384ZM221.119 252.44C222.527 252.44 223.471 253.32 223.535 254.792H218.559C218.735 253.48 219.647 252.44 221.119 252.44ZM230.527 258.072C228.911 258.072 227.855 256.84 227.855 255.288C227.855 253.752 228.911 252.504 230.527 252.504C231.679 252.504 232.543 253.144 232.767 254.12H234.031C233.743 252.488 232.319 251.384 230.527 251.384C228.271 251.384 226.639 253.096 226.639 255.288C226.639 257.48 228.271 259.192 230.527 259.192C232.319 259.192 233.743 258.088 234.031 256.472H232.767C232.543 257.448 231.679 258.072 230.527 258.072ZM241.971 259H243.555L239.795 254.68L242.979 251.576H241.411L237.395 255.416V247.64H236.179V259H237.395V257.016L238.931 255.528L241.971 259ZM255.972 251.576L253.092 257.96L249.988 251.576H248.676L252.5 259.256L250.948 262.696H252.244L257.268 251.576H255.972ZM261.966 251.384C259.694 251.384 258.014 253.048 258.014 255.288C258.014 257.528 259.694 259.192 261.966 259.192C264.222 259.192 265.902 257.528 265.902 255.288C265.902 253.048 264.222 251.384 261.966 251.384ZM261.966 258.072C260.398 258.072 259.23 256.888 259.23 255.288C259.23 253.688 260.398 252.504 261.966 252.504C263.518 252.504 264.67 253.688 264.67 255.288C264.67 256.888 263.518 258.072 261.966 258.072ZM273.621 251.576V256.76C272.981 257.608 272.069 258.072 271.189 258.072C269.877 258.072 268.997 257.24 268.997 255.736V251.576H267.781V255.8C267.781 257.896 269.077 259.192 270.965 259.192C272.021 259.192 272.933 258.808 273.621 258.152V259H274.837V251.576H273.621ZM278.676 252.792V251.576H277.46V259H278.676V254.168C279.332 253.144 280.324 252.584 281.54 252.552V251.4C280.356 251.4 279.364 251.912 278.676 252.792ZM296.484 251.384C295.3 251.384 294.388 251.832 293.668 252.616C293.156 251.8 292.276 251.384 291.14 251.384C290.068 251.384 289.3 251.752 288.692 252.376V251.576H287.476V259H288.692V253.752C289.268 252.888 290.084 252.504 291.012 252.504C292.148 252.504 292.932 253.096 292.932 254.552V259H294.148V254.552C294.148 254.264 294.132 254.008 294.084 253.768C294.676 252.872 295.508 252.504 296.404 252.504C297.62 252.504 298.388 253.144 298.388 254.616V259H299.604V254.616C299.604 252.488 298.372 251.384 296.484 251.384ZM307.977 251.576V252.344C307.321 251.736 306.425 251.384 305.369 251.384C303.241 251.384 301.545 253.128 301.545 255.288C301.545 257.464 303.241 259.192 305.369 259.192C306.425 259.192 307.321 258.84 307.977 258.232V259H309.193V251.576H307.977ZM305.529 258.072C303.961 258.072 302.761 256.824 302.761 255.288C302.761 253.752 303.961 252.504 305.529 252.504C306.505 252.504 307.369 252.872 307.977 253.768V256.808C307.369 257.704 306.505 258.072 305.529 258.072ZM312.636 249.592C313.1 249.592 313.468 249.24 313.468 248.792C313.468 248.328 313.1 247.976 312.636 247.976C312.172 247.976 311.82 248.328 311.82 248.792C311.82 249.24 312.172 249.592 312.636 249.592ZM312.044 251.576V259H313.26V251.576H312.044ZM316.07 247.64V259H317.286V247.64H316.07ZM326.338 250.248C326.338 249.192 326.994 248.504 328.034 248.504C328.338 248.504 328.802 248.584 329.202 248.696L329.378 247.672C328.834 247.512 328.338 247.448 327.906 247.448C326.274 247.448 325.122 248.52 325.122 250.248V251.576H322.962V252.616H325.122V259H326.338V252.616H329.314V251.576H326.338V250.248ZM333.95 251.384C331.678 251.384 329.998 253.048 329.998 255.288C329.998 257.528 331.678 259.192 333.95 259.192C336.206 259.192 337.886 257.528 337.886 255.288C337.886 253.048 336.206 251.384 333.95 251.384ZM333.95 258.072C332.382 258.072 331.214 256.888 331.214 255.288C331.214 253.688 332.382 252.504 333.95 252.504C335.502 252.504 336.654 253.688 336.654 255.288C336.654 256.888 335.502 258.072 333.95 258.072ZM341.176 252.792V251.576H339.96V259H341.176V254.168C341.832 253.144 342.824 252.584 344.04 252.552V251.4C342.856 251.4 341.864 251.912 341.176 252.792ZM356.024 251.576V252.344C355.368 251.736 354.472 251.384 353.416 251.384C351.288 251.384 349.592 253.128 349.592 255.288C349.592 257.464 351.288 259.192 353.416 259.192C354.472 259.192 355.368 258.84 356.024 258.232V259H357.24V251.576H356.024ZM353.576 258.072C352.008 258.072 350.808 256.824 350.808 255.288C350.808 253.752 352.008 252.504 353.576 252.504C354.552 252.504 355.416 252.872 356.024 253.768V256.808C355.416 257.704 354.552 258.072 353.576 258.072ZM370.227 251.576L367.459 257.464L364.691 251.576H363.395L366.899 259H368.019L371.523 251.576H370.227ZM376.103 251.384C373.863 251.384 372.295 253.096 372.295 255.288C372.295 257.48 373.879 259.192 376.167 259.192C377.767 259.192 379.047 258.424 379.511 257.144H378.151C377.831 257.768 377.111 258.104 376.167 258.104C374.615 258.104 373.671 257.032 373.527 255.656H379.735C379.975 253.224 378.487 251.384 376.103 251.384ZM376.103 252.44C377.511 252.44 378.455 253.32 378.519 254.792H373.543C373.719 253.48 374.631 252.44 376.103 252.44ZM383.067 252.792V251.576H381.851V259H383.067V254.168C383.723 253.144 384.715 252.584 385.931 252.552V251.4C384.747 251.4 383.755 251.912 383.067 252.792ZM388.495 249.592C388.959 249.592 389.327 249.24 389.327 248.792C389.327 248.328 388.959 247.976 388.495 247.976C388.031 247.976 387.679 248.328 387.679 248.792C387.679 249.24 388.031 249.592 388.495 249.592ZM387.903 251.576V259H389.119V251.576H387.903ZM399.625 251.576H394.057V250.248C394.057 249.192 394.713 248.504 395.753 248.504C396.057 248.504 396.521 248.568 396.921 248.664L397.097 247.672C396.553 247.512 396.057 247.448 395.625 247.448C393.993 247.448 392.841 248.52 392.841 250.248V251.576H390.681V252.616H392.841V259H394.057V252.616H398.409V259H399.625V251.576ZM405.605 258.072C403.989 258.072 402.933 256.84 402.933 255.288C402.933 253.752 403.989 252.504 405.605 252.504C406.757 252.504 407.621 253.144 407.845 254.12H409.109C408.821 252.488 407.397 251.384 405.605 251.384C403.349 251.384 401.717 253.096 401.717 255.288C401.717 257.48 403.349 259.192 405.605 259.192C407.397 259.192 408.821 258.088 409.109 256.472H407.845C407.621 257.448 406.757 258.072 405.605 258.072ZM417.383 251.576V252.344C416.727 251.736 415.831 251.384 414.775 251.384C412.647 251.384 410.951 253.128 410.951 255.288C410.951 257.464 412.647 259.192 414.775 259.192C415.831 259.192 416.727 258.84 417.383 258.232V259H418.599V251.576H417.383ZM414.935 258.072C413.367 258.072 412.167 256.824 412.167 255.288C412.167 253.752 413.367 252.504 414.935 252.504C415.911 252.504 416.775 252.872 417.383 253.768V256.808C416.775 257.704 415.911 258.072 414.935 258.072ZM425.994 257.8C425.594 257.944 425.13 258.056 424.714 258.056C423.658 258.056 423.114 257.528 423.114 256.248V252.616H425.914V251.576H423.114V248.84H421.898V251.576H419.962V252.616H421.898V256.248C421.898 258.184 422.778 259.192 424.602 259.192C425.05 259.192 425.562 259.128 426.17 258.92L425.994 257.8ZM428.964 249.592C429.428 249.592 429.796 249.24 429.796 248.792C429.796 248.328 429.428 247.976 428.964 247.976C428.5 247.976 428.148 248.328 428.148 248.792C428.148 249.24 428.5 249.592 428.964 249.592ZM428.372 251.576V259H429.588V251.576H428.372ZM435.841 251.384C433.569 251.384 431.889 253.048 431.889 255.288C431.889 257.528 433.569 259.192 435.841 259.192C438.097 259.192 439.777 257.528 439.777 255.288C439.777 253.048 438.097 251.384 435.841 251.384ZM435.841 258.072C434.273 258.072 433.105 256.888 433.105 255.288C433.105 253.688 434.273 252.504 435.841 252.504C437.393 252.504 438.545 253.688 438.545 255.288C438.545 256.888 437.393 258.072 435.841 258.072ZM445.723 251.384C444.667 251.384 443.755 251.752 443.067 252.408V251.576H441.851V259H443.067V253.784C443.707 252.952 444.619 252.504 445.499 252.504C446.811 252.504 447.691 253.304 447.691 254.808V259H448.907V254.744C448.907 252.648 447.611 251.384 445.723 251.384ZM455.539 247.64V259H456.755V247.64H455.539ZM460.183 249.592C460.647 249.592 461.015 249.24 461.015 248.792C461.015 248.328 460.647 247.976 460.183 247.976C459.719 247.976 459.367 248.328 459.367 248.792C459.367 249.24 459.719 249.592 460.183 249.592ZM459.591 251.576V259H460.807V251.576H459.591ZM467.489 251.384C466.433 251.384 465.521 251.752 464.833 252.408V251.576H463.617V259H464.833V253.784C465.473 252.952 466.385 252.504 467.265 252.504C468.577 252.504 469.457 253.304 469.457 254.808V259H470.673V254.744C470.673 252.648 469.377 251.384 467.489 251.384ZM478.784 259H480.368L476.608 254.68L479.792 251.576H478.224L474.208 255.416V247.64H472.992V259H474.208V257.016L475.744 255.528L478.784 259ZM491.041 257.8C490.641 257.944 490.177 258.056 489.761 258.056C488.705 258.056 488.161 257.528 488.161 256.248V252.616H490.961V251.576H488.161V248.84H486.945V251.576H485.009V252.616H486.945V256.248C486.945 258.184 487.825 259.192 489.649 259.192C490.097 259.192 490.609 259.128 491.217 258.92L491.041 257.8ZM496.2 251.384C493.928 251.384 492.248 253.048 492.248 255.288C492.248 257.528 493.928 259.192 496.2 259.192C498.456 259.192 500.136 257.528 500.136 255.288C500.136 253.048 498.456 251.384 496.2 251.384ZM496.2 258.072C494.632 258.072 493.464 256.888 493.464 255.288C493.464 253.688 494.632 252.504 496.2 252.504C497.752 252.504 498.904 253.688 498.904 255.288C498.904 256.888 497.752 258.072 496.2 258.072ZM512.727 251.576L509.959 257.464L507.191 251.576H505.895L509.399 259H510.519L514.023 251.576H512.727ZM518.603 251.384C516.363 251.384 514.795 253.096 514.795 255.288C514.795 257.48 516.379 259.192 518.667 259.192C520.267 259.192 521.547 258.424 522.011 257.144H520.651C520.331 257.768 519.611 258.104 518.667 258.104C517.115 258.104 516.171 257.032 516.027 255.656H522.235C522.475 253.224 520.987 251.384 518.603 251.384ZM518.603 252.44C520.011 252.44 520.955 253.32 521.019 254.792H516.043C516.219 253.48 517.131 252.44 518.603 252.44ZM525.567 252.792V251.576H524.351V259H525.567V254.168C526.223 253.144 527.215 252.584 528.431 252.552V251.4C527.247 251.4 526.255 251.912 525.567 252.792ZM530.995 249.592C531.459 249.592 531.827 249.24 531.827 248.792C531.827 248.328 531.459 247.976 530.995 247.976C530.531 247.976 530.179 248.328 530.179 248.792C530.179 249.24 530.531 249.592 530.995 249.592ZM530.403 251.576V259H531.619V251.576H530.403ZM536.557 250.248C536.557 249.192 537.213 248.504 538.253 248.504C538.557 248.504 539.021 248.584 539.421 248.696L539.597 247.672C539.053 247.512 538.557 247.448 538.125 247.448C536.493 247.448 535.341 248.52 535.341 250.248V251.576H533.181V252.616H535.341V259H536.557V252.616H539.533V251.576H536.557V250.248ZM547.426 251.576L544.546 257.96L541.442 251.576H540.13L543.954 259.256L542.402 262.696H543.698L548.722 251.576H547.426ZM117.808 275.576L114.928 281.96L111.824 275.576H110.512L114.336 283.256L112.784 286.696H114.08L119.104 275.576H117.808ZM123.802 275.384C121.53 275.384 119.85 277.048 119.85 279.288C119.85 281.528 121.53 283.192 123.802 283.192C126.058 283.192 127.738 281.528 127.738 279.288C127.738 277.048 126.058 275.384 123.802 275.384ZM123.802 282.072C122.234 282.072 121.066 280.888 121.066 279.288C121.066 277.688 122.234 276.504 123.802 276.504C125.354 276.504 126.506 277.688 126.506 279.288C126.506 280.888 125.354 282.072 123.802 282.072ZM135.457 275.576V280.76C134.817 281.608 133.905 282.072 133.025 282.072C131.713 282.072 130.833 281.24 130.833 279.736V275.576H129.617V279.8C129.617 281.896 130.913 283.192 132.801 283.192C133.857 283.192 134.769 282.808 135.457 282.152V283H136.673V275.576H135.457ZM140.512 276.792V275.576H139.296V283H140.512V278.168C141.168 277.144 142.16 276.584 143.376 276.552V275.4C142.192 275.4 141.2 275.912 140.512 276.792ZM155.36 275.576V276.344C154.704 275.736 153.808 275.384 152.752 275.384C150.624 275.384 148.928 277.128 148.928 279.288C148.928 281.464 150.624 283.192 152.752 283.192C153.808 283.192 154.704 282.84 155.36 282.232V283H156.576V275.576H155.36ZM152.912 282.072C151.344 282.072 150.144 280.824 150.144 279.288C150.144 277.752 151.344 276.504 152.912 276.504C153.888 276.504 154.752 276.872 155.36 277.768V280.808C154.752 281.704 153.888 282.072 152.912 282.072ZM162.629 282.072C161.013 282.072 159.957 280.84 159.957 279.288C159.957 277.752 161.013 276.504 162.629 276.504C163.781 276.504 164.645 277.144 164.869 278.12H166.133C165.845 276.488 164.421 275.384 162.629 275.384C160.373 275.384 158.741 277.096 158.741 279.288C158.741 281.48 160.373 283.192 162.629 283.192C164.421 283.192 165.845 282.088 166.133 280.472H164.869C164.645 281.448 163.781 282.072 162.629 282.072ZM171.863 282.072C170.247 282.072 169.191 280.84 169.191 279.288C169.191 277.752 170.247 276.504 171.863 276.504C173.015 276.504 173.879 277.144 174.103 278.12H175.367C175.079 276.488 173.655 275.384 171.863 275.384C169.607 275.384 167.975 277.096 167.975 279.288C167.975 281.48 169.607 283.192 171.863 283.192C173.655 283.192 175.079 282.088 175.367 280.472H174.103C173.879 281.448 173.015 282.072 171.863 282.072ZM181.161 275.384C178.889 275.384 177.209 277.048 177.209 279.288C177.209 281.528 178.889 283.192 181.161 283.192C183.417 283.192 185.097 281.528 185.097 279.288C185.097 277.048 183.417 275.384 181.161 275.384ZM181.161 282.072C179.593 282.072 178.425 280.888 178.425 279.288C178.425 277.688 179.593 276.504 181.161 276.504C182.713 276.504 183.865 277.688 183.865 279.288C183.865 280.888 182.713 282.072 181.161 282.072ZM192.817 275.576V280.76C192.177 281.608 191.265 282.072 190.385 282.072C189.073 282.072 188.193 281.24 188.193 279.736V275.576H186.977V279.8C186.977 281.896 188.273 283.192 190.161 283.192C191.217 283.192 192.129 282.808 192.817 282.152V283H194.033V275.576H192.817ZM200.528 275.384C199.472 275.384 198.56 275.752 197.872 276.408V275.576H196.656V283H197.872V277.784C198.512 276.952 199.424 276.504 200.304 276.504C201.616 276.504 202.496 277.304 202.496 278.808V283H203.712V278.744C203.712 276.648 202.416 275.384 200.528 275.384ZM210.752 281.8C210.352 281.944 209.888 282.056 209.472 282.056C208.416 282.056 207.872 281.528 207.872 280.248V276.616H210.672V275.576H207.872V272.84H206.656V275.576H204.72V276.616H206.656V280.248C206.656 282.184 207.536 283.192 209.36 283.192C209.808 283.192 210.32 283.128 210.928 282.92L210.752 281.8ZM223.266 275.576V276.344C222.61 275.736 221.714 275.384 220.658 275.384C218.53 275.384 216.834 277.128 216.834 279.288C216.834 281.464 218.53 283.192 220.658 283.192C221.714 283.192 222.61 282.84 223.266 282.232V283H224.482V275.576H223.266ZM220.818 282.072C219.25 282.072 218.05 280.824 218.05 279.288C218.05 277.752 219.25 276.504 220.818 276.504C221.794 276.504 222.658 276.872 223.266 277.768V280.808C222.658 281.704 221.794 282.072 220.818 282.072ZM230.981 275.384C229.925 275.384 229.013 275.752 228.325 276.408V275.576H227.109V283H228.325V277.784C228.965 276.952 229.877 276.504 230.757 276.504C232.069 276.504 232.949 277.304 232.949 278.808V283H234.165V278.744C234.165 276.648 232.869 275.384 230.981 275.384ZM242.532 271.64V276.344C241.876 275.736 240.98 275.384 239.924 275.384C237.796 275.384 236.1 277.112 236.1 279.288C236.1 281.448 237.796 283.192 239.924 283.192C240.98 283.192 241.876 282.84 242.532 282.232V283H243.748V271.64H242.532ZM240.084 282.072C238.516 282.072 237.316 280.824 237.316 279.288C237.316 277.752 238.516 276.504 240.084 276.504C241.06 276.504 241.924 276.872 242.532 277.768V280.808C241.924 281.704 241.06 282.072 240.084 282.072ZM251.311 280.664H250.175C250.399 282.408 251.743 283.192 253.631 283.192C255.455 283.192 256.767 282.376 256.767 280.92C256.767 279.496 255.631 279.016 254.559 278.84L253.087 278.6C252.079 278.424 251.711 278.024 251.711 277.48C251.711 276.808 252.383 276.376 253.503 276.376C254.687 276.376 255.471 276.808 255.599 277.736H256.735C256.591 275.976 255.055 275.384 253.503 275.384C251.711 275.384 250.495 276.216 250.495 277.592C250.495 278.856 251.487 279.4 252.703 279.608L254.383 279.88C255.103 280.008 255.599 280.376 255.599 281C255.599 281.752 254.815 282.184 253.663 282.184C252.303 282.184 251.535 281.656 251.311 280.664ZM263.783 281.8C263.383 281.944 262.919 282.056 262.503 282.056C261.447 282.056 260.903 281.528 260.903 280.248V276.616H263.703V275.576H260.903V272.84H259.687V275.576H257.751V276.616H259.687V280.248C259.687 282.184 260.567 283.192 262.391 283.192C262.839 283.192 263.351 283.128 263.959 282.92L263.783 281.8ZM271.423 275.576V276.344C270.767 275.736 269.871 275.384 268.815 275.384C266.687 275.384 264.991 277.128 264.991 279.288C264.991 281.464 266.687 283.192 268.815 283.192C269.871 283.192 270.767 282.84 271.423 282.232V283H272.639V275.576H271.423ZM268.975 282.072C267.407 282.072 266.207 280.824 266.207 279.288C266.207 277.752 267.407 276.504 268.975 276.504C269.951 276.504 270.815 276.872 271.423 277.768V280.808C270.815 281.704 269.951 282.072 268.975 282.072ZM276.481 276.792V275.576H275.265V283H276.481V278.168C277.137 277.144 278.129 276.584 279.345 276.552V275.4C278.161 275.4 277.169 275.912 276.481 276.792ZM285.939 281.8C285.539 281.944 285.075 282.056 284.659 282.056C283.603 282.056 283.059 281.528 283.059 280.248V276.616H285.859V275.576H283.059V272.84H281.843V275.576H279.907V276.616H281.843V280.248C281.843 282.184 282.723 283.192 284.547 283.192C284.995 283.192 285.507 283.128 286.115 282.92L285.939 281.8ZM295.83 275.384C293.59 275.384 292.022 277.096 292.022 279.288C292.022 281.48 293.606 283.192 295.894 283.192C297.494 283.192 298.774 282.424 299.238 281.144H297.878C297.558 281.768 296.838 282.104 295.894 282.104C294.342 282.104 293.398 281.032 293.254 279.656H299.462C299.702 277.224 298.214 275.384 295.83 275.384ZM295.83 276.44C297.238 276.44 298.182 277.32 298.246 278.792H293.27C293.446 277.48 294.358 276.44 295.83 276.44ZM305.45 275.384C304.394 275.384 303.482 275.752 302.794 276.408V275.576H301.578V283H302.794V277.784C303.434 276.952 304.346 276.504 305.226 276.504C306.538 276.504 307.418 277.304 307.418 278.808V283H308.634V278.744C308.634 276.648 307.338 275.384 305.45 275.384ZM311.641 273.592C312.105 273.592 312.457 273.24 312.457 272.792C312.457 272.328 312.105 271.976 311.641 271.976C311.177 271.976 310.809 272.328 310.809 272.792C310.809 273.24 311.177 273.592 311.641 273.592ZM312.249 275.576H311.033V283.896C311.033 285.272 310.601 285.752 309.337 285.8L309.417 286.872C311.593 286.856 312.249 285.864 312.249 283.752V275.576ZM318.646 275.384C316.374 275.384 314.694 277.048 314.694 279.288C314.694 281.528 316.374 283.192 318.646 283.192C320.902 283.192 322.582 281.528 322.582 279.288C322.582 277.048 320.902 275.384 318.646 275.384ZM318.646 282.072C317.078 282.072 315.91 280.888 315.91 279.288C315.91 277.688 317.078 276.504 318.646 276.504C320.198 276.504 321.35 277.688 321.35 279.288C321.35 280.888 320.198 282.072 318.646 282.072ZM330.683 275.576L327.803 281.96L324.699 275.576H323.387L327.211 283.256L325.659 286.696H326.955L331.979 275.576H330.683ZM334.612 273.592C335.076 273.592 335.444 273.24 335.444 272.792C335.444 272.328 335.076 271.976 334.612 271.976C334.148 271.976 333.796 272.328 333.796 272.792C333.796 273.24 334.148 273.592 334.612 273.592ZM334.02 275.576V283H335.236V275.576H334.02ZM341.918 275.384C340.862 275.384 339.95 275.752 339.262 276.408V275.576H338.046V283H339.262V277.784C339.902 276.952 340.814 276.504 341.694 276.504C343.006 276.504 343.886 277.304 343.886 278.808V283H345.102V278.744C345.102 276.648 343.806 275.384 341.918 275.384ZM353.36 275.576V276.344C352.672 275.736 351.744 275.384 350.672 275.384C348.544 275.384 346.928 277 346.928 279.192C346.928 281.24 348.544 282.936 350.672 282.936C351.744 282.936 352.672 282.584 353.36 281.976V283.368C353.36 284.872 352.368 285.768 350.88 285.768C349.488 285.768 348.56 285.08 348.352 284.072H347.104C347.36 285.72 348.832 286.872 350.88 286.872C353.088 286.872 354.576 285.544 354.576 283.368V275.576H353.36ZM350.832 281.864C349.264 281.864 348.144 280.616 348.144 279.192C348.144 277.624 349.264 276.456 350.832 276.456C351.808 276.456 352.736 276.856 353.36 277.768V280.552C352.736 281.464 351.808 281.864 350.832 281.864ZM374.599 272.12L371.591 281.128L368.567 272.12H367.479L364.439 281.144L361.447 272.12H360.119L363.831 283.08H365.063L368.023 274.376L370.983 283.08H372.215L375.927 272.12H374.599ZM379.705 275.384C377.465 275.384 375.897 277.096 375.897 279.288C375.897 281.48 377.481 283.192 379.769 283.192C381.369 283.192 382.649 282.424 383.113 281.144H381.753C381.433 281.768 380.713 282.104 379.769 282.104C378.217 282.104 377.273 281.032 377.129 279.656H383.337C383.577 277.224 382.089 275.384 379.705 275.384ZM379.705 276.44C381.113 276.44 382.057 277.32 382.121 278.792H377.145C377.321 277.48 378.233 276.44 379.705 276.44ZM389.355 275.384C388.299 275.384 387.403 275.736 386.747 276.344V271.64H385.531V283H386.747V282.232C387.403 282.84 388.299 283.192 389.355 283.192C391.483 283.192 393.179 281.448 393.179 279.288C393.179 277.112 391.483 275.384 389.355 275.384ZM389.195 282.072C388.219 282.072 387.355 281.704 386.747 280.808V277.768C387.355 276.872 388.219 276.504 389.195 276.504C390.763 276.504 391.963 277.752 391.963 279.288C391.963 280.824 390.763 282.072 389.195 282.072ZM401.68 277.368C402.848 277.016 403.52 276.072 403.52 274.872C403.52 273.192 402.176 272.12 399.984 272.12H395.472V283H400.112C402.528 283 404.08 281.8 404.08 280.024C404.08 278.68 403.28 277.64 401.68 277.368ZM399.856 273.24C401.392 273.24 402.32 273.928 402.32 275.016C402.32 276.216 401.376 276.968 399.696 276.968H396.736V273.24H399.856ZM400.064 281.88H396.736V278.024H400.096C401.808 278.024 402.832 278.712 402.832 279.896C402.832 281.032 401.808 281.88 400.064 281.88ZM411.739 275.576V280.76C411.099 281.608 410.187 282.072 409.307 282.072C407.995 282.072 407.115 281.24 407.115 279.736V275.576H405.899V279.8C405.899 281.896 407.195 283.192 409.083 283.192C410.139 283.192 411.051 282.808 411.739 282.152V283H412.955V275.576H411.739ZM416.394 273.592C416.858 273.592 417.226 273.24 417.226 272.792C417.226 272.328 416.858 271.976 416.394 271.976C415.93 271.976 415.578 272.328 415.578 272.792C415.578 273.24 415.93 273.592 416.394 273.592ZM415.802 275.576V283H417.018V275.576H415.802ZM419.828 271.64V283H421.044V271.64H419.828ZM429.657 271.64V276.344C429.001 275.736 428.105 275.384 427.049 275.384C424.921 275.384 423.225 277.112 423.225 279.288C423.225 281.448 424.921 283.192 427.049 283.192C428.105 283.192 429.001 282.84 429.657 282.232V283H430.873V271.64H429.657ZM427.209 282.072C425.641 282.072 424.441 280.824 424.441 279.288C424.441 277.752 425.641 276.504 427.209 276.504C428.185 276.504 429.049 276.872 429.657 277.768V280.808C429.049 281.704 428.185 282.072 427.209 282.072ZM434.716 276.792V275.576H433.5V283H434.716V278.168C435.372 277.144 436.364 276.584 437.58 276.552V275.4C436.396 275.4 435.404 275.912 434.716 276.792Z" fill="#242653"/>
<path d="M77.7458 360.12V371H79.0098V360.12H77.7458ZM83.9166 362.248C83.9166 361.192 84.5726 360.504 85.6126 360.504C85.9166 360.504 86.3806 360.584 86.7806 360.696L86.9566 359.672C86.4126 359.512 85.9166 359.448 85.4846 359.448C83.8526 359.448 82.7006 360.52 82.7006 362.248V363.576H80.5406V364.616H82.7006V371H83.9166V364.616H86.8926V363.576H83.9166V362.248ZM99.0974 363.576L96.2174 369.96L93.1134 363.576H91.8014L95.6254 371.256L94.0734 374.696H95.3694L100.393 363.576H99.0974ZM105.091 363.384C102.819 363.384 101.139 365.048 101.139 367.288C101.139 369.528 102.819 371.192 105.091 371.192C107.347 371.192 109.027 369.528 109.027 367.288C109.027 365.048 107.347 363.384 105.091 363.384ZM105.091 370.072C103.523 370.072 102.355 368.888 102.355 367.288C102.355 365.688 103.523 364.504 105.091 364.504C106.643 364.504 107.795 365.688 107.795 367.288C107.795 368.888 106.643 370.072 105.091 370.072ZM116.746 363.576V368.76C116.106 369.608 115.194 370.072 114.314 370.072C113.002 370.072 112.122 369.24 112.122 367.736V363.576H110.906V367.8C110.906 369.896 112.202 371.192 114.09 371.192C115.146 371.192 116.058 370.808 116.746 370.152V371H117.962V363.576H116.746ZM130.946 359.64V364.344C130.29 363.736 129.394 363.384 128.338 363.384C126.21 363.384 124.514 365.112 124.514 367.288C124.514 369.448 126.21 371.192 128.338 371.192C129.394 371.192 130.29 370.84 130.946 370.232V371H132.162V359.64H130.946ZM128.498 370.072C126.93 370.072 125.73 368.824 125.73 367.288C125.73 365.752 126.93 364.504 128.498 364.504C129.474 364.504 130.338 364.872 130.946 365.768V368.808C130.338 369.704 129.474 370.072 128.498 370.072ZM135.605 361.592C136.069 361.592 136.437 361.24 136.437 360.792C136.437 360.328 136.069 359.976 135.605 359.976C135.141 359.976 134.789 360.328 134.789 360.792C134.789 361.24 135.141 361.592 135.605 361.592ZM135.013 363.576V371H136.229V363.576H135.013ZM144.962 359.64V364.344C144.306 363.736 143.41 363.384 142.354 363.384C140.226 363.384 138.53 365.112 138.53 367.288C138.53 369.448 140.226 371.192 142.354 371.192C143.41 371.192 144.306 370.84 144.962 370.232V371H146.178V359.64H144.962ZM142.514 370.072C140.946 370.072 139.746 368.824 139.746 367.288C139.746 365.752 140.946 364.504 142.514 364.504C143.49 364.504 144.354 364.872 144.962 365.768V368.808C144.354 369.704 143.49 370.072 142.514 370.072ZM152.676 363.384C151.62 363.384 150.708 363.752 150.02 364.408V363.576H148.804V371H150.02V365.784C150.66 364.952 151.572 364.504 152.452 364.504C153.764 364.504 154.644 365.304 154.644 366.808V371H155.86V366.744C155.86 364.648 154.564 363.384 152.676 363.384ZM157.195 363.272H157.963L158.827 361.32C159.083 360.824 159.083 360.712 159.083 360.536C159.083 360.088 158.731 359.752 158.267 359.752C157.819 359.752 157.467 360.088 157.467 360.536C157.467 360.84 157.643 361.08 157.979 361.208L157.195 363.272ZM165.807 369.8C165.407 369.944 164.943 370.056 164.527 370.056C163.471 370.056 162.927 369.528 162.927 368.248V364.616H165.727V363.576H162.927V360.84H161.711V363.576H159.775V364.616H161.711V368.248C161.711 370.184 162.591 371.192 164.415 371.192C164.863 371.192 165.375 371.128 165.983 370.92L165.807 369.8ZM173.489 364.792V363.576H172.273V371H173.489V366.168C174.145 365.144 175.137 364.584 176.353 364.552V363.4C175.169 363.4 174.177 363.912 173.489 364.792ZM181.244 363.384C179.004 363.384 177.436 365.096 177.436 367.288C177.436 369.48 179.02 371.192 181.308 371.192C182.908 371.192 184.188 370.424 184.652 369.144H183.292C182.972 369.768 182.252 370.104 181.308 370.104C179.756 370.104 178.812 369.032 178.668 367.656H184.876C185.116 365.224 183.628 363.384 181.244 363.384ZM181.244 364.44C182.652 364.44 183.596 365.32 183.66 366.792H178.684C178.86 365.48 179.772 364.44 181.244 364.44ZM190.652 370.072C189.036 370.072 187.98 368.84 187.98 367.288C187.98 365.752 189.036 364.504 190.652 364.504C191.804 364.504 192.668 365.144 192.892 366.12H194.156C193.868 364.488 192.444 363.384 190.652 363.384C188.396 363.384 186.764 365.096 186.764 367.288C186.764 369.48 188.396 371.192 190.652 371.192C192.444 371.192 193.868 370.088 194.156 368.472H192.892C192.668 369.448 191.804 370.072 190.652 370.072ZM199.806 363.384C197.566 363.384 195.998 365.096 195.998 367.288C195.998 369.48 197.582 371.192 199.87 371.192C201.47 371.192 202.75 370.424 203.214 369.144H201.854C201.534 369.768 200.814 370.104 199.87 370.104C198.318 370.104 197.374 369.032 197.23 367.656H203.438C203.678 365.224 202.19 363.384 199.806 363.384ZM199.806 364.44C201.214 364.44 202.158 365.32 202.222 366.792H197.246C197.422 365.48 198.334 364.44 199.806 364.44ZM206.401 361.592C206.865 361.592 207.233 361.24 207.233 360.792C207.233 360.328 206.865 359.976 206.401 359.976C205.937 359.976 205.585 360.328 205.585 360.792C205.585 361.24 205.937 361.592 206.401 361.592ZM205.809 363.576V371H207.025V363.576H205.809ZM215.571 363.576L212.803 369.464L210.035 363.576H208.739L212.243 371H213.363L216.867 363.576H215.571ZM221.447 363.384C219.207 363.384 217.639 365.096 217.639 367.288C217.639 369.48 219.223 371.192 221.511 371.192C223.111 371.192 224.391 370.424 224.855 369.144H223.495C223.175 369.768 222.455 370.104 221.511 370.104C219.959 370.104 219.015 369.032 218.871 367.656H225.079C225.319 365.224 223.831 363.384 221.447 363.384ZM221.447 364.44C222.855 364.44 223.799 365.32 223.863 366.792H218.887C219.063 365.48 219.975 364.44 221.447 364.44ZM232.48 361.592C232.944 361.592 233.312 361.24 233.312 360.792C233.312 360.328 232.944 359.976 232.48 359.976C232.016 359.976 231.664 360.328 231.664 360.792C231.664 361.24 232.016 361.592 232.48 361.592ZM231.888 363.576V371H233.104V363.576H231.888ZM240.682 369.8C240.282 369.944 239.818 370.056 239.402 370.056C238.346 370.056 237.802 369.528 237.802 368.248V364.616H240.602V363.576H237.802V360.84H236.586V363.576H234.65V364.616H236.586V368.248C236.586 370.184 237.466 371.192 239.29 371.192C239.738 371.192 240.25 371.128 240.858 370.92L240.682 369.8ZM242.979 371.128C243.443 371.128 243.811 370.776 243.811 370.312C243.811 369.864 243.443 369.528 242.979 369.528C242.531 369.528 242.163 369.864 242.163 370.312C242.163 370.776 242.531 371.128 242.979 371.128ZM263.153 360.12L260.145 369.128L257.121 360.12H256.033L252.993 369.144L250.001 360.12H248.673L252.385 371.08H253.617L256.577 362.376L259.537 371.08H260.769L264.481 360.12H263.153ZM268.259 363.384C266.019 363.384 264.451 365.096 264.451 367.288C264.451 369.48 266.035 371.192 268.323 371.192C269.923 371.192 271.203 370.424 271.667 369.144H270.307C269.987 369.768 269.267 370.104 268.323 370.104C266.771 370.104 265.827 369.032 265.683 367.656H271.891C272.131 365.224 270.643 363.384 268.259 363.384ZM268.259 364.44C269.667 364.44 270.611 365.32 270.675 366.792H265.699C265.875 365.48 266.787 364.44 268.259 364.44ZM273.179 363.272H273.947L274.811 361.32C275.067 360.824 275.067 360.712 275.067 360.536C275.067 360.088 274.715 359.752 274.251 359.752C273.803 359.752 273.451 360.088 273.451 360.536C273.451 360.84 273.627 361.08 273.963 361.208L273.179 363.272ZM277.023 359.64V371H278.239V359.64H277.023ZM280.851 359.64V371H282.067V359.64H280.851ZM295.04 363.576V364.344C294.352 363.736 293.424 363.384 292.352 363.384C290.224 363.384 288.608 365 288.608 367.192C288.608 369.24 290.224 370.936 292.352 370.936C293.424 370.936 294.352 370.584 295.04 369.976V371.368C295.04 372.872 294.048 373.768 292.56 373.768C291.168 373.768 290.24 373.08 290.032 372.072H288.784C289.04 373.72 290.512 374.872 292.56 374.872C294.768 374.872 296.256 373.544 296.256 371.368V363.576H295.04ZM292.512 369.864C290.944 369.864 289.824 368.616 289.824 367.192C289.824 365.624 290.944 364.456 292.512 364.456C293.488 364.456 294.416 364.856 295.04 365.768V368.552C294.416 369.464 293.488 369.864 292.512 369.864ZM298.882 359.64V371H300.098V359.64H298.882ZM308.712 363.576V364.344C308.056 363.736 307.16 363.384 306.104 363.384C303.976 363.384 302.28 365.128 302.28 367.288C302.28 369.464 303.976 371.192 306.104 371.192C307.16 371.192 308.056 370.84 308.712 370.232V371H309.928V363.576H308.712ZM306.264 370.072C304.696 370.072 303.496 368.824 303.496 367.288C303.496 365.752 304.696 364.504 306.264 364.504C307.24 364.504 308.104 364.872 308.712 365.768V368.808C308.104 369.704 307.24 370.072 306.264 370.072ZM318.524 359.64V364.344C317.868 363.736 316.972 363.384 315.916 363.384C313.788 363.384 312.092 365.112 312.092 367.288C312.092 369.448 313.788 371.192 315.916 371.192C316.972 371.192 317.868 370.84 318.524 370.232V371H319.74V359.64H318.524ZM316.076 370.072C314.508 370.072 313.308 368.824 313.308 367.288C313.308 365.752 314.508 364.504 316.076 364.504C317.052 364.504 317.916 364.872 318.524 365.768V368.808C317.916 369.704 317.052 370.072 316.076 370.072ZM322.367 359.64V371H323.583V359.64H322.367ZM332.504 363.576L329.624 369.96L326.52 363.576H325.208L329.032 371.256L327.48 374.696H328.776L333.8 363.576H332.504ZM339.913 368.664H338.777C339.001 370.408 340.345 371.192 342.233 371.192C344.057 371.192 345.369 370.376 345.369 368.92C345.369 367.496 344.233 367.016 343.161 366.84L341.689 366.6C340.681 366.424 340.313 366.024 340.313 365.48C340.313 364.808 340.985 364.376 342.105 364.376C343.289 364.376 344.073 364.808 344.201 365.736H345.337C345.193 363.976 343.657 363.384 342.105 363.384C340.313 363.384 339.097 364.216 339.097 365.592C339.097 366.856 340.089 367.4 341.305 367.608L342.985 367.88C343.705 368.008 344.201 368.376 344.201 369C344.201 369.752 343.417 370.184 342.265 370.184C340.905 370.184 340.137 369.656 339.913 368.664ZM350.884 363.384C348.644 363.384 347.076 365.096 347.076 367.288C347.076 369.48 348.66 371.192 350.948 371.192C352.548 371.192 353.828 370.424 354.292 369.144H352.932C352.612 369.768 351.892 370.104 350.948 370.104C349.396 370.104 348.452 369.032 348.308 367.656H354.516C354.756 365.224 353.268 363.384 350.884 363.384ZM350.884 364.44C352.292 364.44 353.236 365.32 353.3 366.792H348.324C348.5 365.48 349.412 364.44 350.884 364.44ZM360.504 363.384C359.448 363.384 358.536 363.752 357.848 364.408V363.576H356.632V371H357.848V365.784C358.488 364.952 359.4 364.504 360.28 364.504C361.592 364.504 362.472 365.304 362.472 366.808V371H363.688V366.744C363.688 364.648 362.392 363.384 360.504 363.384ZM372.055 359.64V364.344C371.399 363.736 370.503 363.384 369.447 363.384C367.319 363.384 365.623 365.112 365.623 367.288C365.623 369.448 367.319 371.192 369.447 371.192C370.503 371.192 371.399 370.84 372.055 370.232V371H373.271V359.64H372.055ZM369.607 370.072C368.039 370.072 366.839 368.824 366.839 367.288C366.839 365.752 368.039 364.504 369.607 364.504C370.583 364.504 371.447 364.872 372.055 365.768V368.808C371.447 369.704 370.583 370.072 369.607 370.072ZM386.722 363.576L383.842 369.96L380.738 363.576H379.426L383.25 371.256L381.698 374.696H382.994L388.018 363.576H386.722ZM392.716 363.384C390.444 363.384 388.764 365.048 388.764 367.288C388.764 369.528 390.444 371.192 392.716 371.192C394.972 371.192 396.652 369.528 396.652 367.288C396.652 365.048 394.972 363.384 392.716 363.384ZM392.716 370.072C391.148 370.072 389.98 368.888 389.98 367.288C389.98 365.688 391.148 364.504 392.716 364.504C394.268 364.504 395.42 365.688 395.42 367.288C395.42 368.888 394.268 370.072 392.716 370.072ZM404.371 363.576V368.76C403.731 369.608 402.819 370.072 401.939 370.072C400.627 370.072 399.747 369.24 399.747 367.736V363.576H398.531V367.8C398.531 369.896 399.827 371.192 401.715 371.192C402.771 371.192 403.683 370.808 404.371 370.152V371H405.587V363.576H404.371ZM418.571 363.576V364.344C417.915 363.736 417.019 363.384 415.963 363.384C413.835 363.384 412.139 365.128 412.139 367.288C412.139 369.464 413.835 371.192 415.963 371.192C417.019 371.192 417.915 370.84 418.571 370.232V371H419.787V363.576H418.571ZM416.123 370.072C414.555 370.072 413.355 368.824 413.355 367.288C413.355 365.752 414.555 364.504 416.123 364.504C417.099 364.504 417.963 364.872 418.571 365.768V368.808C417.963 369.704 417.099 370.072 416.123 370.072ZM426.286 363.384C425.23 363.384 424.318 363.752 423.63 364.408V363.576H422.414V371H423.63V365.784C424.27 364.952 425.182 364.504 426.062 364.504C427.374 364.504 428.254 365.304 428.254 366.808V371H429.47V366.744C429.47 364.648 428.174 363.384 426.286 363.384ZM435.357 363.384C433.085 363.384 431.405 365.048 431.405 367.288C431.405 369.528 433.085 371.192 435.357 371.192C437.613 371.192 439.293 369.528 439.293 367.288C439.293 365.048 437.613 363.384 435.357 363.384ZM435.357 370.072C433.789 370.072 432.621 368.888 432.621 367.288C432.621 365.688 433.789 364.504 435.357 364.504C436.909 364.504 438.061 365.688 438.061 367.288C438.061 368.888 436.909 370.072 435.357 370.072ZM446.244 369.8C445.844 369.944 445.38 370.056 444.964 370.056C443.908 370.056 443.364 369.528 443.364 368.248V364.616H446.164V363.576H443.364V360.84H442.148V363.576H440.212V364.616H442.148V368.248C442.148 370.184 443.028 371.192 444.852 371.192C445.3 371.192 445.812 371.128 446.42 370.92L446.244 369.8ZM452.192 363.384C451.136 363.384 450.224 363.752 449.536 364.408V359.64H448.32V371H449.536V365.784C450.176 364.952 451.088 364.504 451.968 364.504C453.28 364.504 454.16 365.304 454.16 366.808V371H455.376V366.744C455.376 364.648 454.08 363.384 452.192 363.384ZM461.119 363.384C458.879 363.384 457.311 365.096 457.311 367.288C457.311 369.48 458.895 371.192 461.183 371.192C462.783 371.192 464.063 370.424 464.527 369.144H463.167C462.847 369.768 462.127 370.104 461.183 370.104C459.631 370.104 458.687 369.032 458.543 367.656H464.751C464.991 365.224 463.503 363.384 461.119 363.384ZM461.119 364.44C462.527 364.44 463.471 365.32 463.535 366.792H458.559C458.735 365.48 459.647 364.44 461.119 364.44ZM468.083 364.792V363.576H466.867V371H468.083V366.168C468.739 365.144 469.731 364.584 470.947 364.552V363.4C469.763 363.4 468.771 363.912 468.083 364.792ZM472.276 371.128C472.74 371.128 473.108 370.776 473.108 370.312C473.108 369.864 472.74 369.528 472.276 369.528C471.828 369.528 471.46 369.864 471.46 370.312C471.46 370.776 471.828 371.128 472.276 371.128Z" fill="#242653"/>
</svg>
