<svg width="156" height="25" viewBox="0 0 156 25" fill="none" xmlns="http://www.w3.org/2000/svg">
<path d="M7.994 23.706C7.90067 23.5473 7.812 23.384 7.728 23.216C7.644 23.048 7.56933 22.88 7.504 22.712C6.3 19.5387 5.10067 16.3933 3.906 13.276C2.71133 10.1587 1.512 7.01333 0.308 3.84C0.308 3.79333 0.298667 3.75133 0.28 3.714C0.270667 3.67667 0.266 3.63933 0.266 3.602C0.266 3.34067 0.438667 3.21 0.784 3.21H5.292C5.64667 3.21 5.88933 3.38733 6.02 3.742L10.304 16.496L14.266 3.742C14.3967 3.38733 14.6533 3.21 15.036 3.21H19.586C19.8007 3.21 19.95 3.252 20.034 3.336C20.1273 3.41067 20.174 3.51333 20.174 3.644C20.174 3.71867 20.1693 3.77 20.16 3.798V3.84L17.668 10.98L19.544 16.482L24.08 3.742C24.2107 3.38733 24.4673 3.21 24.85 3.21H29.26C29.4747 3.21 29.624 3.252 29.708 3.336C29.8013 3.41067 29.848 3.51333 29.848 3.644C29.848 3.71867 29.8433 3.77 29.834 3.798V3.84C29.1993 5.48267 28.5507 7.12067 27.888 8.754C27.2253 10.3873 26.558 12.0207 25.886 13.654C25.2233 15.2873 24.5607 16.9253 23.898 18.568C23.2447 20.2013 22.6053 21.8347 21.98 23.468C21.9427 23.5707 21.8587 23.6873 21.728 23.818C21.5973 23.9393 21.4387 24 21.252 24H21.21H17.822C17.6167 24 17.458 23.9627 17.346 23.888C17.2433 23.804 17.1687 23.6967 17.122 23.566L14.91 17.742C14.5927 18.5913 14.28 19.4267 13.972 20.248C13.664 21.06 13.356 21.8907 13.048 22.74C13.0013 22.8707 12.9453 23.0107 12.88 23.16C12.824 23.3 12.754 23.4353 12.67 23.566C12.586 23.6873 12.488 23.79 12.376 23.874C12.2733 23.958 12.152 24 12.012 24H11.97H8.582C8.28333 24 8.08733 23.902 7.994 23.706ZM44.0018 21.872C43.1804 22.628 42.2564 23.2207 41.2298 23.65C40.2031 24.07 39.1158 24.28 37.9678 24.28C36.6891 24.28 35.4804 24.0467 34.3418 23.58C33.2031 23.1133 32.2044 22.4693 31.3458 21.648C30.4871 20.8173 29.8058 19.842 29.3018 18.722C28.7978 17.602 28.5458 16.384 28.5458 15.068C28.5458 14.2467 28.6438 13.4533 28.8398 12.688C29.0451 11.9133 29.3298 11.19 29.6938 10.518C30.0671 9.846 30.5151 9.23 31.0378 8.67C31.5698 8.10067 32.1624 7.61533 32.8158 7.214C33.4691 6.81267 34.1784 6.5 34.9438 6.276C35.7091 6.052 36.5164 5.94 37.3658 5.94C38.1404 5.94 38.8918 6.04267 39.6198 6.248C40.3478 6.45333 41.0291 6.74267 41.6638 7.116C42.3078 7.48933 42.8958 7.93733 43.4278 8.46C43.9598 8.98267 44.4171 9.55667 44.7998 10.182C45.1824 10.798 45.4764 11.4607 45.6818 12.17C45.8964 12.87 46.0038 13.5933 46.0038 14.34C46.0038 14.8253 45.9944 15.222 45.9758 15.53C45.9664 15.838 45.8964 16.0853 45.7658 16.272C45.6351 16.4493 45.4158 16.5753 45.1078 16.65C44.8091 16.7153 44.3658 16.748 43.7778 16.748H33.6978C33.7911 17.3453 33.9778 17.8447 34.2578 18.246C34.5471 18.6473 34.8784 18.9693 35.2518 19.212C35.6251 19.4453 36.0218 19.6133 36.4418 19.716C36.8618 19.8187 37.2584 19.87 37.6318 19.87C37.9678 19.87 38.3131 19.8373 38.6678 19.772C39.0224 19.6973 39.3631 19.604 39.6898 19.492C40.0258 19.3707 40.3291 19.2353 40.5998 19.086C40.8798 18.9273 41.1038 18.764 41.2718 18.596C41.4211 18.4747 41.5471 18.386 41.6498 18.33C41.7618 18.2647 41.8784 18.232 41.9998 18.232C42.1211 18.232 42.2424 18.274 42.3638 18.358C42.4944 18.442 42.6391 18.5633 42.7978 18.722L44.2818 20.402C44.3844 20.5233 44.4498 20.6353 44.4778 20.738C44.5058 20.8313 44.5198 20.9293 44.5198 21.032C44.5198 21.2187 44.4684 21.382 44.3658 21.522C44.2631 21.6527 44.1418 21.7693 44.0018 21.872ZM37.2678 10.21C36.9038 10.21 36.5491 10.2847 36.2038 10.434C35.8678 10.574 35.5504 10.7653 35.2518 11.008C34.9531 11.2507 34.6824 11.526 34.4398 11.834C34.2064 12.142 34.0151 12.4547 33.8658 12.772H41.0198C40.8238 12.408 40.6091 12.072 40.3758 11.764C40.1518 11.456 39.8904 11.1853 39.5918 10.952C39.3024 10.7187 38.9664 10.5367 38.5838 10.406C38.2104 10.2753 37.7718 10.21 37.2678 10.21ZM53.9 22.922C53.816 23.0993 53.746 23.258 53.69 23.398C53.634 23.5287 53.5687 23.6407 53.494 23.734C53.4287 23.818 53.3447 23.8833 53.242 23.93C53.1393 23.9767 52.9993 24 52.822 24H50.05C49.3033 24 48.93 23.6407 48.93 22.922V2.006C48.93 1.84733 48.958 1.70267 49.014 1.572C49.0793 1.44133 49.1587 1.32933 49.252 1.236C49.3547 1.14267 49.4667 1.07267 49.588 1.026C49.7187 0.969999 49.8447 0.941999 49.966 0.941999H53.144C53.4987 0.941999 53.7787 1.04467 53.984 1.25C54.1893 1.45533 54.292 1.70733 54.292 2.006V7.83C54.5533 7.55 54.8333 7.29333 55.132 7.06C55.4307 6.82667 55.7527 6.63067 56.098 6.472C56.4527 6.304 56.84 6.17333 57.26 6.08C57.68 5.98667 58.1467 5.94 58.66 5.94C59.9293 5.94 61.096 6.178 62.16 6.654C63.2333 7.12067 64.1527 7.76933 64.918 8.6C65.6927 9.42133 66.2947 10.392 66.724 11.512C67.1627 12.6227 67.382 13.8267 67.382 15.124C67.382 16.412 67.1627 17.616 66.724 18.736C66.2947 19.856 65.6927 20.8313 64.918 21.662C64.1527 22.4833 63.2333 23.132 62.16 23.608C61.096 24.084 59.9293 24.322 58.66 24.322C58.184 24.322 57.7267 24.2613 57.288 24.14C56.8587 24.0187 56.4527 23.86 56.07 23.664C55.6873 23.468 55.3327 23.2487 55.006 23.006C54.6887 22.754 54.404 22.502 54.152 22.25L53.9 22.922ZM62.342 15.124C62.342 14.5267 62.244 13.9573 62.048 13.416C61.8613 12.8747 61.5907 12.3987 61.236 11.988C60.8813 11.5773 60.4567 11.2553 59.962 11.022C59.4673 10.7793 58.912 10.658 58.296 10.658C57.68 10.658 57.1013 10.7793 56.56 11.022C56.028 11.2553 55.566 11.5773 55.174 11.988C54.782 12.3987 54.4693 12.8747 54.236 13.416C54.012 13.9573 53.9 14.5267 53.9 15.124V15.32C53.928 15.908 54.0587 16.4587 54.292 16.972C54.5347 17.4853 54.852 17.9333 55.244 18.316C55.636 18.6893 56.0933 18.9833 56.616 19.198C57.1387 19.4127 57.6987 19.52 58.296 19.52C58.912 19.52 59.4673 19.408 59.962 19.184C60.4567 18.9507 60.8813 18.638 61.236 18.246C61.5907 17.854 61.8613 17.392 62.048 16.86C62.244 16.3187 62.342 15.74 62.342 15.124ZM85.3654 8.852C85.3654 9.65467 85.2068 10.4107 84.8894 11.12C84.5814 11.8293 84.1474 12.436 83.5874 12.94C84.0168 13.192 84.4041 13.4953 84.7494 13.85C85.1041 14.2047 85.4074 14.5967 85.6594 15.026C85.9114 15.446 86.1028 15.8987 86.2334 16.384C86.3734 16.8693 86.4434 17.3733 86.4434 17.896C86.4434 18.708 86.2941 19.4827 85.9954 20.22C85.6968 20.9573 85.2861 21.606 84.7634 22.166C84.2408 22.726 83.6201 23.174 82.9014 23.51C82.1921 23.8367 81.4221 24 80.5914 24H71.4494C71.2628 24 71.1088 23.9487 70.9874 23.846C70.8661 23.7433 70.8054 23.5893 70.8054 23.384V3.882C70.8054 3.434 71.0201 3.21 71.4494 3.21H79.6674C80.4794 3.21 81.2308 3.35467 81.9214 3.644C82.6121 3.93333 83.2141 4.33 83.7274 4.834C84.2408 5.338 84.6421 5.93533 84.9314 6.626C85.2208 7.30733 85.3654 8.04933 85.3654 8.852ZM73.4794 14.634V21.326H80.5634C80.9928 21.326 81.3988 21.2327 81.7814 21.046C82.1641 20.8593 82.4954 20.612 82.7754 20.304C83.0648 19.9867 83.2888 19.6227 83.4474 19.212C83.6154 18.792 83.6994 18.3533 83.6994 17.896C83.6994 17.4573 83.6154 17.042 83.4474 16.65C83.2888 16.258 83.0694 15.9127 82.7894 15.614C82.5094 15.3153 82.1781 15.0773 81.7954 14.9C81.4128 14.7227 81.0021 14.634 80.5634 14.634H73.4794ZM82.6214 8.852C82.6214 8.42267 82.5468 8.026 82.3974 7.662C82.2574 7.298 82.0521 6.98533 81.7814 6.724C81.5201 6.45333 81.2074 6.248 80.8434 6.108C80.4794 5.95867 80.0781 5.884 79.6394 5.884H73.4794V11.96H79.6114C80.0408 11.96 80.4374 11.8807 80.8014 11.722C81.1748 11.5633 81.4921 11.344 81.7534 11.064C82.0241 10.784 82.2341 10.4573 82.3834 10.084C82.5421 9.70133 82.6214 9.29067 82.6214 8.852ZM101.541 21.928C101.271 22.2547 100.986 22.5487 100.687 22.81C100.398 23.062 100.067 23.2767 99.6933 23.454C99.3293 23.6313 98.914 23.7667 98.4473 23.86C97.9807 23.9533 97.4393 24 96.8233 24C95.6753 24 94.6627 23.804 93.7853 23.412C92.908 23.0107 92.1707 22.4693 91.5733 21.788C90.9853 21.0973 90.5373 20.29 90.2293 19.366C89.9307 18.442 89.7813 17.4527 89.7813 16.398V6.892C89.7813 6.57467 89.8607 6.33667 90.0193 6.178C90.1873 6.01933 90.3973 5.94 90.6493 5.94H91.6853C92.0307 5.94 92.25 6.01 92.3433 6.15C92.446 6.29 92.4973 6.52333 92.4973 6.85V16.398C92.4973 16.958 92.572 17.532 92.7213 18.12C92.88 18.6987 93.132 19.226 93.4773 19.702C93.832 20.178 94.2987 20.5653 94.8773 20.864C95.456 21.1627 96.1653 21.312 97.0053 21.312C97.5373 21.312 98.0693 21.2187 98.6013 21.032C99.1427 20.836 99.628 20.5513 100.057 20.178C100.496 19.8047 100.851 19.3473 101.121 18.806C101.401 18.2553 101.541 17.6207 101.541 16.902V6.556C101.541 6.14533 101.747 5.94 102.157 5.94H103.599C104.038 5.94 104.257 6.14533 104.257 6.556V23.104C104.257 23.2907 104.197 23.44 104.075 23.552C103.954 23.664 103.809 23.72 103.641 23.72H102.185C101.989 23.72 101.831 23.6593 101.709 23.538C101.597 23.4167 101.541 23.272 101.541 23.104V21.928ZM110.982 23.384C110.982 23.7947 110.776 24 110.366 24H108.924C108.485 24 108.266 23.7947 108.266 23.384V6.836C108.266 6.64933 108.326 6.5 108.448 6.388C108.569 6.276 108.714 6.22 108.882 6.22H110.338C110.534 6.22 110.688 6.28067 110.8 6.402C110.921 6.52333 110.982 6.668 110.982 6.836V23.384ZM110.982 2.986C110.982 3.39667 110.776 3.602 110.366 3.602H108.924C108.485 3.602 108.266 3.39667 108.266 2.986V1.544C108.266 1.35733 108.326 1.208 108.448 1.096C108.569 0.983999 108.714 0.927998 108.882 0.927998H110.338C110.534 0.927998 110.688 0.988665 110.8 1.11C110.921 1.222 110.982 1.36667 110.982 1.544V2.986ZM118.214 23.384C118.214 23.7947 118.008 24 117.598 24H116.156C115.717 24 115.498 23.7947 115.498 23.384V1.558C115.498 1.37133 115.558 1.222 115.68 1.11C115.801 0.997999 115.946 0.941999 116.114 0.941999H117.57C117.766 0.941999 117.92 1.00267 118.032 1.124C118.153 1.24533 118.214 1.39 118.214 1.558V23.384ZM137.99 24C137.579 24 137.374 23.7947 137.374 23.384V21.69C136.571 22.5113 135.638 23.1553 134.574 23.622C133.51 24.0887 132.357 24.322 131.116 24.322C130.285 24.322 129.478 24.2147 128.694 24C127.919 23.776 127.191 23.4633 126.51 23.062C125.829 22.6607 125.208 22.18 124.648 21.62C124.088 21.06 123.603 20.4393 123.192 19.758C122.791 19.0767 122.478 18.3487 122.254 17.574C122.039 16.79 121.932 15.978 121.932 15.138C121.932 14.298 122.039 13.4907 122.254 12.716C122.478 11.932 122.791 11.1993 123.192 10.518C123.603 9.82733 124.088 9.202 124.648 8.642C125.208 8.082 125.829 7.60133 126.51 7.2C127.191 6.78933 127.919 6.47667 128.694 6.262C129.469 6.038 130.276 5.926 131.116 5.926C132.357 5.926 133.51 6.164 134.574 6.64C135.638 7.10667 136.571 7.75067 137.374 8.572V1.558C137.374 1.39 137.43 1.24533 137.542 1.124C137.663 1.00267 137.822 0.941999 138.018 0.941999H139.474C139.642 0.941999 139.787 0.997999 139.908 1.11C140.029 1.222 140.09 1.37133 140.09 1.558V23.384C140.09 23.7947 139.871 24 139.432 24H137.99ZM137.514 15.138C137.514 14.27 137.346 13.4347 137.01 12.632C136.674 11.8293 136.217 11.1247 135.638 10.518C135.059 9.902 134.378 9.412 133.594 9.048C132.819 8.684 131.993 8.502 131.116 8.502C130.239 8.502 129.413 8.684 128.638 9.048C127.873 9.412 127.201 9.902 126.622 10.518C126.053 11.1247 125.6 11.8293 125.264 12.632C124.937 13.4347 124.774 14.27 124.774 15.138C124.774 16.0247 124.937 16.8647 125.264 17.658C125.6 18.4513 126.053 19.1467 126.622 19.744C127.201 20.3413 127.873 20.8173 128.638 21.172C129.413 21.5267 130.239 21.704 131.116 21.704C131.993 21.704 132.819 21.5267 133.594 21.172C134.378 20.8173 135.059 20.3413 135.638 19.744C136.217 19.1467 136.674 18.4513 137.01 17.658C137.346 16.8647 137.514 16.0247 137.514 15.138ZM146.732 8.096C146.844 7.88133 147.003 7.648 147.208 7.396C147.423 7.144 147.679 6.91067 147.978 6.696C148.277 6.48133 148.617 6.304 149 6.164C149.383 6.01467 149.803 5.94 150.26 5.94C150.764 5.94 151.217 5.96333 151.618 6.01C152.029 6.04733 152.416 6.122 152.78 6.234C153.144 6.33667 153.494 6.48133 153.83 6.668C154.175 6.84533 154.535 7.074 154.908 7.354C155.02 7.438 155.141 7.54533 155.272 7.676C155.412 7.80667 155.482 7.96067 155.482 8.138C155.482 8.24067 155.459 8.334 155.412 8.418L154.586 9.692C154.455 9.85067 154.325 9.93 154.194 9.93C154.119 9.93 154.049 9.90667 153.984 9.86C153.919 9.804 153.839 9.74333 153.746 9.678C153.167 9.286 152.603 9.00133 152.052 8.824C151.511 8.63733 150.932 8.544 150.316 8.544C149.849 8.544 149.401 8.63267 148.972 8.81C148.543 8.98733 148.16 9.244 147.824 9.58C147.497 9.90667 147.231 10.3127 147.026 10.798C146.83 11.274 146.732 11.8153 146.732 12.422V23.384C146.732 23.7947 146.527 24 146.116 24H144.66C144.231 24 144.016 23.7947 144.016 23.384V6.836C144.016 6.64933 144.077 6.5 144.198 6.388C144.319 6.276 144.464 6.22 144.632 6.22H146.088C146.284 6.22 146.438 6.28067 146.55 6.402C146.671 6.52333 146.732 6.668 146.732 6.836V8.096Z" fill="#2B2E63"/>
</svg>
