<svg width="162" height="20" viewBox="0 0 162 20" fill="none" xmlns="http://www.w3.org/2000/svg">
<path d="M19.0798 8.44944H18.375V8.41658H10.5V11.5833H15.4451C14.7236 13.4266 12.7851 14.7499 10.5 14.7499C7.60069 14.7499 5.25 12.6231 5.25 9.99992C5.25 7.37673 7.60069 5.24992 10.5 5.24992C11.8383 5.24992 13.0559 5.70671 13.9829 6.45286L16.4579 4.21363C14.8951 2.8959 12.8048 2.08325 10.5 2.08325C5.66781 2.08325 1.75 5.62794 1.75 9.99992C1.75 14.3719 5.66781 17.9166 10.5 17.9166C15.3322 17.9166 19.25 14.3719 19.25 9.99992C19.25 9.46911 19.1896 8.95096 19.0798 8.44944Z" fill="#FFC107"/>
<path d="M2.75879 6.31511L5.6336 8.22263C6.41148 6.48017 8.29535 5.24992 10.4999 5.24992C11.8382 5.24992 13.0558 5.70671 13.9829 6.45286L16.4578 4.21363C14.895 2.8959 12.8047 2.08325 10.4999 2.08325C7.13904 2.08325 4.22441 3.79998 2.75879 6.31511Z" fill="#FF3D00"/>
<path d="M10.4999 17.9167C12.76 17.9167 14.8136 17.1341 16.3663 15.8615L13.6582 13.7882C12.7502 14.4129 11.6407 14.7508 10.4999 14.75C8.22402 14.75 6.29158 13.437 5.56358 11.6047L2.71021 13.5938C4.15833 16.1576 7.09921 17.9167 10.4999 17.9167Z" fill="#4CAF50"/>
<path d="M19.0798 8.4496H18.375V8.41675H10.5V11.5834H15.4451C15.1 12.4607 14.4783 13.2274 13.657 13.7886L13.6583 13.7878L16.3664 15.8612C16.1748 16.0187 19.25 13.9584 19.25 10.0001C19.25 9.46927 19.1896 8.95112 19.0798 8.4496Z" fill="#1976D2"/>
<path d="M35.69 3.812C33.52 3.812 32.078 4.988 32.078 6.808C32.078 8.278 32.904 9.23 34.794 9.594L36.334 9.888C37.356 10.07 37.594 10.504 37.594 10.924C37.594 11.596 36.992 11.974 35.942 11.974C34.626 11.974 33.744 11.358 33.59 10.364H31.7C31.84 12.408 33.478 13.668 35.83 13.668C38.07 13.668 39.554 12.492 39.554 10.686C39.554 9.118 38.49 8.404 36.628 8.026L35.508 7.802C34.598 7.62 34.094 7.326 34.094 6.64C34.094 5.856 34.78 5.45 35.83 5.45C37.034 5.45 37.594 5.996 37.72 6.878H39.61C39.386 4.442 37.3 3.812 35.69 3.812ZM42.2442 5.52C42.8602 5.52 43.3642 5.058 43.3642 4.442C43.3642 3.812 42.8602 3.35 42.2442 3.35C41.6142 3.35 41.1242 3.812 41.1242 4.442C41.1242 5.058 41.6142 5.52 42.2442 5.52ZM41.3342 6.822V13.5H43.1682V6.822H41.3342ZM50.058 6.822V7.186C49.54 6.85 48.882 6.654 48.14 6.654C46.292 6.654 44.808 7.998 44.808 10C44.808 11.722 46.292 13.22 48.14 13.22C48.882 13.22 49.54 13.024 50.058 12.688V13.542C50.058 14.634 49.372 15.222 48.476 15.222C47.524 15.222 46.936 14.732 46.852 14.018H44.99C45.13 15.698 46.558 16.888 48.476 16.888C50.464 16.888 51.892 15.628 51.892 13.542V6.822H50.058ZM48.42 11.638C47.37 11.638 46.642 10.784 46.642 10C46.642 8.936 47.37 8.236 48.42 8.236C49.022 8.236 49.624 8.446 50.058 9.076V10.798C49.624 11.428 49.022 11.638 48.42 11.638ZM57.4273 6.654C56.6713 6.654 56.0413 6.892 55.4953 7.326V6.822H53.6613V13.5H55.4953V9.174C55.9713 8.614 56.5313 8.32 57.0353 8.32C58.0013 8.32 58.5473 8.894 58.5473 9.986V13.5H60.3813V9.874C60.3813 7.914 59.2053 6.654 57.4273 6.654ZM66.7989 5.52C67.4149 5.52 67.9189 5.058 67.9189 4.442C67.9189 3.812 67.4149 3.35 66.7989 3.35C66.1689 3.35 65.6789 3.812 65.6789 4.442C65.6789 5.058 66.1689 5.52 66.7989 5.52ZM65.8889 6.822V13.5H67.7229V6.822H65.8889ZM73.4507 6.654C72.6947 6.654 72.0647 6.892 71.5187 7.326V6.822H69.6847V13.5H71.5187V9.174C71.9947 8.614 72.5547 8.32 73.0587 8.32C74.0247 8.32 74.5707 8.894 74.5707 9.986V13.5H76.4047V9.874C76.4047 7.914 75.2287 6.654 73.4507 6.654ZM89.7663 6.822L88.6043 10.728L87.1623 6.822H85.6223L84.1803 10.728L83.0183 6.822H81.0303L83.3823 13.5H84.9783L86.3923 9.356L87.8063 13.5H89.4023L91.7543 6.822H89.7663ZM93.9649 5.52C94.5809 5.52 95.0849 5.058 95.0849 4.442C95.0849 3.812 94.5809 3.35 93.9649 3.35C93.3349 3.35 92.8449 3.812 92.8449 4.442C92.8449 5.058 93.3349 5.52 93.9649 5.52ZM93.0549 6.822V13.5H94.8889V6.822H93.0549ZM101.639 11.708C101.303 11.848 100.911 11.974 100.491 11.974C99.8048 11.974 99.3148 11.624 99.3148 10.84V8.362H101.765V6.822H99.3148V4.4H97.4808V6.822H96.0528V8.362H97.4808V10.84C97.4808 12.548 98.4888 13.668 100.281 13.668C100.771 13.668 101.275 13.612 101.891 13.374L101.639 11.708ZM106.947 6.654C106.191 6.654 105.561 6.892 105.015 7.326V3.56H103.181V13.5H105.015V9.174C105.491 8.614 106.051 8.32 106.555 8.32C107.521 8.32 108.067 8.894 108.067 9.986V13.5H109.901V9.874C109.901 7.914 108.725 6.654 106.947 6.654ZM119.451 8.208V9.972H122.279C121.901 11.092 120.977 11.89 119.591 11.89C117.729 11.89 116.567 10.462 116.567 8.88C116.567 6.85 117.883 5.59 119.689 5.59C120.543 5.59 121.747 5.898 122.251 7.298H124.295C123.707 4.89 121.691 3.812 119.661 3.812C116.875 3.812 114.635 5.856 114.635 8.88C114.635 11.484 116.707 13.668 119.591 13.668C121.089 13.668 122.139 13.08 122.797 12.128L122.923 13.5H124.407V8.208H119.451ZM129.438 6.654C127.338 6.654 125.882 8.096 125.882 10.168C125.882 12.226 127.338 13.668 129.438 13.668C131.524 13.668 132.98 12.226 132.98 10.168C132.98 8.096 131.524 6.654 129.438 6.654ZM129.438 12.002C128.416 12.002 127.716 11.246 127.716 10.168C127.716 9.076 128.416 8.32 129.438 8.32C130.446 8.32 131.146 9.076 131.146 10.168C131.146 11.246 130.446 12.002 129.438 12.002ZM137.655 6.654C135.555 6.654 134.099 8.096 134.099 10.168C134.099 12.226 135.555 13.668 137.655 13.668C139.741 13.668 141.197 12.226 141.197 10.168C141.197 8.096 139.741 6.654 137.655 6.654ZM137.655 12.002C136.633 12.002 135.933 11.246 135.933 10.168C135.933 9.076 136.633 8.32 137.655 8.32C138.663 8.32 139.363 9.076 139.363 10.168C139.363 11.246 138.663 12.002 137.655 12.002ZM147.429 6.822V7.186C146.911 6.85 146.253 6.654 145.511 6.654C143.663 6.654 142.179 7.998 142.179 10C142.179 11.722 143.663 13.22 145.511 13.22C146.253 13.22 146.911 13.024 147.429 12.688V13.542C147.429 14.634 146.743 15.222 145.847 15.222C144.895 15.222 144.307 14.732 144.223 14.018H142.361C142.501 15.698 143.929 16.888 145.847 16.888C147.835 16.888 149.263 15.628 149.263 13.542V6.822H147.429ZM145.791 11.638C144.741 11.638 144.013 10.784 144.013 10C144.013 8.936 144.741 8.236 145.791 8.236C146.393 8.236 146.995 8.446 147.429 9.076V10.798C146.995 11.428 146.393 11.638 145.791 11.638ZM151.032 3.56V13.5H152.866V3.56H151.032ZM157.682 6.654C155.638 6.654 154.238 8.18 154.238 10.168C154.238 12.156 155.652 13.668 157.794 13.668C159.264 13.668 160.454 12.94 160.902 11.68H158.872C158.634 11.974 158.298 12.058 157.808 12.058C156.758 12.058 156.254 11.47 156.114 10.7H161.014C161.364 8.39 159.978 6.654 157.682 6.654ZM157.696 8.208C158.55 8.208 159.096 8.6 159.194 9.454H156.156C156.324 8.754 156.8 8.208 157.696 8.208Z" fill="#454649"/>
</svg>
