<svg width="156" height="24" viewBox="0 0 156 24" fill="none" xmlns="http://www.w3.org/2000/svg">
<rect width="24" height="24" transform="translate(0.5)" fill="#F5F6F8"/>
<path fill-rule="evenodd" clip-rule="evenodd" d="M15.9 2C16.1 3.1 15.6 4.2 15 5C14.4 5.8 13.3 6.5 12.2 6.4C12 5.3 12.5 4.3 13.1 3.5C13.8 2.7 14.9 2.1 15.9 2ZM19.1 19.4C19.6 18.6 19.9 18.1 20.3 17.2C17.2 16 16.7 11.6 19.8 10C18.9 8.8 17.6 8.2 16.3 8.2C15.4 8.2 14.8 8.4 14.2 8.6C13.7 8.8 13.3 8.9 12.8 8.9C12.2 8.9 11.8 8.7 11.2 8.5C10.6 8.3 10 8.1 9.30004 8.1C7.90004 8.1 6.40004 8.9 5.50004 10.4C4.20004 12.4 4.40004 16.3 6.50004 19.5C7.40004 20.7 8.40004 22 9.70004 22C10.3 22 10.6 21.8 11 21.7C11.5 21.5 12 21.3 12.8 21.3C13.7 21.3 14.1 21.5 14.6 21.7C15 21.9 15.3 22 15.9 22C17.3 22 18.3 20.5 19.1 19.4Z" stroke="#17191C" stroke-width="1.5" stroke-miterlimit="10" stroke-linecap="round" stroke-linejoin="round"/>
<path opacity="0.8" d="M39.336 13.26C38.004 13.26 37.08 12.276 37.08 10.92C37.08 9.564 38.004 8.58 39.336 8.58C40.416 8.58 41.136 9.204 41.352 10.224H43.44C43.176 8.112 41.568 6.684 39.348 6.684C36.888 6.684 35.028 8.46 35.028 10.92C35.028 13.38 36.888 15.156 39.348 15.156C41.568 15.156 43.176 13.728 43.44 11.616H41.352C41.136 12.636 40.416 13.26 39.336 13.26ZM47.4164 9.024C45.5444 9.024 44.2124 10.308 44.2124 12.096C44.2124 13.896 45.5444 15.156 47.4164 15.156C49.2884 15.156 50.6084 13.896 50.6084 12.096C50.6084 10.308 49.2884 9.024 47.4164 9.024ZM47.4164 13.536C46.6004 13.536 46.0364 12.948 46.0364 12.096C46.0364 11.256 46.6004 10.656 47.4164 10.656C48.2204 10.656 48.7844 11.256 48.7844 12.096C48.7844 12.948 48.2204 13.536 47.4164 13.536ZM55.1183 9.024C54.4943 9.024 53.9902 9.216 53.5223 9.564V9.18H51.5663V15H53.5223V11.34C53.8583 10.968 54.2303 10.788 54.5783 10.788C55.2263 10.788 55.6463 11.16 55.6463 11.988V15H57.5903V11.676C57.5903 10.02 56.5823 9.024 55.1183 9.024ZM63.2136 13.128C62.8656 13.26 62.5536 13.368 62.1816 13.368C61.6176 13.368 61.2696 13.092 61.2696 12.492V10.848H63.2496V9.18H61.2696V7.2H59.3256V9.18H58.1856V10.848H59.3256V12.552C59.3256 14.124 60.2856 15.156 61.8696 15.156C62.2056 15.156 62.8296 15.12 63.4296 14.868L63.2136 13.128ZM65.5383 8.268C66.1623 8.268 66.6783 7.8 66.6783 7.176C66.6783 6.54 66.1623 6.072 65.5383 6.072C64.9023 6.072 64.3983 6.54 64.3983 7.176C64.3983 7.8 64.9023 8.268 65.5383 8.268ZM64.5783 9.18V15H66.5223V9.18H64.5783ZM71.5597 9.024C70.9357 9.024 70.4317 9.216 69.9637 9.564V9.18H68.0077V15H69.9637V11.34C70.2997 10.968 70.6717 10.788 71.0197 10.788C71.6677 10.788 72.0877 11.16 72.0877 11.988V15H74.0317V11.676C74.0317 10.02 73.0237 9.024 71.5597 9.024ZM79.293 9.18V12.828C78.957 13.2 78.585 13.404 78.225 13.404C77.589 13.404 77.157 13.008 77.157 12.18V9.18H75.213V12.48C75.213 14.136 76.221 15.156 77.697 15.156C78.321 15.156 78.825 14.952 79.293 14.592V15H81.237V9.18H79.293ZM85.3109 9.024C83.5109 9.024 82.2749 10.32 82.2749 12.084C82.2749 13.86 83.5469 15.156 85.4549 15.156C86.8229 15.156 87.9029 14.448 88.2509 13.308H86.2829C86.1029 13.524 85.8509 13.62 85.4189 13.62C84.6269 13.62 84.2309 13.152 84.0989 12.552H88.3109C88.5989 10.488 87.3629 9.024 85.3109 9.024ZM85.3589 10.464C86.0189 10.464 86.4389 10.764 86.5469 11.436H84.1229C84.2789 10.848 84.6749 10.464 85.3589 10.464ZM99.3158 9.18L98.4998 12.504L97.4318 9.18H95.8838L94.8158 12.528L93.9998 9.18H91.9598L93.8798 15H95.6078L96.6638 11.616L97.7078 15H99.4358L101.356 9.18H99.3158ZM103.273 8.268C103.897 8.268 104.413 7.8 104.413 7.176C104.413 6.54 103.897 6.072 103.273 6.072C102.637 6.072 102.133 6.54 102.133 7.176C102.133 7.8 102.637 8.268 103.273 8.268ZM102.313 9.18V15H104.257V9.18H102.313ZM110.194 13.128C109.846 13.26 109.534 13.368 109.162 13.368C108.598 13.368 108.25 13.092 108.25 12.492V10.848H110.23V9.18H108.25V7.2H106.306V9.18H105.166V10.848H106.306V12.552C106.306 14.124 107.266 15.156 108.85 15.156C109.186 15.156 109.81 15.12 110.41 14.868L110.194 13.128ZM114.931 9.024C114.307 9.024 113.803 9.216 113.335 9.564V6.48H111.379V15H113.335V11.34C113.671 10.968 114.043 10.788 114.391 10.788C115.039 10.788 115.459 11.16 115.459 11.988V15H117.403V11.676C117.403 10.02 116.395 9.024 114.931 9.024ZM127.93 15H130.09L126.634 6.84H124.69L121.222 15H123.382L123.922 13.596H127.378L127.93 15ZM124.582 11.904L125.65 9.156L126.718 11.904H124.582ZM134.43 9.048C133.794 9.048 133.278 9.216 132.846 9.48V9.18H130.89V17.784H132.846V14.688C133.278 14.952 133.794 15.12 134.43 15.12C136.002 15.12 137.322 13.812 137.322 12.084C137.322 10.344 136.002 9.048 134.43 9.048ZM134.046 13.524C133.626 13.524 133.206 13.404 132.846 12.996V11.172C133.206 10.764 133.626 10.632 134.046 10.632C134.838 10.632 135.414 11.28 135.414 12.084C135.414 12.888 134.838 13.524 134.046 13.524ZM141.919 9.048C141.283 9.048 140.767 9.216 140.335 9.48V9.18H138.379V17.784H140.335V14.688C140.767 14.952 141.283 15.12 141.919 15.12C143.491 15.12 144.811 13.812 144.811 12.084C144.811 10.344 143.491 9.048 141.919 9.048ZM141.535 13.524C141.115 13.524 140.695 13.404 140.335 12.996V11.172C140.695 10.764 141.115 10.632 141.535 10.632C142.327 10.632 142.903 11.28 142.903 12.084C142.903 12.888 142.327 13.524 141.535 13.524ZM145.832 6.48V15H147.788V6.48H145.832ZM151.838 9.024C150.038 9.024 148.802 10.32 148.802 12.084C148.802 13.86 150.074 15.156 151.982 15.156C153.35 15.156 154.43 14.448 154.778 13.308H152.81C152.63 13.524 152.378 13.62 151.946 13.62C151.154 13.62 150.758 13.152 150.626 12.552H154.838C155.126 10.488 153.89 9.024 151.838 9.024ZM151.886 10.464C152.546 10.464 152.966 10.764 153.074 11.436H150.65C150.806 10.848 151.202 10.464 151.886 10.464Z" fill="#110000"/>
</svg>
