<svg width="21" height="25" viewBox="0 0 21 25" fill="none" xmlns="http://www.w3.org/2000/svg">
<path d="M15.273 0.512011C15.222 0.455011 13.3845 0.534511 11.7855 2.27001C10.1865 4.00401 10.4325 5.99301 10.4685 6.04401C10.5045 6.09501 12.7485 6.17451 14.181 4.15701C15.6135 2.13951 15.324 0.570511 15.273 0.512011ZM20.244 18.1115C20.172 17.9675 16.7565 16.2605 17.0745 12.9785C17.3925 9.69501 19.587 8.79501 19.6215 8.69751C19.656 8.60001 18.726 7.51251 17.7405 6.96201C17.0169 6.57389 16.2161 6.35152 15.396 6.31101C15.234 6.30651 14.6715 6.16851 13.515 6.48501C12.753 6.69351 11.0355 7.36851 10.563 7.39551C10.089 7.42251 8.67901 6.61251 7.16251 6.39801C6.19201 6.21051 5.16301 6.59451 4.42651 6.89001C3.69151 7.18401 2.29351 8.02101 1.31551 10.2455C0.337511 12.4685 0.849011 15.9905 1.21501 17.0855C1.58101 18.179 2.15251 19.9715 3.12451 21.2795C3.98851 22.7555 5.13451 23.78 5.61301 24.128C6.09151 24.476 7.44151 24.707 8.37751 24.2285C9.13051 23.7665 10.4895 23.501 11.0265 23.5205C11.562 23.54 12.618 23.7515 13.6995 24.329C14.556 24.6245 15.366 24.5015 16.1775 24.1715C16.989 23.84 18.1635 22.583 19.5345 20.0345C20.055 18.8495 20.292 18.209 20.244 18.1115Z" fill="#F5F6F8"/>
</svg>
