<svg width="22" height="22" viewBox="0 0 22 22" fill="none" xmlns="http://www.w3.org/2000/svg">
<path d="M4.67999 21.75C4.54999 21.75 4.41999 21.72 4.29999 21.65C4.06999 21.52 3.92999 21.27 3.92999 21V17.8C1.57999 15.89 0.25 13.17 0.25 10.26C0.25 4.74001 5.07 0.25 11 0.25C16.93 0.25 21.75 4.74001 21.75 10.26C21.75 15.78 16.93 20.27 11 20.27C10.03 20.27 9.07001 20.15 8.14001 19.91L5.04999 21.65C4.93999 21.72 4.80999 21.75 4.67999 21.75ZM11 1.75C5.9 1.75 1.75 5.57001 1.75 10.26C1.75 12.82 2.98001 15.22 5.14001 16.84C5.33001 16.98 5.44 17.2 5.44 17.44V19.72L7.67999 18.46C7.84999 18.36 8.06 18.34 8.25 18.39C9.14 18.64 10.07 18.77 11 18.77C16.1 18.77 20.25 14.95 20.25 10.26C20.25 5.57001 16.1 1.75 11 1.75Z" fill="#DDEFF2"/>
<path d="M6.50019 13.5C6.25019 13.5 6.00017 13.37 5.86017 13.15C5.69017 12.87 5.71017 12.52 5.92017 12.27L9.7002 7.77C9.9302 7.5 10.3102 7.42001 10.6202 7.59001L12.0702 8.36L15.3002 7.53001C15.6202 7.45001 15.9502 7.58 16.1202 7.86C16.2902 8.14 16.2702 8.49001 16.0602 8.74001L12.3002 13.24C12.0702 13.52 11.6602 13.59 11.3502 13.41L10.0602 12.66L6.66016 13.49C6.62016 13.49 6.56019 13.5 6.50019 13.5ZM10.1902 11.1C10.3202 11.1 10.4502 11.13 10.5702 11.2L11.5702 11.78L13.4302 9.55L12.1702 9.87001C11.9902 9.92001 11.8002 9.89001 11.6302 9.81001L10.4602 9.19002L8.54017 11.47L10.0002 11.11C10.0702 11.11 10.1302 11.1 10.1902 11.1Z" fill="#DDEFF2"/>
</svg>
