<svg width="18" height="22" viewBox="0 0 18 22" fill="none" xmlns="http://www.w3.org/2000/svg">
<path d="M17.0117 6V16C17.0117 20 16.0117 21 12.0117 21H6.01172C2.01172 21 1.01172 20 1.01172 16V6C1.01172 2 2.01172 1 6.01172 1H12.0117C16.0117 1 17.0117 2 17.0117 6Z" stroke="#292D32" stroke-width="1.5" stroke-linecap="round" stroke-linejoin="round"/>
<path d="M11.0117 4.5H7.01172" stroke="#292D32" stroke-width="1.5" stroke-linecap="round" stroke-linejoin="round"/>
<path d="M9.01094 18.1C9.86698 18.1 10.5609 17.406 10.5609 16.55C10.5609 15.694 9.86698 15 9.01094 15C8.1549 15 7.46094 15.694 7.46094 16.55C7.46094 17.406 8.1549 18.1 9.01094 18.1Z" stroke="#292D32" stroke-width="1.5" stroke-linecap="round" stroke-linejoin="round"/>
</svg>
