<svg width="22" height="22" viewBox="0 0 22 22" fill="none" xmlns="http://www.w3.org/2000/svg">
<path d="M0.999162 21.75C0.799162 21.75 0.609132 21.67 0.469132 21.53C0.279132 21.34 0.199181 21.06 0.269181 20.8L1.52919 16.09C0.689191 14.53 0.249162 12.77 0.249162 10.99C0.249162 5.05999 5.06916 0.23999 10.9992 0.23999C16.9292 0.23999 21.7492 5.05999 21.7492 10.99C21.7492 16.92 16.9292 21.74 10.9992 21.74C9.18916 21.74 7.41919 21.29 5.83919 20.43L1.19917 21.72C1.12917 21.74 1.06916 21.75 0.999162 21.75ZM5.93916 18.88C6.06916 18.88 6.19917 18.92 6.31917 18.98C7.72917 19.81 9.34916 20.25 10.9992 20.25C16.0992 20.25 20.2492 16.1 20.2492 11C20.2492 5.9 16.0992 1.75 10.9992 1.75C5.89916 1.75 1.74916 5.9 1.74916 11C1.74916 12.63 2.17915 14.22 2.98915 15.62C3.08915 15.79 3.11917 16 3.06917 16.19L2.06917 19.93L5.74916 18.91C5.80916 18.89 5.87916 18.88 5.93916 18.88Z" fill="#DDEFF2"/>
<path d="M13.7402 16.76C13.1202 16.76 12.4802 16.62 11.8102 16.33C11.1802 16.06 10.5502 15.7 9.94025 15.25C9.34025 14.81 8.75027 14.31 8.21027 13.77C7.67027 13.22 7.17022 12.64 6.73022 12.04C6.28022 11.41 5.92022 10.79 5.66022 10.18C5.38022 9.52 5.24023 8.87001 5.24023 8.25001C5.24023 7.81001 5.32021 7.39001 5.47021 7.00001C5.63021 6.59001 5.89022 6.22001 6.23022 5.90001C6.87022 5.27001 7.79026 5.04003 8.52026 5.39003C8.77026 5.50003 8.98026 5.68002 9.14026 5.92002L10.3002 7.55C10.4202 7.71 10.5103 7.88 10.5803 8.05C10.6603 8.25 10.7103 8.45003 10.7103 8.64003C10.7103 8.90003 10.6402 9.16003 10.5002 9.39003C10.4102 9.54003 10.2802 9.72003 10.1102 9.89003L9.98022 10.03C10.0402 10.11 10.1102 10.21 10.2202 10.33C10.4302 10.57 10.6602 10.83 10.9102 11.08C11.1602 11.32 11.4102 11.56 11.6602 11.77C11.7802 11.87 11.8803 11.95 11.9603 12L12.1002 11.86C12.2802 11.68 12.4603 11.54 12.6403 11.45C12.9703 11.24 13.4802 11.19 13.9302 11.38C14.0902 11.44 14.2502 11.53 14.4202 11.65L16.0903 12.83C16.3203 12.99 16.5002 13.21 16.6202 13.46C16.7202 13.71 16.7603 13.93 16.7603 14.16C16.7603 14.46 16.6902 14.75 16.5602 15.03C16.4302 15.29 16.2802 15.52 16.1002 15.73C15.7802 16.08 15.4103 16.34 15.0103 16.51C14.6103 16.68 14.1802 16.76 13.7402 16.76ZM7.79022 6.74C7.73022 6.74 7.53027 6.74 7.28027 6.99C7.09027 7.17 6.96024 7.36002 6.87024 7.57002C6.78024 7.78002 6.74023 8.02002 6.74023 8.26002C6.74023 8.68002 6.84022 9.13 7.04022 9.61C7.25022 10.11 7.56025 10.64 7.94025 11.17C8.33025 11.7 8.77025 12.23 9.26025 12.72C9.75025 13.2 10.2702 13.65 10.8102 14.05C11.3302 14.43 11.8603 14.73 12.3903 14.96C13.1503 15.29 13.8502 15.37 14.4202 15.13C14.6202 15.05 14.8002 14.91 14.9802 14.73C15.0702 14.63 15.1403 14.53 15.2003 14.4C15.2303 14.33 15.2502 14.25 15.2502 14.18C15.2502 14.16 15.2502 14.13 15.2202 14.07L13.5502 12.91C13.4802 12.86 13.4102 12.82 13.3502 12.8C13.3102 12.82 13.2503 12.85 13.1403 12.96L12.7603 13.34C12.4703 13.63 12.0103 13.71 11.6403 13.58L11.4603 13.5C11.2303 13.38 10.9702 13.2 10.6802 12.95C10.4002 12.71 10.1303 12.46 9.84027 12.18C9.56027 11.89 9.31025 11.62 9.07025 11.34C8.81025 11.03 8.63025 10.78 8.51025 10.57L8.40027 10.31C8.37027 10.21 8.36023 10.1 8.36023 10C8.36023 9.72001 8.46027 9.47 8.65027 9.27L9.03027 8.88002C9.14027 8.77002 9.18026 8.71002 9.20026 8.67002C9.17026 8.60002 9.13026 8.54001 9.08026 8.47001L7.91022 6.82002L7.79022 6.74Z" fill="#DDEFF2"/>
</svg>
