<svg width="573" height="571" viewBox="0 0 573 571" fill="none" xmlns="http://www.w3.org/2000/svg">
<path d="M199.408 211.021C167.966 243.726 73.5112 389.283 66.1526 393.631C66.1526 393.631 66.1526 488.829 118.76 469.819C171.367 450.809 219.588 280.018 229.883 225.571C235.309 196.824 225.089 184.337 199.408 211.021Z" fill="#D3766A"/>
<path d="M207.417 323.556L111.011 312.592C111.011 312.592 170.809 233.264 201.712 204.944C233.934 175.435 249.729 179.579 234.789 235.475C219.774 291.706 207.417 323.556 207.417 323.556Z" fill="#798DC5"/>
<path d="M211.951 271.042C213.01 273.702 213.686 276.499 213.958 279.349C210.595 274.701 208.5 269.257 207.881 263.554C209.601 265.835 210.973 268.358 211.951 271.042ZM157.801 273.216C160.454 272.155 163.245 271.479 166.089 271.21C161.451 274.577 156.012 276.671 150.313 277.286C152.591 275.562 155.116 274.191 157.801 273.216ZM172.166 310.716C173.3 308.095 174.802 305.648 176.626 303.45C176.199 306.272 175.373 309.019 174.173 311.608C173.075 314.245 171.583 316.701 169.75 318.892C170.166 316.067 170.98 313.314 172.166 310.716ZM228.731 189.93C229.214 188.908 229.697 187.904 230.255 186.901C230.916 186.836 231.582 186.836 232.243 186.901C231.797 188.257 231.295 189.558 230.738 190.859C229.622 193.491 228.125 195.945 226.297 198.143C226.715 195.304 227.535 192.539 228.731 189.93ZM117.626 303.915L119.484 304.658C122.114 305.79 124.573 307.285 126.787 309.099C123.954 308.679 121.195 307.86 118.592 306.665C117.849 306.33 117.124 305.977 116.4 305.587L117.626 303.915ZM191.956 227.336C194.58 228.462 197.032 229.95 199.24 231.759C196.407 231.352 193.647 230.539 191.046 229.343C188.419 228.216 185.966 226.72 183.761 224.902C186.609 225.311 189.381 226.131 191.993 227.336H191.956ZM198.423 227.504C198.533 227.578 198.638 227.659 198.739 227.745H198.404C198.404 227.745 198.46 227.559 198.46 227.504H198.423Z" fill="white"/>
<path d="M202.79 306.219C200.541 305.698 198.181 305.494 195.896 305.178L188.797 304.193C184.021 303.524 179.227 302.93 174.433 302.335C164.844 301.22 155.256 300.049 145.649 299.102C143.01 298.841 140.352 298.581 137.714 298.377C135.075 298.172 132.139 298.172 129.352 297.968C129.184 297.968 129.184 298.21 129.352 298.228C131.712 298.581 134.053 299.12 136.413 299.492C138.773 299.863 141.282 300.198 143.716 300.495C148.492 301.108 153.304 301.666 158.099 302.205C167.539 303.227 176.997 304.305 186.474 305.141L194.39 305.81C197.159 306.051 199.965 306.46 202.752 306.442C202.774 306.434 202.793 306.42 202.808 306.403C202.822 306.385 202.832 306.364 202.836 306.341C202.84 306.318 202.837 306.295 202.829 306.274C202.821 306.252 202.807 306.233 202.79 306.219Z" fill="#263238"/>
<path opacity="0.1" d="M160.644 318.242L207.398 323.556C207.398 323.556 219.755 291.706 234.789 235.475C241.125 211.764 241.924 197.363 238.282 190.877L160.644 318.242Z" fill="black"/>
<path d="M180.676 521.832H327.311C328.519 517.112 329.689 512.54 330.86 507.895C332.198 502.636 333.517 497.507 334.781 492.509C335.06 491.394 335.357 490.279 335.636 489.182C336.602 485.354 337.55 481.638 338.479 478.033C339.036 475.821 339.594 473.647 340.133 471.492C340.672 469.336 341.248 467.143 341.787 465.044C341.935 464.486 342.065 463.929 342.214 463.39L342.66 461.532L343.217 459.357C343.422 458.595 343.608 457.852 343.794 457.109C344.165 455.697 344.518 454.303 344.853 452.946C345.373 450.939 345.875 448.97 346.358 447.056C346.562 446.22 346.785 445.383 346.99 444.566C347.343 443.228 347.677 441.927 347.993 440.645C348.216 439.79 348.421 438.954 348.625 438.136C349.492 434.767 350.297 431.608 351.041 428.659C351.245 427.879 351.431 427.117 351.635 426.373C351.951 425.091 352.267 423.865 352.564 422.657C352.775 421.914 352.961 421.189 353.122 420.483C353.772 417.956 354.367 415.651 354.869 413.626C355.017 413.087 355.147 412.567 355.278 412.065C355.612 410.727 355.928 409.538 356.188 408.479C356.3 408.051 356.392 407.642 356.504 407.271L356.801 406.1C356.801 405.84 356.931 405.58 356.987 405.357L357.247 404.353C357.247 404.192 357.284 404.044 357.359 403.907L357.693 402.588H214.961C214.961 402.588 210.26 418.792 202.734 444.919C201.21 450.233 199.556 456.068 197.791 462.07C192.792 479.501 186.957 499.83 180.676 521.832Z" fill="#37474F"/>
<path d="M303.302 521.832H307.019C312.445 499.372 317.704 476.868 322.795 454.322C324.034 448.833 325.273 443.345 326.512 437.857L326.846 436.315C326.853 436.262 326.839 436.208 326.809 436.163C326.779 436.119 326.733 436.087 326.681 436.073C326.629 436.06 326.574 436.066 326.526 436.089C326.478 436.113 326.44 436.154 326.419 436.204C326.419 436.371 326.326 436.538 326.27 436.705C324.623 442.602 322.981 448.505 321.346 454.414C315.065 476.825 309.051 499.297 303.302 521.832Z" fill="#263238"/>
<path d="M219.588 402.606L225.888 434.197L231.054 460.064L239.843 504.141L240.754 508.657L242.259 516.183L243.429 521.832H327.329C328.519 517.093 329.708 512.54 330.86 507.895C332.198 502.636 333.517 497.507 334.781 492.509C335.06 491.394 335.357 490.279 335.636 489.182C336.602 485.354 337.55 481.638 338.479 478.033C339.036 475.821 339.594 473.647 340.133 471.492C340.672 469.336 341.248 467.143 341.787 465.044C341.935 464.486 342.065 463.929 342.214 463.39L342.66 461.532L343.217 459.357C343.422 458.595 343.608 457.852 343.794 457.109C344.165 455.697 344.518 454.303 344.853 452.946C345.373 450.939 345.875 448.97 346.358 447.056C346.581 446.201 346.785 445.383 346.99 444.566C347.343 443.228 347.677 441.927 347.993 440.645C348.216 439.79 348.421 438.954 348.625 438.136C349.492 434.767 350.297 431.608 351.041 428.659C351.245 427.879 351.431 427.117 351.635 426.373C351.951 425.091 352.267 423.865 352.564 422.657C352.775 421.914 352.961 421.189 353.122 420.483C353.772 417.956 354.367 415.651 354.869 413.626C355.017 413.087 355.147 412.567 355.278 412.065C355.612 410.727 355.928 409.538 356.188 408.479C356.3 408.051 356.392 407.642 356.504 407.271L356.801 406.1C356.801 405.84 356.931 405.58 356.987 405.357L357.247 404.353C357.247 404.192 357.284 404.044 357.359 403.907L357.693 402.588L219.588 402.606Z" fill="#263238"/>
<path d="M219.57 402.551C219.57 403.331 220.164 411.842 221.539 424.85C221.929 428.566 222.394 432.803 222.933 437.263C223.769 444.306 224.791 452.129 226.092 460.286C228.285 474.614 231.146 490.241 234.863 505.516C236.182 511.091 237.632 516.461 239.174 521.794H423.419C421.245 493.716 419.257 468.314 417.677 448.301C415.466 420.13 413.961 402.495 413.961 402.495H246.83L219.57 402.551Z" fill="#37474F"/>
<path d="M219.96 419.479C220.164 426.076 220.443 432.654 220.87 439.214C221.316 446.331 221.967 453.429 222.896 460.528C222.896 460.788 222.896 461.048 222.989 461.308C223.856 467.961 224.853 474.595 225.981 481.21C227.04 487.379 227.839 494.032 230.552 499.793C231.583 502.002 233.049 503.98 234.863 505.609C236.523 507.127 238.555 508.179 240.754 508.656C241.114 508.747 241.48 508.809 241.85 508.842H242.166C242.098 508.881 242.043 508.938 242.007 509.007C241.971 509.077 241.955 509.155 241.962 509.232C241.962 511.444 241.962 513.692 242.222 515.885C242.222 515.978 242.222 516.071 242.222 516.164C242.445 518.022 242.798 519.973 243.151 521.869H246.31V521.757C245.752 519.676 245.288 517.576 244.768 515.476C244.247 513.376 243.504 511.239 243.002 509.065C242.974 508.984 242.923 508.912 242.854 508.861C244.859 508.957 246.845 508.437 248.546 507.371C250.247 506.304 251.581 504.743 252.368 502.896C253.161 500.07 253.212 497.088 252.516 494.236C251.94 490.52 251.383 486.692 250.807 482.92C249.729 475.988 248.335 469.131 247.09 462.237L246.533 459.097C244.061 445.067 241.478 431.037 238.375 417.138C238.264 416.562 238.134 415.985 238.004 415.409C237.873 414.833 237.297 415.131 237.335 415.502C237.427 416.431 237.52 417.361 237.632 418.308C238.177 423.648 238.796 428.962 239.49 434.252C240.382 440.477 240.995 446.739 241.869 452.965C242.166 455.083 242.463 457.201 242.779 459.32C244.21 469.559 245.697 479.761 247.443 489.999C248.261 494.738 251.16 503.23 244.396 504.698C242.833 505.045 241.199 504.841 239.769 504.122C236.757 502.307 234.506 499.462 233.432 496.113C231.759 490.536 230.547 484.83 229.809 479.054C228.694 472.86 227.703 466.61 226.835 460.305C225.72 452.488 224.556 444.677 223.342 436.872C222.735 432.896 222.115 428.919 221.484 424.942L220.592 419.367C220.573 418.977 219.96 419.089 219.96 419.479Z" fill="#263238"/>
<path d="M383.003 468.462C375.33 468.383 367.696 467.353 360.276 465.396C356.857 464.523 353.475 463.427 350.112 462.33C346.779 461.411 343.66 459.845 340.932 457.722C335.766 453.262 333.369 446.256 331.12 440.013C328.679 432.982 326.699 425.8 325.192 418.513C325.192 418.16 324.598 418.29 324.579 418.624C324.401 426.866 325.447 435.088 327.682 443.023C329.541 449.768 332.031 457.276 337.475 461.996C342.92 466.716 350.966 468.722 358.306 469.614C366.537 470.572 374.857 470.46 383.058 469.28C383.167 469.273 383.268 469.222 383.339 469.141C383.411 469.059 383.447 468.952 383.439 468.843C383.432 468.735 383.382 468.634 383.3 468.562C383.218 468.491 383.111 468.455 383.003 468.462Z" fill="#263238"/>
<path d="M395.806 418.736C396.215 429.043 396.648 439.362 397.107 449.694C398.16 473.74 399.318 497.786 400.582 521.831H404.038C402.452 497.736 400.786 473.653 399.039 449.583C398.284 439.288 397.503 428.999 396.698 418.717C396.696 418.599 396.646 418.486 396.561 418.404C396.475 418.323 396.361 418.278 396.243 418.28C396.124 418.283 396.012 418.332 395.93 418.418C395.848 418.503 395.804 418.617 395.806 418.736Z" fill="#263238"/>
<path d="M187.85 478.869L437.803 459.915C437.803 459.915 387.519 260.618 288.232 187.347C262.849 168.635 235.068 180.639 222.562 194.631C190.786 230.273 187.106 478.07 187.85 478.869Z" fill="#798DC5"/>
<path d="M276.673 196.415C277.722 199.071 278.398 201.861 278.68 204.703C276.969 202.433 275.593 199.93 274.592 197.27C273.543 194.613 272.868 191.824 272.585 188.982C274.289 191.256 275.665 193.758 276.673 196.415ZM303.804 303.933C304.872 306.589 305.542 309.388 305.792 312.24C302.445 307.585 300.358 302.144 299.734 296.444C301.44 298.734 302.811 301.256 303.804 303.933ZM393.111 350.036C394.169 352.697 394.844 355.493 395.118 358.343C391.755 353.695 389.661 348.251 389.042 342.548C390.733 344.847 392.103 347.366 393.111 350.036ZM321.03 417.955C322.109 420.602 322.785 423.396 323.037 426.243C319.689 421.589 317.602 416.147 316.979 410.448C318.683 412.743 320.047 415.271 321.03 417.955ZM211.951 271.005C213.01 273.665 213.686 276.461 213.958 279.311C210.594 274.664 208.5 269.22 207.881 263.516C209.604 265.809 210.976 268.345 211.951 271.042V271.005ZM256.437 406.193C257.518 408.84 258.2 411.633 258.463 414.48C256.754 412.212 255.383 409.709 254.393 407.047C253.336 404.394 252.66 401.603 252.386 398.76C254.089 401.028 255.453 403.532 256.437 406.193ZM346.506 265.951C347.566 268.604 348.242 271.394 348.513 274.238C345.145 269.595 343.056 264.148 342.455 258.443C344.167 260.733 345.532 263.263 346.506 265.951ZM246.644 230.272C249.294 229.202 252.086 228.526 254.932 228.265C252.66 229.963 250.157 231.327 247.499 232.316C244.844 233.391 242.045 234.067 239.193 234.323C241.468 232.62 243.978 231.256 246.644 230.272ZM218.324 319.858C220.976 318.792 223.767 318.116 226.612 317.851C224.345 319.557 221.841 320.922 219.179 321.902C216.529 322.975 213.737 323.657 210.891 323.928C213.162 322.242 215.666 320.896 218.324 319.933V319.858ZM210.724 426.931C213.377 425.871 216.168 425.195 219.012 424.924C216.746 426.635 214.242 428.006 211.579 428.993C208.924 430.049 206.134 430.724 203.291 431C205.57 429.328 208.072 427.983 210.724 427.005V426.931ZM388.652 418.123C391.304 417.061 394.095 416.385 396.939 416.116C392.301 419.483 386.862 421.578 381.163 422.192C383.455 420.509 385.977 419.164 388.652 418.197V418.123ZM324.338 349.367C326.99 348.302 329.781 347.62 332.625 347.342C330.355 349.052 327.852 350.428 325.192 351.43C322.536 352.479 319.747 353.154 316.905 353.437C319.179 351.752 321.681 350.4 324.338 349.423V349.367ZM228.731 189.874C228.991 189.316 229.251 188.777 229.53 188.239C230.44 187.551 231.388 186.882 232.41 186.232C231.95 187.789 231.391 189.316 230.738 190.803C229.621 193.435 228.125 195.889 226.296 198.087C226.72 195.267 227.539 192.521 228.731 189.93V189.874ZM301.778 247.665C302.899 245.035 304.395 242.582 306.22 240.381C305.326 246.049 302.955 251.382 299.344 255.842C299.753 253.012 300.573 250.258 301.778 247.665ZM237.279 467.552C238.399 464.926 239.889 462.473 241.701 460.268C241.29 463.094 240.476 465.848 239.285 468.444C238.226 470.888 236.859 473.186 235.216 475.282H234.919C235.347 472.61 236.141 470.008 237.279 467.552ZM261.008 338.051C262.139 335.426 263.634 332.973 265.45 330.766C264.526 336.422 262.165 341.746 258.593 346.227C259.004 343.4 259.817 340.647 261.008 338.051ZM431.261 436.798C431.373 437.188 431.484 437.578 431.614 437.95C431.373 438.21 431.15 438.489 430.927 438.749C431.001 438.111 431.113 437.478 431.261 436.854V436.798ZM356.931 387.22C358.059 384.599 359.555 382.153 361.372 379.954C360.474 385.615 358.103 390.941 354.497 395.396C354.94 392.585 355.778 389.852 356.987 387.276L356.931 387.22ZM340.987 458.762C342.115 456.136 343.61 453.683 345.429 451.478C344.508 457.144 342.14 462.476 338.553 466.957C338.99 464.145 339.829 461.411 341.043 458.837L340.987 458.762ZM215.983 372.688C218.607 373.82 221.059 375.315 223.267 377.13C220.44 376.712 217.687 375.892 215.091 374.695C212.456 373.574 209.996 372.078 207.788 370.254C210.645 370.679 213.424 371.518 216.039 372.744L215.983 372.688ZM413.143 383.541L414.091 386.105C412.087 385.138 410.214 383.92 408.516 382.481C410.112 382.69 411.681 383.064 413.199 383.596L413.143 383.541ZM285.705 445.457C288.332 446.576 290.785 448.065 292.989 449.88C290.157 449.466 287.398 448.653 284.794 447.464C282.169 446.326 279.717 444.825 277.51 443.005C280.369 443.426 283.15 444.271 285.76 445.513L285.705 445.457ZM399.671 462.033L400.953 462.646L396.586 462.981C394.761 462.059 393.052 460.924 391.495 459.599C394.343 460.034 397.115 460.873 399.727 462.089L399.671 462.033ZM355.891 309.229C358.508 310.373 360.959 311.867 363.175 313.67C357.511 312.756 352.179 310.394 347.696 306.813C350.551 307.232 353.331 308.065 355.946 309.285L355.891 309.229ZM291.818 380.4C294.445 381.534 296.898 383.036 299.103 384.86C293.434 383.95 288.099 381.58 283.623 377.984C286.477 378.411 289.256 379.243 291.874 380.456L291.818 380.4ZM258.37 282.563C260.99 283.702 263.441 285.197 265.654 287.005C259.991 286.106 254.661 283.743 250.193 280.148C253.06 280.569 255.852 281.401 258.481 282.619L258.37 282.563Z" fill="white"/>
<path d="M236.721 236.274C251.141 234.137 265.784 205.037 268.312 185.191C268.479 183.816 246.013 140.946 242.5 132.008C241.776 130.15 191.677 167.984 191.677 167.984C191.677 167.984 204.685 184.559 210.762 200.224C211.189 201.525 222.784 238.318 236.721 236.274Z" fill="#D3766A"/>
<path d="M191.603 167.984C191.603 167.984 204.611 184.559 210.706 200.206C210.817 200.522 211.56 202.826 212.787 206.115C238.542 193.107 249.041 169.879 253.278 154.549C248.41 144.793 243.875 135.632 242.426 132.008C241.701 130.168 191.603 167.984 191.603 167.984Z" fill="#263238"/>
<path d="M230.924 62.3794C245.585 79.3452 260.247 140.537 251.866 159.343C239.694 186.585 207.268 202.956 181.03 185.544C155.516 168.653 137.825 88.5621 148.362 70.2026C163.859 43.1465 209.294 37.3302 230.924 62.3794Z" fill="#D3766A"/>
<path d="M191.752 112.088C193.61 112.236 195.468 112.088 197.326 112.088C199.299 112.356 201.305 111.964 203.031 110.973C203.513 110.554 203.843 109.989 203.971 109.364C204.098 108.739 204.016 108.09 203.737 107.516C203.012 106.468 202.019 105.633 200.863 105.098C199.706 104.562 198.428 104.345 197.159 104.469C194.553 104.315 191.983 105.137 189.949 106.773C189.519 107.178 189.214 107.699 189.071 108.273C188.928 108.847 188.953 109.449 189.143 110.01C189.333 110.57 189.68 111.063 190.142 111.432C190.605 111.8 191.163 112.028 191.752 112.088Z" fill="#263238"/>
<path d="M193.387 121.063C193.387 120.895 193.758 121.193 193.796 121.379C194.483 125.56 195.988 130.242 200.021 130.874C200.151 130.874 200.188 131.097 200.021 131.116C195.319 131.376 193.387 125.151 193.387 121.063Z" fill="#263238"/>
<path d="M196.249 115.971C202.845 114.113 206.041 127.474 199.965 129.165C193.889 130.856 190.73 117.514 196.249 115.971Z" fill="#263238"/>
<path d="M169.416 126.21C169.416 126.062 169.137 126.489 169.174 126.656C170.289 130.744 170.884 135.632 167.483 137.806C167.371 137.806 167.483 138.085 167.576 138.029C171.98 136.394 171.125 129.927 169.416 126.21Z" fill="#263238"/>
<path d="M164.695 122.791C157.931 123.869 160.589 137.304 166.851 136.301C173.113 135.297 170.363 121.881 164.695 122.791Z" fill="#263238"/>
<path d="M157.839 116.176C159.546 115.382 161.209 114.495 162.819 113.519C164.707 112.821 166.31 111.513 167.371 109.802C167.604 109.204 167.632 108.546 167.45 107.93C167.269 107.315 166.888 106.777 166.368 106.401C164.082 104.915 161.444 105.602 159.102 106.755C156.715 107.842 154.815 109.775 153.769 112.181C153.549 112.746 153.5 113.364 153.628 113.957C153.756 114.551 154.055 115.094 154.488 115.519C154.921 115.944 155.469 116.233 156.065 116.35C156.66 116.466 157.277 116.406 157.839 116.176Z" fill="#263238"/>
<path d="M207.212 156.834C206.469 158.042 205.8 159.603 204.332 160.086C202.783 160.42 201.18 160.42 199.631 160.086C199.599 160.083 199.568 160.09 199.541 160.106C199.514 160.122 199.493 160.146 199.48 160.175C199.468 160.204 199.465 160.236 199.472 160.267C199.479 160.298 199.495 160.325 199.519 160.346C200.301 161.014 201.25 161.459 202.264 161.632C203.278 161.806 204.32 161.701 205.28 161.331C206.071 160.914 206.72 160.27 207.144 159.483C207.568 158.695 207.747 157.798 207.658 156.908C207.658 156.667 207.324 156.648 207.212 156.834Z" fill="#263238"/>
<path d="M199.928 145.518C199.265 147.4 198.222 149.125 196.863 150.586C195.504 152.047 193.859 153.213 192.031 154.01C190.441 154.727 188.758 155.215 187.032 155.46C186.709 155.532 186.378 155.57 186.047 155.571C185.731 155.591 185.415 155.591 185.099 155.571C184.87 155.585 184.642 155.521 184.453 155.39C184.264 155.258 184.125 155.067 184.059 154.846C184.05 154.698 184.05 154.549 184.059 154.4V154.029C183.222 150.87 182.368 145.964 182.368 145.964C181.346 146.819 176.068 150.907 175.752 149.216C173.281 135.279 170.549 119.781 171.032 105.38C171.032 105.276 171.073 105.177 171.147 105.104C171.22 105.031 171.319 104.99 171.423 104.99C171.526 104.99 171.625 105.031 171.699 105.104C171.772 105.177 171.813 105.276 171.813 105.38C174.712 118.685 175.251 132.417 177.964 145.834C179.781 144.341 181.802 143.114 183.966 142.192C184.449 142.192 185.434 151.706 185.935 153.081C185.931 153.13 185.931 153.18 185.935 153.23C191.51 152.635 195.078 150.052 199.408 145.239C199.687 144.923 200.095 145.128 199.928 145.518Z" fill="#263238"/>
<path d="M188.518 153.396C190.808 155.244 193.534 156.472 196.434 156.964C198.022 157.185 199.64 156.906 201.061 156.165C204.146 154.511 203.514 151.464 202.288 149.011C201.62 147.718 200.803 146.508 199.853 145.406C197.026 149.212 193.053 152.013 188.518 153.396Z" fill="#263238"/>
<path d="M196.434 156.965C198.022 157.186 199.64 156.906 201.061 156.165C204.146 154.512 203.514 151.464 202.288 149.011C198.831 150.219 195.914 153.471 196.434 156.965Z" fill="#FF97B8"/>
<path d="M142.75 94.0252C168.765 104.915 195.078 74.7924 195.078 74.7924C198.059 79.364 202.437 82.8503 207.56 84.7322C212.683 86.614 218.277 86.7906 223.509 85.2357C223.509 85.2357 235.996 122.902 246.18 120.635C261.659 117.328 255.471 63.6986 248.465 54.3702C241.46 45.0418 227.709 45.079 227.709 45.079C227.709 45.079 225.089 37.2557 213.976 31.9225C201.712 26.0133 167.52 44.5401 167.52 44.5401C164.416 40.0892 160.311 36.4294 155.534 33.8551C154.381 33.2071 153.108 32.7998 151.793 32.6581C150.478 32.5163 149.148 32.643 147.883 33.0304C146.618 33.4179 145.445 34.058 144.435 34.912C143.425 35.7661 142.599 36.8163 142.006 37.999C144.544 40.4409 146.495 43.4272 147.711 46.7328C151.892 57.6593 142.657 59.5733 140.594 49.2972C139.698 45.4835 140.199 41.4748 142.006 37.999C136.06 32.2385 128.162 31.6066 124.39 36.1408C117.459 44.4472 121.101 84.9941 142.75 94.0252Z" fill="#263238"/>
<path d="M206.562 141.745C209.763 140.719 212.612 138.814 214.783 136.249C216.955 133.683 218.363 130.559 218.846 127.232C219.329 123.905 218.868 120.51 217.516 117.432C216.164 114.354 213.975 111.718 211.199 109.824C208.422 107.929 205.169 106.852 201.81 106.716C198.451 106.579 195.122 107.389 192.2 109.052C189.279 110.715 186.883 113.165 185.286 116.123C183.689 119.081 182.955 122.428 183.167 125.783C183.342 128.507 184.136 131.156 185.489 133.528C186.841 135.899 188.716 137.931 190.971 139.47C193.226 141.009 195.802 142.013 198.504 142.408C201.205 142.802 203.961 142.575 206.562 141.745ZM196.304 109.876C197.51 109.486 198.757 109.243 200.021 109.152C203.982 108.871 207.9 110.111 210.978 112.621C214.055 115.13 216.059 118.719 216.58 122.656C217.102 126.592 216.102 130.579 213.784 133.803C211.466 137.027 208.006 139.246 204.108 140.006C200.211 140.766 196.171 140.01 192.812 137.893C189.452 135.776 187.028 132.456 186.032 128.612C185.036 124.769 185.545 120.69 187.454 117.208C189.363 113.726 192.528 111.104 196.304 109.876Z" fill="#798DC5"/>
<path d="M166.963 149.253C173.392 146.837 176.737 138.103 174.396 128.979C173.398 124.614 171.051 120.674 167.687 117.718C166.328 116.348 164.637 115.355 162.78 114.834C160.922 114.314 158.961 114.284 157.088 114.749C155.216 115.213 153.495 116.156 152.096 117.484C150.697 118.812 149.666 120.481 149.105 122.327C147.53 126.519 147.303 131.099 148.454 135.427C150.833 145.016 158.582 151.39 165.736 149.606C166.155 149.525 166.565 149.407 166.963 149.253ZM156.909 117.384L157.783 117.123C159.284 116.82 160.836 116.883 162.308 117.307C163.78 117.731 165.128 118.503 166.238 119.558C169.206 122.192 171.278 125.687 172.166 129.555C174.228 137.88 171.162 145.833 165.272 147.283C159.381 148.732 152.951 143.157 150.889 134.851C149.854 131.017 150.049 126.955 151.446 123.237C151.895 121.933 152.613 120.737 153.555 119.729C154.496 118.72 155.639 117.921 156.909 117.384Z" fill="#798DC5"/>
<path d="M184.151 127.715L185.303 125.615C182.2 123.887 175.436 122.103 172.036 127.474L174.08 128.737C177.109 123.924 183.873 127.548 184.151 127.715Z" fill="#798DC5"/>
<path d="M263.461 116.752L265.32 115.265C264.613 114.392 258.351 106.717 252.944 106.903C247.871 107.089 216.912 116.194 215.593 116.659L216.28 118.963C225.163 116.324 249.097 109.43 253.018 109.3C256.623 109.17 261.77 114.633 263.461 116.752Z" fill="#798DC5"/>
<path d="M239.546 117.142C239.546 117.142 244.545 93.2075 254.876 94.2296C265.208 95.2516 266.955 126.043 258.686 133.903C257.698 134.984 256.502 135.853 255.17 136.46C253.837 137.066 252.396 137.396 250.933 137.431C249.469 137.466 248.014 137.204 246.654 136.662C245.294 136.119 244.058 135.307 243.021 134.275L239.546 117.142Z" fill="#D3766A"/>
<path d="M255.155 103.075C255.304 102.982 255.434 103.187 255.322 103.317C249.617 109.04 248.744 116.975 249.023 124.668C249.989 121.249 252.182 118.647 256.641 119.632C256.864 119.632 256.809 120.022 256.641 120.078C255.266 120.205 253.964 120.759 252.918 121.662C251.872 122.565 251.134 123.772 250.807 125.114C250.262 127.355 249.957 129.647 249.896 131.952C249.896 132.714 248.595 132.863 248.521 131.952C248.53 131.891 248.53 131.828 248.521 131.767C244.544 123.181 246.105 107.981 255.155 103.075Z" fill="#263238"/>
<path d="M112.144 285.128C107.443 272.752 -1.56204 295.162 2.78627 314.135C18.7486 383.634 63.2351 445.736 74.4775 459.933C89.232 478.516 118.592 474.39 129.296 463.129C144.812 446.795 116.79 297.392 112.144 285.128Z" fill="#D3766A"/>
<path d="M119.819 319.245C122.242 325.906 124.161 332.738 125.561 339.686C127.14 346.562 128.515 353.474 129.63 360.424C131.834 374.483 133.076 388.676 133.347 402.904C133.551 410.857 133.347 418.792 133.347 426.745C133.347 426.931 133.05 426.912 133.05 426.745C133.05 419.702 132.622 412.604 132.046 405.58C131.47 398.555 130.764 391.401 129.853 384.358C128.088 370.514 126.137 356.689 123.628 342.957C122.934 339.104 122.21 335.263 121.454 331.435C120.655 327.459 119.745 323.501 119.224 319.468C119.224 319.171 119.689 318.911 119.819 319.245Z" fill="#263238"/>
<path d="M138.438 89.2497C139.156 98.7131 140.572 108.11 142.675 117.365C143.028 118.944 143.419 120.561 143.809 122.159C145.37 128.514 147.228 134.907 149.384 141.058C149.879 142.544 150.399 144.012 150.944 145.462C157.541 163.282 166.256 178.613 176.068 185.117C178.56 186.788 181.204 188.219 183.966 189.391C198.031 181.188 209.777 169.54 218.099 155.545C226.421 141.55 231.046 125.668 231.537 109.393L234.51 108.575C234.045 107.851 233.562 107.107 233.098 106.327C232.633 105.547 232.057 104.562 231.555 103.633C230.811 79.7081 221.147 56.9269 204.462 39.7645C181.104 33.4836 153.137 42.459 141.374 62.9555C138.513 68.0285 137.639 77.5799 138.438 89.2497Z" fill="#D3766A"/>
<path d="M187.403 107.312C189.378 107.414 191.357 107.414 193.331 107.312C195.617 107.312 197.438 107.479 199.389 106.123C199.914 105.678 200.274 105.069 200.409 104.394C200.544 103.719 200.446 103.019 200.132 102.406C198.701 99.879 195.914 99.2286 193.164 99.1728C190.404 99.0094 187.682 99.877 185.526 101.607C185.049 102.031 184.705 102.585 184.539 103.202C184.372 103.818 184.39 104.47 184.589 105.077C184.789 105.683 185.162 106.218 185.662 106.615C186.162 107.013 186.767 107.255 187.403 107.312Z" fill="#263238"/>
<path d="M189.131 116.919C189.131 116.752 189.522 117.068 189.559 117.235C190.284 121.676 191.882 126.638 196.156 127.307C196.286 127.307 196.323 127.548 196.156 127.567C191.176 127.753 189.131 121.156 189.131 116.919Z" fill="#263238"/>
<path d="M192.16 111.437C199.147 109.486 202.529 123.609 196.063 125.411C189.596 127.214 186.307 113.073 192.16 111.437Z" fill="#263238"/>
<path d="M163.729 122.271C163.729 122.122 163.432 122.568 163.488 122.754C164.677 127.084 165.346 132.25 161.629 134.647C161.518 134.647 161.629 134.944 161.722 134.888C166.442 133.049 165.55 126.21 163.729 122.271Z" fill="#263238"/>
<path d="M158.731 118.647C151.576 119.799 154.401 134.033 161.035 132.974C167.669 131.915 164.733 117.681 158.731 118.647Z" fill="#263238"/>
<path d="M151.483 111.642C153.342 110.843 154.958 109.784 156.742 108.836C158.734 108.105 160.431 106.74 161.574 104.952C161.818 104.321 161.846 103.627 161.654 102.979C161.463 102.33 161.062 101.763 160.515 101.366C158.08 99.7862 155.293 100.511 152.821 101.737C150.317 102.896 148.33 104.941 147.247 107.479C147.036 108.068 146.998 108.704 147.137 109.313C147.277 109.922 147.587 110.478 148.033 110.916C148.479 111.354 149.041 111.655 149.652 111.784C150.264 111.912 150.899 111.863 151.483 111.642Z" fill="#263238"/>
<path d="M203.774 154.716C202.975 155.98 202.269 157.633 200.708 158.154C199.074 158.516 197.381 158.516 195.747 158.154C195.714 158.153 195.682 158.161 195.654 158.178C195.626 158.195 195.604 158.22 195.59 158.25C195.576 158.28 195.571 158.313 195.576 158.345C195.581 158.378 195.595 158.408 195.617 158.432C196.446 159.142 197.453 159.614 198.53 159.797C199.606 159.981 200.712 159.869 201.73 159.473C202.565 159.029 203.249 158.346 203.696 157.513C204.142 156.679 204.331 155.732 204.239 154.79C204.258 154.53 203.904 154.53 203.774 154.716Z" fill="#263238"/>
<path d="M196.044 142.712C195.351 144.708 194.252 146.54 192.816 148.091C191.38 149.642 189.638 150.879 187.701 151.724C186.018 152.483 184.234 152.997 182.405 153.248C182.057 153.327 181.702 153.37 181.345 153.378C181.017 153.399 180.689 153.399 180.361 153.378C180.116 153.394 179.874 153.327 179.672 153.189C179.47 153.051 179.32 152.849 179.246 152.616C179.226 152.468 179.226 152.318 179.246 152.17V151.78C178.354 148.435 177.387 143.232 177.387 143.232C176.31 144.142 170.716 148.472 170.4 146.688C167.78 131.822 164.826 115.488 165.383 100.232C165.383 100.124 165.426 100.02 165.503 99.943C165.579 99.8663 165.684 99.8232 165.792 99.8232C165.9 99.8232 166.004 99.8663 166.081 99.943C166.158 100.02 166.201 100.124 166.201 100.232C169.285 114.318 169.917 128.868 172.723 142.972C174.713 141.434 176.908 140.183 179.246 139.255C179.747 139.255 180.807 149.327 181.327 150.795C181.319 150.844 181.319 150.894 181.327 150.944C187.143 150.312 191.008 147.599 195.58 142.47C195.803 142.098 196.23 142.303 196.044 142.712Z" fill="#263238"/>
<path d="M183.965 151.074C186.393 153.014 189.279 154.294 192.346 154.79C194.025 155.031 195.736 154.732 197.233 153.936C200.522 152.189 199.835 148.955 198.534 146.372C197.833 145 196.972 143.715 195.97 142.544C192.982 146.597 188.775 149.586 183.965 151.074Z" fill="#263238"/>
<path d="M192.365 154.846C194.043 155.087 195.755 154.787 197.252 153.991C200.541 152.244 199.854 149.011 198.553 146.428C194.911 147.71 191.807 151.129 192.365 154.846Z" fill="#FF97B8"/>
<path d="M135.502 88.1905C136.487 88.5993 137.472 88.9524 138.438 89.2497C165.049 97.5003 190.934 67.8055 190.934 67.8055C194.077 72.6629 198.707 76.3734 204.133 78.3828C209.559 80.3923 215.489 80.593 221.038 78.955C223.923 87.4581 227.458 95.7269 231.611 103.688C231.111 87.8868 226.718 72.4532 218.821 58.7573C210.924 45.0614 199.769 33.5268 186.344 25.1773C177.868 28.1516 169.62 31.7414 161.667 35.9179C158.372 31.2042 154.019 27.3283 148.956 24.6012C147.736 23.9139 146.39 23.4813 144.998 23.3295C143.606 23.1778 142.197 23.31 140.858 23.7182C139.519 24.1265 138.276 24.8022 137.205 25.7046C136.135 26.607 135.258 27.7172 134.629 28.9681C137.311 31.575 139.375 34.7499 140.668 38.2593C145.091 49.8176 135.317 51.8431 133.142 40.9724C132.182 36.9283 132.71 32.6736 134.629 28.9867C128.33 22.9102 119.968 22.2412 116.047 27.1284C108.725 35.7135 112.553 78.6205 135.502 88.1905Z" fill="#263238"/>
<path d="M185.136 106.03C188.229 103.453 192.063 101.929 196.081 101.681C197.29 101.603 198.504 101.647 199.705 101.811C202.717 102.201 205.591 103.307 208.087 105.037C210.584 106.766 212.628 109.07 214.051 111.753C214.461 112.503 214.809 113.287 215.091 114.094C215.737 115.811 216.119 117.615 216.225 119.446C216.484 123.663 215.334 127.847 212.956 131.338C210.578 134.83 207.106 137.432 203.087 138.735C201.578 139.209 200.019 139.502 198.441 139.608H197.252C192.696 139.617 188.289 137.993 184.828 135.03C181.368 132.067 179.084 127.962 178.391 123.46C178.391 122.921 178.261 122.382 178.223 121.825C178.186 121.267 178.223 121.007 178.223 120.617C178.23 117.826 178.852 115.072 180.048 112.55C181.243 110.028 182.98 107.802 185.136 106.03ZM198.293 137.062C202.288 136.807 206.053 135.104 208.884 132.273C211.714 129.442 213.416 125.676 213.671 121.681C213.926 117.686 212.717 113.735 210.27 110.566C207.822 107.398 204.304 105.231 200.374 104.469C199.009 104.204 197.617 104.117 196.23 104.209C194.866 104.298 193.518 104.553 192.216 104.97C190.557 105.504 188.995 106.301 187.589 107.33C184.701 109.422 182.57 112.395 181.519 115.802C180.468 119.21 180.552 122.866 181.76 126.221C182.968 129.577 185.234 132.448 188.215 134.404C191.197 136.359 194.734 137.292 198.293 137.062Z" fill="#798DC5"/>
<path d="M142.341 118.164L142.675 117.365C143.813 114.752 145.77 112.58 148.25 111.177C149.051 110.732 149.907 110.394 150.796 110.173C152.091 109.858 153.432 109.783 154.754 109.95C157.448 110.327 159.974 111.483 162.02 113.277C163.556 114.585 164.885 116.121 165.959 117.829C166.778 119.095 167.469 120.44 168.022 121.843C168.401 122.748 168.711 123.679 168.951 124.63C169.018 124.819 169.074 125.012 169.118 125.207C170.22 129.42 170.104 133.86 168.784 138.01C168.233 139.932 167.262 141.708 165.942 143.208C164.621 144.709 162.983 145.898 161.146 146.688C160.756 146.837 160.366 146.948 159.957 147.06C158.418 147.409 156.825 147.447 155.271 147.173C153.717 146.899 152.233 146.317 150.907 145.461C146.175 142.368 142.84 137.546 141.616 132.026C140.403 127.443 140.657 122.595 142.341 118.164ZM144.199 131.413C145.044 135.038 146.848 138.368 149.421 141.057C150.632 142.469 152.193 143.539 153.948 144.158C155.702 144.778 157.588 144.926 159.418 144.588C165.662 143.046 168.914 134.628 166.721 125.82C165.784 121.725 163.595 118.023 160.459 115.228C159.278 114.111 157.847 113.294 156.285 112.844C154.724 112.395 153.077 112.327 151.483 112.645C151.174 112.718 150.87 112.811 150.573 112.924C149.227 113.497 148.017 114.346 147.018 115.414C146.02 116.483 145.256 117.749 144.775 119.13C144.378 120.108 144.079 121.122 143.883 122.159C143.29 125.225 143.372 128.383 144.125 131.413H144.199Z" fill="#798DC5"/>
<path d="M179.357 123.869L180.565 121.639C177.276 119.781 170.103 117.923 166.516 123.683L168.672 125.021C171.887 119.855 179.041 123.702 179.357 123.869Z" fill="#798DC5"/>
<path d="M212.676 112.162L213.4 114.596L215.091 114.094C219.272 112.868 225.442 111.084 231.592 109.374L234.566 108.557C234.101 107.832 233.618 107.089 233.153 106.308L231.648 106.736C224.215 108.78 217.024 110.879 214.051 111.753L212.676 112.162Z" fill="#798DC5"/>
<g opacity="0.3">
<path d="M115.21 200.15C133.724 204.227 153.031 202.723 170.69 195.828C188.349 188.932 203.567 176.954 214.419 161.41C225.27 145.865 231.268 127.452 231.655 108.498C232.041 89.5445 226.798 70.9019 216.589 54.9281C206.38 38.9542 191.663 26.3665 174.3 18.7569C156.936 11.1474 137.707 8.85764 119.042 12.1774C100.377 15.4971 83.1161 24.2771 69.4416 37.4072C55.767 50.5372 46.2932 67.4275 42.2182 85.9419C39.5103 98.2338 39.2504 110.939 41.4533 123.331C43.6561 135.723 48.2787 147.56 55.0569 158.166C61.835 168.771 70.636 177.938 80.9573 185.141C91.2785 192.345 102.918 197.445 115.21 200.15Z" fill="white"/>
<path d="M219.885 152.56C207.744 174.723 187.345 191.199 163.124 198.405C138.902 205.611 112.815 202.966 90.5325 191.045L219.885 152.56Z" fill="#EBEBEB"/>
<path d="M217.135 55.8753L39.9698 108.594C39.8158 100.982 40.5643 93.3779 42.1997 85.9418C44.0524 77.4109 47.0858 69.1801 51.2122 61.4872L181.996 22.5569C196.366 30.4751 208.464 41.9467 217.135 55.8753Z" fill="#EBEBEB"/>
<path d="M230.96 117.736L62.2129 167.909C58.1917 163.08 54.6505 157.871 51.6395 152.355L231.332 98.875C231.85 105.158 231.726 111.478 230.96 117.736Z" fill="#EBEBEB"/>
<path d="M223.267 67.4708L41.1591 121.676C40.9732 120.524 40.806 119.372 40.6759 118.22L221.818 64.3303C222.32 65.3524 222.821 66.393 223.267 67.4708Z" fill="#EBEBEB"/>
<path d="M151.669 12.0394L70.8354 36.0851C72.9352 34.134 75.1465 32.3686 77.4322 30.5104L143.084 10.9988C145.962 11.1982 148.827 11.5455 151.669 12.0394Z" fill="#EBEBEB"/>
</g>
<path d="M102.017 318.636L77.4092 313.216L101.241 205.002L125.849 210.421L102.017 318.636Z" fill="#EBEBEB"/>
<path d="M31.7377 83.6379C36.2697 63.0572 46.8027 44.2825 62.0048 29.688C77.2069 15.0935 96.3954 5.33464 117.144 1.64547C137.892 -2.04371 159.268 0.502491 178.57 8.96211C197.871 17.4217 214.23 31.4148 225.579 49.1719C236.928 66.9289 242.756 87.6525 242.327 108.722C241.898 129.791 235.23 150.26 223.168 167.54C211.106 184.821 194.19 198.136 174.561 205.803C154.931 213.469 133.468 215.143 112.887 210.612C85.2933 204.527 61.2445 187.734 46.0275 163.924C30.8105 140.114 25.6706 111.236 31.7377 83.6379ZM115.21 200.15C133.724 204.231 153.032 202.731 170.693 195.838C188.354 188.945 203.574 176.969 214.428 161.426C225.282 145.883 231.283 127.469 231.672 108.515C232.061 89.5609 226.82 70.9171 216.613 54.9416C206.405 38.966 191.689 26.3763 174.326 18.7648C156.963 11.1533 137.733 8.86183 119.067 12.1802C100.402 15.4986 83.1393 24.2777 69.4635 37.4073C55.7878 50.537 46.3128 67.4273 42.2369 85.9422C39.5287 98.2327 39.268 110.936 41.4697 123.328C43.6714 135.719 48.2924 147.555 55.0687 158.161C61.845 168.766 70.6439 177.933 80.9631 185.137C91.2822 192.342 102.919 197.443 115.21 200.15Z" fill="#455A64"/>
<path d="M91.8522 394.783L54.6315 386.588L75.7412 290.647L112.98 298.842L91.8522 394.783Z" fill="#263238"/>
<path d="M75.6109 93.9883C75.6504 93.8794 75.6815 93.7675 75.7038 93.6538C76.1498 92.0557 75.2207 95.1962 75.5552 94.1556C75.8896 93.1149 76.3728 91.6469 76.8373 90.4391C78.4633 86.1281 80.4526 81.963 82.7837 77.9888C83.0996 77.4313 83.4527 76.8738 83.7686 76.3163C83.8801 76.1305 82.951 77.6171 83.7686 76.4464L84.419 75.443C85.2738 74.1608 86.1472 72.8972 87.0577 71.7265C89.0705 69.0071 91.2618 66.4247 93.6173 63.9962L95.3269 62.2866C96.1074 61.5247 94.4164 63.1228 95.4942 62.1379L96.5719 61.1531C97.9656 59.9452 99.3965 58.7745 100.883 57.6595C102.37 56.5446 104.135 55.3181 105.826 54.2589C106.607 53.7758 107.387 53.3112 108.186 52.8653C109.561 52.0662 107.591 53.144 108.613 52.6237L110.081 51.8804C114.521 49.6961 119.164 47.9534 123.944 46.6773H124.186L124.706 46.5658L126.843 46.1012C128.237 45.8225 129.612 45.5809 131.024 45.3765C133.975 44.9542 136.946 44.6813 139.925 44.5589C140.752 44.4649 141.553 44.209 142.281 43.8056C143.009 43.4022 143.651 42.8593 144.17 42.2079C145.217 40.8924 145.699 39.2147 145.509 37.544C145.319 35.8733 144.474 34.3464 143.158 33.2991C141.842 32.2519 140.165 31.7702 138.494 31.96C119.507 32.5474 101.351 39.8798 87.2807 52.6423C77.933 61.396 70.6247 72.0983 65.8737 83.9909C64.7863 86.6458 63.8799 89.3713 63.1606 92.1486C62.9038 93.8089 63.3147 95.5033 64.3037 96.8614C65.2926 98.2194 66.7791 99.1307 68.438 99.3958C70.0931 99.6185 71.7703 99.1941 73.1203 98.211C74.4703 97.2279 75.3891 95.7619 75.6852 94.1184L75.6109 93.9883Z" fill="white"/>
<path d="M73.0095 112.664C72.8211 113.885 72.274 115.024 71.4378 115.935C70.6016 116.845 69.5139 117.487 68.3124 117.779C67.111 118.071 65.8499 117.999 64.6891 117.574C63.5284 117.148 62.5201 116.387 61.7921 115.388C61.0641 114.389 60.6492 113.196 60.6 111.96C60.5508 110.725 60.8694 109.503 61.5156 108.449C62.1617 107.395 63.1063 106.556 64.2296 106.039C65.3528 105.523 66.6041 105.351 67.825 105.546C69.4542 105.807 70.914 106.702 71.8854 108.035C72.8569 109.369 73.261 111.033 73.0095 112.664Z" fill="white"/>
<path d="M10.1078 335.858C10.1078 335.858 -16.5023 292.115 16.6303 250.379C30.2698 233.208 62.4547 202.417 127.754 206.71C143.251 207.732 164.603 220.163 138.699 227.689C120.302 233.041 107.015 230.867 96.8695 235.921C96.8695 235.921 122.16 254.968 120.525 270.448C119.8 277.36 119.261 292.468 115.266 306.851C115.266 306.851 110.026 310.567 105.77 309.936C105.77 309.936 94.3051 343.012 53.0705 353.177L10.1078 335.858Z" fill="#D3766A"/>
<path d="M30.6227 244.767C41.289 240.511 64.0711 231.889 85.1622 231.294C108.595 230.644 153.918 235.717 154.196 253.017C154.419 265.709 136.952 265.282 136.952 265.282C136.952 265.282 155.237 271.321 152.914 282.824C150.814 293.304 137.323 292.115 137.323 292.115C137.323 292.115 147.785 297.69 143.809 307.39C139.033 319.059 117.905 305.531 102.927 313.113C99.4708 314.897 30.6227 244.767 30.6227 244.767Z" fill="#D3766A"/>
<path d="M81.7618 256.157C92.4467 253.816 118.109 254.708 136.729 264.873C137.156 265.096 137.212 265.542 136.729 265.412C118.838 260.194 100.381 257.161 81.7618 256.38C81.5946 256.38 81.5946 256.288 81.7618 256.157Z" fill="#263238"/>
<path d="M83.0627 279.795C92.5026 278.717 118.908 280.817 137.416 291.762C137.844 292.003 137.862 292.449 137.416 292.301C119.809 286.164 101.562 282.043 83.0255 280.018C82.9959 280.013 82.9695 279.996 82.9521 279.972C82.9347 279.947 82.9277 279.917 82.9326 279.888C82.9375 279.858 82.954 279.832 82.9784 279.814C83.0028 279.797 83.0331 279.79 83.0627 279.795Z" fill="#263238"/>
<path d="M45.0243 356.02C54.4837 353.775 63.6146 350.321 72.1919 345.744C80.8288 341.07 88.4723 334.758 94.6952 327.161C96.5535 324.839 98.4117 322.423 100.028 319.951C101.645 317.48 103.429 314.674 105.343 312.221C105.492 312.035 105.845 312.221 105.733 312.388C103.58 317.546 100.929 322.481 97.8171 327.124C95.0275 331.465 91.6925 335.431 87.894 338.924C80.3956 345.596 71.5103 350.521 61.8785 353.344C56.4091 354.867 50.8105 355.881 45.1543 356.373C44.8756 356.447 44.7641 356.076 45.0243 356.02Z" fill="#263238"/>
<path d="M316.273 216.038C364.141 280.315 444.028 447.836 455.772 472.476C463.744 489.201 376.35 533.241 372.652 521.088C367.895 505.516 289.756 299.957 278.811 225.013C272.827 183.928 299.716 193.795 316.273 216.038Z" fill="#D3766A"/>
<path d="M370.292 512.726C372.318 527.871 382.612 558.383 390.268 563.047C397.924 567.711 438.155 566.764 458.429 566.764C478.702 566.764 482.586 561.096 482.344 554.128C482.103 547.159 439.475 545.821 439.475 545.821C439.475 545.821 496.3 562.025 510.59 564.757C524.88 567.489 557.789 575.721 562.621 563.884C564.758 558.532 555.745 553.124 555.745 553.124C555.745 553.124 569.552 557.157 571.763 550.3C574.254 542.476 563.271 538.184 563.271 538.184C563.271 538.184 571.912 539.912 572.117 533.538C572.488 519.23 518.45 512.243 518.45 512.243C518.45 512.243 559.815 532.386 561.19 520.754C563.048 504.68 478.238 487.045 469.411 480.039C462.989 474.686 456.982 468.853 451.442 462.59L370.292 512.726Z" fill="#D3766A"/>
<path d="M482.047 557.584C482.19 556.597 482.097 555.59 481.774 554.647C481.45 553.703 480.907 552.85 480.189 552.158C478.732 550.824 477.061 549.743 475.246 548.962C471.497 547.369 467.609 546.125 463.632 545.245C455.641 543.22 447.447 541.789 439.289 539.671C447.698 539.545 456.089 540.481 464.264 542.458C468.441 543.416 472.463 544.955 476.212 547.029C478.154 548.096 479.855 549.551 481.211 551.303C481.877 552.19 482.305 553.234 482.451 554.334C482.597 555.434 482.458 556.553 482.047 557.584Z" fill="#263238"/>
<path d="M555.615 553.05C549.762 551.619 544.001 549.984 538.259 548.311C532.517 546.639 526.794 544.892 521.07 543.164L503.956 537.812C498.251 535.954 492.546 534.245 486.786 532.516C492.766 533.174 498.695 534.236 504.532 535.694C510.404 537.032 516.165 538.704 521.907 540.451C527.649 542.198 533.335 544.168 538.947 546.249C544.559 548.33 550.226 550.523 555.615 553.05Z" fill="#263238"/>
<path d="M500.574 518.301C506.086 518.647 511.565 519.404 516.964 520.568C522.382 521.645 527.735 523.022 533 524.693C538.278 526.33 543.459 528.265 548.517 530.491C553.593 532.66 558.505 535.194 563.216 538.073C557.994 536.214 552.902 534.263 547.718 532.498C542.533 530.732 537.367 528.986 532.146 527.388C526.924 525.79 521.702 524.21 516.443 522.668C511.185 521.125 505.907 519.787 500.574 518.301Z" fill="#263238"/>
<path d="M508.936 504.773C517.814 505.488 526.56 507.362 534.952 510.348C543.425 513.154 551.491 517.065 558.942 521.98C550.542 518.989 542.366 515.83 534.023 513.042C525.679 510.255 517.41 507.505 508.936 504.773Z" fill="#263238"/>
<path d="M295.925 326.214L392.926 323.538C392.926 323.538 340.058 239.396 311.739 208.531C282.174 176.383 266.081 179.152 276.172 236.107C286.336 293.453 295.925 326.214 295.925 326.214Z" fill="#798DC5"/>
<path d="M355.946 309.285C358.564 310.429 361.015 311.923 363.231 313.726C357.567 312.811 352.235 310.449 347.751 306.869C350.585 307.276 353.345 308.089 355.946 309.285ZM301.778 247.665C302.899 245.035 304.395 242.582 306.22 240.381C305.326 246.049 302.955 251.382 299.344 255.842C299.753 253.012 300.573 250.258 301.778 247.665ZM346.506 265.951C347.566 268.604 348.242 271.394 348.513 274.238C345.145 269.595 343.056 264.148 342.455 258.443C344.167 260.733 345.532 263.263 346.506 265.951ZM303.767 303.933C304.835 306.589 305.505 309.388 305.755 312.239C302.408 307.585 300.321 302.144 299.697 296.444C301.416 298.732 302.799 301.254 303.804 303.933H303.767ZM275.336 193.46C275.8 194.426 276.227 195.411 276.636 196.415C277.685 199.071 278.36 201.861 278.643 204.703C276.932 202.433 275.555 199.93 274.555 197.27C274.462 197.028 274.388 196.805 274.313 196.563C274.579 195.501 274.933 194.463 275.373 193.46H275.336Z" fill="white"/>
<path d="M302.002 309.341C304.306 309.006 306.666 309.006 308.97 308.895L316.124 308.504C320.931 308.269 325.756 308.077 330.6 307.928C340.263 307.631 349.907 307.297 359.552 307.167C362.209 307.167 364.866 307.167 367.523 307.167C370.181 307.167 373.098 307.445 375.886 307.464C376.053 307.464 376.034 307.724 375.886 307.724C373.507 307.873 371.128 308.226 368.731 308.374C366.334 308.523 363.844 308.672 361.391 308.765C356.56 308.95 351.728 309.118 346.897 309.229C337.401 309.452 327.887 309.712 318.391 309.731H310.327C307.558 309.731 304.752 309.88 301.964 309.638C301.89 309.582 301.853 309.359 302.002 309.341Z" fill="#263238"/>
<path d="M277.12 263.126C277.12 262.94 277.343 262.829 277.436 263.015C279.235 266.329 280.775 269.777 282.044 273.328C281.709 271.637 281.319 269.946 281.003 268.236C279.944 262.773 278.978 257.273 277.9 251.809C277.911 251.777 277.933 251.748 277.961 251.728C277.989 251.708 278.023 251.697 278.058 251.697C278.093 251.697 278.127 251.708 278.155 251.728C278.183 251.748 278.205 251.777 278.216 251.809C280.725 261.212 283.642 270.522 285.872 279.999C288.102 289.476 290.35 298.953 292.432 308.467C293.565 313.726 294.587 320.286 295.739 325.526C298.545 325.861 302.15 325.526 305.179 325.916C305.439 325.916 305.365 326.381 305.179 326.381C301.983 326.474 298.174 327.198 294.81 326.994C294.383 326.994 286.244 293.193 282.862 277.007C280.78 272.399 278.848 267.79 277.12 263.126Z" fill="#263238"/>
<path d="M208.123 210.575C209.479 215.016 211.022 219.401 212.787 223.694C214.261 227.561 216.07 231.292 218.194 234.843C222.208 241.18 228.378 246.42 236.201 246.402C243.634 246.402 250.435 242.091 255.192 236.59C260.395 230.588 263.852 223.062 266.955 215.815C268.813 211.337 270.671 206.765 272.158 202.138C272.92 199.797 273.719 197.455 274.388 195.077C275.057 192.698 275.633 190.301 276.451 187.978C276.451 187.793 276.859 187.811 276.804 187.978C275.429 193.33 271.433 210.277 269.835 214.589C266.899 222.486 263.591 230.644 258.295 237.296C253.278 243.577 246.458 248.334 238.301 249.115C230.143 249.895 223.156 245.603 218.659 239.136C216.015 235.063 213.951 230.641 212.527 225.998C210.799 220.907 209.349 215.685 208.03 210.463C207.955 210.538 208.123 210.519 208.123 210.575Z" fill="#263238"/>
</svg>
