<svg width="22" height="22" viewBox="0 0 22 22" fill="none" xmlns="http://www.w3.org/2000/svg">
<path d="M13.75 21.75H9.25V14.5H8.29999C7.71999 14.5 7.25 14.03 7.25 13.45V11.55C7.25 10.97 7.71999 10.5 8.29999 10.5H9.25V8C9.25 5.93 10.93 4.25 13 4.25H15.7C16.28 4.25 16.75 4.71999 16.75 5.29999V7.70001C16.75 8.28001 16.28 8.75 15.7 8.75H13.75V10.5H15.63C15.95 10.5 16.24 10.64 16.44 10.88C16.64 11.12 16.72 11.44 16.66 11.75L16.28 13.65C16.18 14.14 15.75 14.49 15.25 14.49H13.75V21.75V21.75ZM10.75 20.25H12.25V13H14.89L15.09 12H12.26V8.29999C12.26 7.71999 12.73 7.25 13.31 7.25H15.26V5.75H13C11.76 5.75 10.75 6.76 10.75 8V12H8.75V13H10.75V20.25Z" fill="#DDEFF2"/>
<path d="M14 21.75H8C2.57 21.75 0.25 19.43 0.25 14V8C0.25 2.57 2.57 0.25 8 0.25H14C19.43 0.25 21.75 2.57 21.75 8V14C21.75 19.43 19.43 21.75 14 21.75ZM8 1.75C3.39 1.75 1.75 3.39 1.75 8V14C1.75 18.61 3.39 20.25 8 20.25H14C18.61 20.25 20.25 18.61 20.25 14V8C20.25 3.39 18.61 1.75 14 1.75H8Z" fill="#DDEFF2"/>
</svg>
