<svg width="22" height="18" viewBox="0 0 22 18" fill="none" xmlns="http://www.w3.org/2000/svg">
<path d="M6.00158 1.0087L16.0016 1.00359C20.0016 1.00154 21.0021 2.00103 21.0041 6.00103L21.0072 12.001C21.0093 16.001 20.0098 17.0015 16.0098 17.0036L6.00977 17.0087C2.00977 17.0107 1.00925 16.0113 1.00721 12.0113L1.00414 6.01126C1.00209 2.01126 2.00158 1.01075 6.00158 1.0087Z" stroke="#292D32" stroke-width="1.5" stroke-linecap="round" stroke-linejoin="round"/>
<path d="M4.50381 7.00948L4.50586 11.0095" stroke="#292D32" stroke-width="1.5" stroke-linecap="round" stroke-linejoin="round"/>
<path d="M18.1051 9.00251C18.1046 8.14646 17.4103 7.45286 16.5543 7.4533C15.6982 7.45374 15.0046 8.14805 15.0051 9.00409C15.0055 9.86013 15.6998 10.5537 16.5559 10.5533C17.4119 10.5529 18.1055 9.85855 18.1051 9.00251Z" stroke="#292D32" stroke-width="1.5" stroke-linecap="round" stroke-linejoin="round"/>
</svg>
