<svg width="178" height="32" viewBox="0 0 178 32" fill="none" xmlns="http://www.w3.org/2000/svg">
<path fill-rule="evenodd" clip-rule="evenodd" d="M103.598 0.489507H81.3465C80.7197 0.489507 80.2115 1.00505 80.2115 1.64075V30.3579C80.2115 30.9936 80.7197 31.5091 81.3465 31.5091H91.0351C91.6617 31.5091 92.1699 30.9936 92.1699 30.3579V21.5824H100.918C101.545 21.5824 102.053 21.0671 102.053 20.4311V13.9744C102.053 13.3384 101.545 12.8231 100.918 12.8231H92.1699V10.2934H103.598C104.225 10.2934 104.733 9.77803 104.733 9.14211V1.64075C104.733 1.00505 104.225 0.489507 103.598 0.489507ZM118.037 30.3624V1.63687C118.037 1.00094 117.529 0.485395 116.902 0.485624L107.22 0.490877C106.594 0.491106 106.086 1.00642 106.086 1.64212V30.3624C106.086 30.9981 106.594 31.5137 107.221 31.5137H116.903C117.529 31.5137 118.037 30.9981 118.037 30.3624ZM70.1554 16.0153H60.5577C59.9316 16.0153 59.423 16.5313 59.423 17.1665V21.9634C56.3225 21.9634 53.4856 19.5008 53.8279 15.412C54.0848 12.3558 56.5094 10.22 59.4993 10.22C61.3074 10.22 62.8091 10.8779 64.1578 11.9926C64.6236 12.3763 65.3148 12.2735 65.666 11.7779L69.9415 5.73634C70.2862 5.25186 70.2097 4.57574 69.7594 4.19199C67.312 2.09965 63.2254 0.00045685 58.3916 0.00045685C50.3586 0.00045685 44.0431 4.66254 42.1181 11.3027L40.2201 5.54424C39.2252 2.52451 36.4399 0.489278 33.3014 0.489278H27.7495C28.7717 3.03161 28.7602 4.3633 29.3548 8.72387C29.8884 12.6207 31.8357 15.9991 31.8357 15.9991C31.8357 15.9991 29.8884 19.3774 29.3548 23.272C28.7602 27.6326 28.7717 28.9666 27.7495 31.5089H33.3014C36.4399 31.5089 39.2252 29.4737 40.2201 26.4539L42.1541 20.5858C44.1917 27.9295 50.8269 32 58.5987 32C63.4506 32 67.3456 30.5175 70.2007 28.5006C70.8894 28.014 71.2901 27.2077 71.2901 26.3557V17.1665C71.2901 16.5313 70.7815 16.0153 70.1554 16.0153ZM146.768 21.333C146.768 18.1938 145.643 15.682 142.619 13.8873C139.506 12.0403 135.182 11.3475 133.799 10.9622C132.799 10.684 132.091 10.2394 132.215 9.61425C132.324 9.06718 132.924 8.75333 134.007 8.75333C136.246 8.75333 138.433 9.84336 139.637 10.5533C140.108 10.8315 140.709 10.7006 141.025 10.2499L144.592 5.16849C144.973 4.62622 144.82 3.87471 144.265 3.52043C141.29 1.62385 137.57 0 132.768 0C125.763 0 119.561 3.62939 119.561 10.3566C119.561 12.5006 120.571 14.9164 122.923 16.7922C125.8 19.0869 129.101 19.6253 131.505 20.2603C133.039 20.6655 133.334 21.2505 133.28 21.7277C133.229 22.1863 132.692 22.6905 131.609 22.6905C129.448 22.6905 126.516 21.3391 124.405 19.9713C123.928 19.6625 123.298 19.7813 122.971 20.2486L119.125 25.7429C118.774 26.2458 118.872 26.9448 119.355 27.3201C123.536 30.5737 127.865 31.9995 133.327 31.9995C140.997 31.9995 146.768 27.5775 146.768 21.333ZM176.652 0.489507H166.481C165.854 0.489507 165.347 1.00483 165.347 1.64052V10.5081H160.209V1.64052C160.209 1.00483 159.701 0.489507 159.075 0.489507H148.903C148.277 0.489507 147.769 1.00483 147.769 1.64052V30.3579C147.769 30.9938 148.277 31.5091 148.903 31.5091H159.075C159.701 31.5091 160.209 30.9938 160.209 30.3579V21.4903H165.347V30.3579C165.347 30.9938 165.854 31.5091 166.481 31.5091H176.652C177.279 31.5091 177.787 30.9938 177.787 30.3579V1.64052C177.787 1.00483 177.279 0.489507 176.652 0.489507ZM14.1559 23.0998H12.0193V18.5885H14.1559C15.8558 18.5885 16.7294 19.5159 16.7294 20.8453C16.7294 22.1724 15.8558 23.0998 14.1559 23.0998ZM12.0193 8.75722H13.807C15.464 8.75722 16.2498 9.55212 16.2498 10.9249C16.2498 12.2977 15.4213 13.0927 13.807 13.0927H12.0193V8.75722ZM24.0196 15.3586C26.5502 13.9424 27.5971 11.6833 27.5971 9.07472C27.5971 3.23171 22.6259 0.488365 15.2974 0.488365H1.58834C0.96019 0.488365 0.453613 1.0046 0.453613 1.63961V30.3567C0.453613 30.994 0.96019 31.508 1.58834 31.508H16.0382C23.4544 31.508 28.2951 28.4563 28.2951 22.394C28.2951 19.3854 26.5049 16.6857 24.0196 15.3586Z" fill="black"/>
</svg>
