<svg width="186" height="32" viewBox="0 0 186 32" fill="none" xmlns="http://www.w3.org/2000/svg">
<path fill-rule="evenodd" clip-rule="evenodd" d="M51.5382 23.5895L49.2083 23.4597L50.248 16.0204L48.0562 3.1615L23.9701 2.36647L21.3164 11.8653L22.4679 24.3246L31.88 24.6336L32.4098 21.3914L37.4152 21.5591L37.5978 24.8199L51.8284 25.292L51.5382 23.5895ZM52.7334 23.6561L53.1531 26.118L36.4749 25.5652L36.2922 22.3043L33.4515 22.2112L32.9217 25.4534L22.5407 25.1122L22.7197 27.0497L6.7628 27.882L6.09607 20.6708L4.25101 20.7702L4.91775 27.9814L-11.0391 28.8137L-13.2124 5.29193L-13.213 5.29196L-11.0391 28.8137V28.8137L-6.20734 32.0001L9.43907 31.1864L9.27465 29.4535L11.5946 31.0746L27.241 30.2609L27.0584 28.3292L37.4344 28.6709L37.5623 26.6336L41.2889 28.7951L57.6662 29.3355L57.246 26.8634L70.1885 27.6274L75.0295 30.3168L90.6939 29.851L90.5844 25.9193L94.0281 27.4969L111.036 28.1615C114.223 28.2982 116.872 28.2361 119.082 27.9752L123.439 30.5094L139.469 30.2237L139.533 28.0559L143.315 30.1553L159.719 29.8634L159.381 28.5094L171.31 29.6274L172.488 23.1056L185.787 7.46587L181.485 4.01243H181.476L163.957 2.36648L163.957 2.36734L181.476 4.01256L167.958 19.9008L166.78 26.4225L154.853 25.3029L155.189 26.6585L138.501 26.9504L138.072 23.702L135.231 23.7516L134.948 27.0125L118.498 27.3044L119.223 23.7038C116.92 24.5892 113.884 25.0152 109.821 25.0248C108.789 25.0248 107.683 24.9999 106.515 24.9503L90.019 24.236L90.148 22.3477L86.0267 22.4722L86.1725 26.6461L70.1885 27.1181L70.0869 24.6231L52.7334 23.6561ZM70.0546 23.8286L52.5962 22.8512L51.4266 15.9906L53.5375 0.851061L67.1738 1.57777L65.2559 15.3045L69.7186 15.576L70.0546 23.8286ZM71.2556 24.6882L71.3203 26.2919L84.9846 25.8819L84.8388 21.708L90.2025 21.5493L90.6805 14.5477L84.5556 14.7329L84.3913 11.5093L90.9012 11.3159L91.4215 3.69587L70.4342 4.32289L70.8587 14.847L74.0887 15.0435L72.7277 24.7703L71.2556 24.6882ZM70.891 15.6474L72.8098 15.7641L71.6774 23.9194L71.2236 23.894L70.891 15.6474ZM69.686 14.7757L69.2292 3.55908L72.1613 3.47165L68.4437 0.850946L68.4429 0.850901L66.5347 14.5839L69.686 14.7757ZM52.4862 0.00664941L52.4782 0.00622559L51.8659 4.40374L49.112 2.41375L50.7813 12.2053L52.4862 0.00664941ZM50.894 19.8102L51.401 22.7843L50.4865 22.7331L50.894 19.8102ZM3.4107 11.6646L2.74452 4.46007L4.71685 5.77022L4.58896 4.36025L5.25575 11.5652L3.4107 11.6646ZM21.0219 8.67904L20.5459 3.52798L22.1443 4.6522L23.012 1.54039L23.0188 1.54061L21.0219 8.67904ZM19.459 4.37906L20.1436 11.819L16.4807 24.913L21.3632 25.0735L21.4776 26.317L7.84983 27.0312L7.18304 19.8201L3.018 20.0375L3.67562 27.2487L-9.95212 27.9567L-11.9798 6.01879L1.65704 5.31073L2.32383 12.5157L6.48888 12.2983L5.82209 5.09335L19.459 4.37906ZM17.8778 24.174L21.2907 24.286L20.4374 15.0118L17.8778 24.174ZM163.722 3.15033L162.359 2.21777L161.811 9.68336L161.829 9.68959L163.722 3.15033ZM162.359 2.21741L144.557 0.546599L144.557 0.54758L162.359 2.21741ZM146 4.03623L124.279 4.42243L123.89 6.35411C125.301 8.23152 125.799 10.721 125.577 13.9627C125.276 18.3602 123.888 21.0931 121.065 22.8074C120.886 22.9166 120.701 23.0216 120.51 23.1225L119.831 26.4908L133.833 26.2424L134.117 22.9815L139.131 22.8945L139.56 26.143L153.809 25.8945L153.634 25.1885L150.768 24.9194L151.948 18.3833L151.911 18.2362L146 4.03623ZM150.121 11.0129L147.211 4.0147L148.384 3.99386V4.00009L150.121 11.0129ZM153.067 18.0975L149.37 3.18016L146.883 3.22396L146.165 1.497L161.135 2.90073L160.587 10.3728L162.761 10.5778L164.889 3.25477L179.595 4.63366L166.826 19.6461L165.766 25.5219L154.649 24.4786L153.128 18.3438L153.143 18.2796L153.067 18.0975ZM152.627 21.1228L152.065 24.2362L153.43 24.3642L152.627 21.1228ZM92.5953 3.6608L92.0755 11.2811L95.0594 11.1925L94.7583 3.59618L92.5953 3.6608ZM96.2657 11.9504L92.0212 12.0765L91.9093 13.7165L95.5533 13.6088L95.9003 22.174L91.3229 22.3122L91.2426 23.4907L106.587 24.1553C112.699 24.4182 116.729 23.9608 119.432 22.6696L122.68 6.54468C120.426 3.76982 115.853 2.53591 108.058 2.19871H108.067L92.7404 1.53411L92.6499 2.8607L95.8914 2.76404L96.2657 11.9504ZM85.6065 12.2672L90.8469 12.1114L90.7349 13.7512L85.6797 13.9007L85.6065 12.2672ZM91.3774 21.5145L91.855 14.5122L94.4203 14.4347L94.7035 21.4161L91.3774 21.5145ZM91.6263 0.695691L91.6061 0.991362L91.6258 0.695667L91.6263 0.695691ZM112.988 1.78522C115.751 2.11581 118.002 2.63261 119.797 3.37619C118.027 2.63862 115.791 2.11918 112.988 1.78522ZM123.567 7.95341L120.757 21.8983C123.005 20.3125 124.134 17.8264 124.399 13.9254C124.563 11.5019 124.32 9.53551 123.567 7.95341ZM135.834 16.7951L136.264 11.4969H136.483L137.186 16.7703L135.834 16.7951ZM135.167 10.7206L134.601 17.6088L138.473 17.5405L137.56 10.6771L135.167 10.7206ZM108.021 16.0993C108.57 15.7639 108.853 14.913 108.962 13.2608V13.267C109.155 10.4099 108.524 10.0869 107.053 10.0186H107.017L106.588 16.3105H106.652C107.309 16.3415 107.739 16.2732 108.021 16.0993ZM108.798 16.6832C109.638 16.1739 109.995 15.2546 110.132 13.2919V13.3043C110.314 10.6956 109.894 9.34781 107.135 9.22979L105.912 9.17388L105.373 17.0497L106.578 17.0994C106.706 17.1056 106.825 17.1056 106.944 17.1056C107.738 17.0994 108.332 16.9689 108.798 16.6832ZM34.575 15.3043L35.4062 10.0372H35.6254L35.936 15.3478L34.575 15.3043ZM33.2775 16.0621L34.3553 9.21119L36.7484 9.29194L37.1503 16.1926L33.2775 16.0621Z" fill="black"/>
</svg>
