<svg width="207" height="32" viewBox="0 0 207 32" fill="none" xmlns="http://www.w3.org/2000/svg">
<path d="M0.78717 0V31.4229H9.80275V22.2295H9.92982L21.8982 31.4229H33.2796L18.7215 20.7053L33.3038 9.99179H22.0494L9.92982 19.1812H9.80275V0H0.78717Z" fill="black"/>
<path d="M37.0607 9.99186H45.0174L45.562 14.8063H45.689C46.6087 13.1168 48.1033 11.8265 50.1666 10.9394C52.2359 10.0523 54.4928 9.59267 56.9494 9.56848V14.9353C53.4945 14.9353 50.814 15.5966 48.9201 16.9151C47.0202 18.2377 46.0763 19.9917 46.0763 22.1772V31.423H37.0607V9.99186Z" fill="black"/>
<path d="M82.5466 24.9478C84.3376 23.7704 85.2331 22.347 85.2331 20.6857C85.2331 19.0567 84.3376 17.6495 82.5466 16.4802C80.7556 15.3068 78.6378 14.7221 76.1873 14.7221C73.7307 14.7221 71.6129 15.3108 69.8219 16.4882C68.0309 17.6697 67.1354 19.0688 67.1354 20.6857C67.1354 22.347 68.0309 23.7704 69.8219 24.9478C71.6129 26.1252 73.7307 26.7179 76.1873 26.7179C78.6378 26.7179 80.7556 26.1252 82.5466 24.9478ZM63.4263 28.6776C59.8926 26.4599 58.1198 23.7986 58.1198 20.6857C58.1198 17.5769 59.8926 14.9237 63.4263 12.7302C66.9659 10.5367 71.2196 9.43994 76.1873 9.43994C81.1489 9.43994 85.4025 10.5367 88.9422 12.7302C92.4819 14.9237 94.2487 17.5769 94.2487 20.6857C94.2487 23.7986 92.4819 26.4599 88.9422 28.6776C85.4025 30.8953 81.1489 32.0001 76.1873 32.0001C71.2196 32.0001 66.9659 30.8953 63.4263 28.6776Z" fill="black"/>
<path d="M147.947 12.2504C150.573 14.1254 151.88 16.5044 151.88 19.3874V31.4235H142.834V19.6414C142.834 18.3067 142.198 17.1697 140.928 16.2221C139.663 15.2786 138.09 14.8068 136.214 14.8068C134.381 14.8068 132.826 15.2947 131.549 16.2665C130.266 17.2382 129.631 18.4075 129.631 19.7704V31.4235H120.579V19.6414C120.579 18.3067 119.95 17.1697 118.679 16.2221C117.409 15.2786 115.817 14.8068 113.899 14.8068C112.108 14.8068 110.559 15.2947 109.246 16.2665C107.939 17.2382 107.28 18.4075 107.28 19.7704V31.4235H98.264V9.99235H106.227L106.771 13.3149H106.898C107.812 12.1214 109.143 11.1778 110.892 10.4843C112.641 9.78671 114.474 9.43994 116.392 9.43994C120.761 9.43994 124.228 10.6012 126.781 12.9318C129.28 10.6012 132.856 9.43994 137.521 9.43994C141.853 9.43994 145.327 10.3754 147.947 12.2504Z" fill="black"/>
<path d="M179.779 24.9478C181.528 23.7704 182.399 22.347 182.399 20.6857C182.399 19.0245 181.528 17.6172 179.779 16.46C178.03 15.2987 175.907 14.7221 173.414 14.7221C170.921 14.7221 168.791 15.2987 167.024 16.46C165.251 17.6172 164.368 19.0245 164.368 20.6857C164.368 22.347 165.251 23.7704 167.024 24.9478C168.791 26.1252 170.921 26.7139 173.414 26.7139C175.907 26.7139 178.03 26.1252 179.779 24.9478ZM160.387 28.7945C157.028 26.6574 155.352 23.9518 155.352 20.6857C155.352 17.464 157.041 14.7826 160.423 12.6455C163.799 10.5085 167.611 9.43994 171.847 9.43994C174.255 9.43994 176.518 9.81494 178.629 10.569C180.735 11.323 182.205 12.3068 183.04 13.5286H183.228L183.555 9.99235H191.542V31.4235H183.555L183.234 27.8873H183.04C182.205 29.1372 180.717 30.1372 178.563 30.8832C176.409 31.6291 174.17 32.0001 171.847 32.0001C167.563 32.0001 163.745 30.9316 160.387 28.7945Z" fill="black"/>
<path d="M206.787 27.9678C206.787 25.9074 204.282 24.238 201.19 24.238C198.098 24.238 195.593 25.9074 195.593 27.9678C195.593 30.0283 198.098 31.6976 201.19 31.6976C204.282 31.6976 206.787 30.0283 206.787 27.9678Z" fill="black"/>
</svg>
