<svg width="125" height="32" viewBox="0 0 125 32" fill="none" xmlns="http://www.w3.org/2000/svg">
<path d="M0.786987 32H5.05552L39.0757 9.66462L42.9174 12.1932L12.8242 32H49.4482V0H0.786987V32ZM91.2371 15.8174H90.5542L82.3586 5.33802H73.7788V26.6901H79.9682V12.727H80.6085L87.993 22.5039H94.1397L101.524 12.727H102.207V26.6901H108.397V5.33802H99.5181L91.2371 15.8174ZM128.971 5.33802L116.55 26.6901H123.593L125.855 22.8692H141.179L143.441 26.662H149.972L137.593 5.30992L128.971 5.33802ZM128.587 18.2616L133.111 10.6479H133.794L138.362 18.2897L128.587 18.2616ZM171.016 5.33802H158.168V26.6901H171.016C180.492 26.6901 187.663 22.1106 187.663 16.014C187.663 9.91747 180.492 5.33802 171.016 5.33802ZM170.803 22.0825H164.314V9.97366H170.803C176.778 9.97366 181.26 12.5584 181.26 16.0421C181.26 19.4978 176.778 22.0825 170.803 22.0825ZM203.201 22.0825V18.1773H218.994V13.7384H203.201V9.97366H220.574V5.33802H197.054V26.6901H220.787V22.0825H203.201Z" fill="black"/>
</svg>
