<svg width="181" height="32" viewBox="0 0 181 32" fill="none" xmlns="http://www.w3.org/2000/svg">
<path d="M22.3871 0.00126266H8.38658C7.42836 0.00126266 6.61365 0.465746 6.46416 1.09693L0.801689 25.0482C0.689067 25.5206 1.23783 25.9468 1.95627 25.9468H8.64034C9.5984 25.9468 10.4131 25.4825 10.5626 24.8501L12.0898 18.3902C12.2372 17.7577 13.054 17.2933 14.01 17.2933H18.4422C27.6647 17.2933 32.9873 14.3159 34.3774 8.41586C35.0038 5.83455 34.404 3.80645 32.5922 2.38608C30.6023 0.826216 27.073 0.00126266 22.3871 0.00126266ZM24.0024 8.74915C23.2367 12.1007 19.3982 12.1007 15.6867 12.1007H13.574L15.0561 5.84147C15.1442 5.46311 15.6354 5.1845 16.2087 5.1845H17.177C19.7052 5.1845 22.0903 5.1845 23.3226 6.14589C24.0576 6.7196 24.2828 7.57179 24.0024 8.74915Z" fill="black"/>
<path d="M64.2371 8.64133H57.5329C56.9618 8.64133 56.4685 8.91996 56.3801 9.2983L56.0836 10.5493L55.6147 10.0958C54.1633 8.69043 50.9265 8.22071 47.6961 8.22071C40.2875 8.22071 33.9596 11.9642 32.7273 17.2156C32.0866 19.8351 32.9976 22.3399 35.2249 24.0866C37.2679 25.6927 40.1912 26.3619 43.6695 26.3619C49.6391 26.3619 52.9494 23.8013 52.9494 23.8013L52.6504 25.0441C52.5376 25.5194 53.0865 25.9455 53.8011 25.9455H59.8398C60.8 25.9455 61.6107 25.4811 61.7623 24.8489L65.3857 9.53997C65.5006 9.06877 64.9538 8.64133 64.2371 8.64133ZM54.892 17.3467C54.2453 19.9019 51.205 21.6175 47.3279 21.6175C45.3811 21.6175 43.825 21.2008 42.8259 20.4114C41.8352 19.6275 41.4584 18.5117 41.7738 17.2688C42.3776 14.7353 45.469 12.964 49.2867 12.964C51.1909 12.964 52.7384 13.386 53.7579 14.1821C54.7796 14.9865 55.1845 16.1092 54.892 17.3467Z" fill="black"/>
<path d="M99.9439 8.64137H93.2068C92.5639 8.64137 91.96 8.85443 91.5956 9.21097L82.3034 18.3424L78.3649 9.5674C78.1171 9.01828 77.3577 8.64137 76.4979 8.64137H69.8774C69.0727 8.64137 68.514 9.16578 68.7698 9.67112L76.1908 24.2001L69.214 30.7708C68.6652 31.2883 69.2179 32.0001 70.1661 32.0001H76.8951C77.5337 32.0001 78.1317 31.7924 78.4939 31.4428L100.902 9.86381C101.438 9.34744 100.888 8.64137 99.9439 8.64137Z" fill="black"/>
<path d="M122.25 0.00126266H108.247C107.291 0.00126266 106.476 0.465746 106.327 1.09693L100.664 25.0482C100.552 25.5206 101.101 25.9468 101.815 25.9468H109.001C109.668 25.9468 110.239 25.6219 110.344 25.1793L111.951 18.3902C112.098 17.7577 112.915 17.2933 113.871 17.2933H118.301C127.525 17.2933 132.846 14.3159 134.238 8.41586C134.867 5.83455 134.263 3.80645 132.451 2.38608C130.463 0.826216 126.936 0.00126266 122.25 0.00126266ZM123.865 8.74915C123.102 12.1007 119.263 12.1007 115.55 12.1007H113.439L114.923 5.84147C115.011 5.46311 115.498 5.1845 116.074 5.1845H117.042C119.568 5.1845 121.955 5.1845 123.187 6.14589C123.923 6.7196 124.145 7.57179 123.865 8.74915Z" fill="black"/>
<path d="M164.098 8.64133H157.398C156.823 8.64133 156.333 8.91996 156.247 9.2983L155.95 10.5493L155.48 10.0958C154.028 8.69043 150.794 8.22071 147.563 8.22071C140.154 8.22071 133.829 11.9642 132.596 17.2156C131.958 19.8351 132.864 22.3399 135.092 24.0866C137.139 25.6927 140.058 26.3619 143.536 26.3619C149.506 26.3619 152.816 23.8013 152.816 23.8013L152.517 25.0441C152.405 25.5194 152.953 25.9455 153.672 25.9455H159.709C160.665 25.9455 161.48 25.4811 161.63 24.8489L165.255 9.53997C165.365 9.06877 164.817 8.64133 164.098 8.64133ZM154.753 17.3467C154.11 19.9019 151.066 21.6175 147.189 21.6175C145.246 21.6175 143.686 21.2008 142.687 20.4114C141.696 19.6275 141.323 18.5117 141.635 17.2688C142.243 14.7353 145.33 12.964 149.148 12.964C151.052 12.964 152.599 13.386 153.619 14.1821C154.644 14.9865 155.05 16.1092 154.753 17.3467Z" fill="black"/>
<path d="M172.002 0.658379L166.256 25.0482C166.143 25.5206 166.692 25.9468 167.406 25.9468H173.183C174.144 25.9468 174.959 25.4825 175.106 24.8501L180.772 0.900307C180.885 0.427563 180.337 0.000125885 179.622 0.000125885H173.153C172.582 0.00126648 172.09 0.280239 172.002 0.658379Z" fill="black"/>
</svg>
