<svg width="114" height="32" viewBox="0 0 114 32" fill="none" xmlns="http://www.w3.org/2000/svg">
<g clip-path="url(#clip0_1219_13955)">
<path d="M14.1363 22.0832C15.2784 22.0832 16.3253 21.9047 17.2772 21.5479L12.2089 15.9116H17.7055L20.7394 19.3005C21.5009 18.492 22.0838 17.5644 22.4883 16.518C22.9167 15.4479 23.1308 14.3062 23.1308 13.0934C23.1308 11.4286 22.7383 9.90651 21.953 8.52719C21.1677 7.14787 20.085 6.06568 18.7048 5.28098C17.3249 4.49617 15.802 4.10364 14.1363 4.10364C12.4706 4.10364 10.9477 4.49617 9.56757 5.28098C8.21121 6.06568 7.12856 7.14787 6.31948 8.52719C5.53424 9.90651 5.14167 11.4286 5.14167 13.0934C5.14167 14.7581 5.53424 16.2802 6.31948 17.6595C7.12853 19.0388 8.21121 20.121 9.56757 20.9058C10.9477 21.6906 12.4707 22.0832 14.1363 22.0832V22.0832ZM22.0243 26.8633L20.1684 24.7942C18.2647 25.7216 16.254 26.1854 14.1363 26.1854C11.7092 26.1854 9.47245 25.6028 7.42598 24.4374C5.37964 23.2721 3.7615 21.6906 2.57179 19.6929C1.38197 17.6952 0.787109 15.4954 0.787109 13.0934C0.787109 10.6913 1.38199 8.49158 2.57179 6.49381C3.76151 4.49617 5.37964 2.91463 7.42598 1.74932C9.47245 0.584003 11.7092 0.00128555 14.1363 0.00128555C16.5634 0.00128555 18.8001 0.584003 20.8465 1.74932C22.8929 2.91463 24.5109 4.49617 25.7007 6.49381C26.8904 8.49158 27.4853 10.6913 27.4853 13.0934C27.4853 14.9009 27.1403 16.6132 26.4503 18.2303C25.7602 19.8236 24.7846 21.215 23.5235 22.404L27.5211 26.8633H22.0243Z" fill="black"/>
<path d="M38.4409 22.2256C39.4166 22.2256 40.3088 21.9878 41.1179 21.5121C41.927 21.0365 42.5695 20.3943 43.0454 19.5858C43.5214 18.7535 43.7592 17.8378 43.7592 16.839C43.7592 15.8401 43.5214 14.9363 43.0454 14.1278C42.5695 13.2954 41.927 12.6415 41.1179 12.1657C40.3088 11.6901 39.4166 11.4522 38.4409 11.4522C37.4653 11.4522 36.5732 11.6901 35.7641 12.1657C34.955 12.6415 34.3126 13.2954 33.8366 14.1278C33.3607 14.9363 33.1228 15.8401 33.1228 16.839C33.1228 17.8378 33.3607 18.7535 33.8366 19.5858C34.3126 20.3943 34.955 21.0365 35.7641 21.5121C36.5732 21.9878 37.4653 22.2256 38.4409 22.2256ZM47.6497 8.13525V25.5795H43.7592V23.8314C42.9741 24.5687 42.0935 25.1395 41.1179 25.5439C40.1661 25.9242 39.1549 26.1145 38.0842 26.1145C36.4423 26.1145 34.9194 25.6984 33.5155 24.8659C32.1115 24.0335 30.9931 22.9157 30.1603 21.5127C29.3513 20.0857 28.9467 18.528 28.9467 16.8395C28.9467 15.1747 29.3513 13.6407 30.1603 12.2377C30.9931 10.8107 32.1115 9.68102 33.5155 8.84869C34.9194 8.01624 36.4423 7.60013 38.0842 7.60013C39.1549 7.60013 40.1661 7.80223 41.1179 8.20655C42.0935 8.58705 42.9741 9.14594 43.7592 9.88324V8.13521H47.6497" fill="black"/>
<path d="M59.6654 22.2255C60.6411 22.2255 61.5334 21.9877 62.3425 21.5121C63.1514 21.0364 63.794 20.3943 64.2699 19.5858C64.7457 18.7534 64.9837 17.8377 64.9837 16.8389C64.9837 15.8401 64.7457 14.9363 64.2699 14.1278C63.794 13.2953 63.1514 12.6414 62.3425 12.1656C61.5334 11.6901 60.6411 11.4522 59.6654 11.4522C58.6899 11.4522 57.7975 11.6901 56.9884 12.1656C56.1794 12.6414 55.5371 13.2953 55.0611 14.1278C54.5852 14.9363 54.3473 15.8401 54.3473 16.8389C54.3473 17.8377 54.5852 18.7534 55.0611 19.5858C55.5371 20.3943 56.1794 21.0364 56.9884 21.5121C57.7975 21.9877 58.6899 22.2255 59.6654 22.2255ZM60.0224 7.59988C61.6643 7.59988 63.1872 8.01599 64.591 8.84844C65.995 9.68077 67.1015 10.8105 67.9106 12.2374C68.7434 13.6405 69.1598 15.1745 69.1598 16.8393C69.1598 18.5277 68.7434 20.0855 67.9106 21.5124C67.1015 22.9154 65.995 24.0332 64.591 24.8657C63.1872 25.6981 61.6643 26.1143 60.0224 26.1143C59.023 26.1143 58.0593 25.936 57.1313 25.5792C56.2033 25.2224 55.3705 24.723 54.6328 24.0809V32.0004H50.4569V8.13472H54.3473V9.88275C55.1325 9.14545 56.001 8.58656 56.9528 8.20606C57.9284 7.80174 58.9516 7.59964 60.0224 7.59964" fill="black"/>
<path d="M73.6878 5.13781C72.9741 5.13781 72.3553 4.89999 71.8318 4.42433C71.3322 3.92498 71.0822 3.31857 71.0822 2.60509C71.0822 1.89161 71.3322 1.29698 71.8318 0.821331C72.3553 0.32198 72.9741 0.0722427 73.6878 0.0722427C74.4017 0.0722427 75.0085 0.32198 75.5081 0.821331C76.0317 1.29698 76.2933 1.89161 76.2933 2.60509C76.2933 3.31857 76.0317 3.92498 75.5081 4.42433C75.0085 4.89999 74.4017 5.13781 73.6878 5.13781ZM71.582 8.1344H75.7581V25.5786H71.582V8.1344Z" fill="black"/>
<path d="M82.737 11.8805V19.5145C82.737 20.2518 82.9273 20.8106 83.3079 21.1911C83.7124 21.5717 84.2835 21.7618 85.0212 21.7618H86.9485V25.5789H84.9141C83.653 25.5789 82.5465 25.3291 81.5946 24.8298C80.6429 24.3065 79.9052 23.605 79.3818 22.7249C78.8583 21.8214 78.5965 20.8105 78.5965 19.6927V0.643774H82.737V8.13513H86.9485V11.8809H82.737" fill="black"/>
<path d="M97.2555 22.2256C98.2311 22.2256 99.1234 21.9878 99.9325 21.5121C100.741 21.0365 101.384 20.3943 101.86 19.5858C102.336 18.7535 102.574 17.8378 102.574 16.839C102.574 15.8401 102.336 14.9363 101.86 14.1278C101.384 13.2954 100.741 12.6415 99.9325 12.1657C99.1234 11.6901 98.2311 11.4522 97.2555 11.4522C96.2799 11.4522 95.3875 11.6901 94.5786 12.1657C93.7695 12.6415 93.127 13.2954 92.6511 14.1278C92.1752 14.9363 91.9373 15.8401 91.9373 16.839C91.9373 17.8378 92.1752 18.7535 92.6511 19.5858C93.127 20.3943 93.7695 21.0365 94.5786 21.5121C95.3875 21.9878 96.2799 22.2256 97.2555 22.2256ZM106.464 8.13525V25.5795H102.574V23.8314C101.789 24.5687 100.908 25.1395 99.9325 25.5439C98.9806 25.9242 97.9694 26.1145 96.8985 26.1145C95.2566 26.1145 93.7339 25.6984 92.3299 24.8659C90.926 24.0335 89.8076 22.9157 88.9748 21.5127C88.1657 20.0857 87.7611 18.528 87.7611 16.8395C87.7611 15.1747 88.1657 13.6407 88.9748 12.2377C89.8076 10.8107 90.926 9.68102 92.3299 8.84869C93.7339 8.01624 95.2566 7.60013 96.8985 7.60013C97.9694 7.60013 98.9806 7.80223 99.9325 8.20655C100.908 8.58705 101.789 9.14594 102.574 9.88324V8.13521H106.464" fill="black"/>
<path d="M109.269 0.641127H113.446V25.5786H109.269V0.641127Z" fill="black"/>
</g>
<defs>
<clipPath id="clip0_1219_13955">
<rect width="112.667" height="32" fill="white" transform="translate(0.786987)"/>
</clipPath>
</defs>
</svg>
