<svg width="161" height="22" viewBox="0 0 161 22" fill="none" xmlns="http://www.w3.org/2000/svg">
<path d="M20.6 9.2H11.2V12.9H16.7C16.6 13.8 16 15.2 14.7 16.1C13.9 16.7 12.7 17.1 11.2 17.1C8.59995 17.1 6.29995 15.4 5.49995 12.9C5.29995 12.3 5.19995 11.6 5.19995 10.9C5.19995 10.2 5.29995 9.5 5.49995 8.9C5.59995 8.7 5.59995 8.5 5.69995 8.4C6.59995 6.3 8.69995 4.8 11.2 4.8C13.1 4.8 14.3 5.6 15.1 6.3L17.9 3.5C16.1999 2 13.9 1 11.2 1C7.29995 1 3.89995 3.2 2.29995 6.5C1.59995 7.9 1.19995 9.4 1.19995 11C1.19995 12.6 1.59995 14.1 2.29995 15.5C3.89995 18.8 7.29995 21 11.2 21C13.9 21 16.1999 20.1 17.7999 18.6C19.6999 16.9 20.7999 14.3 20.7999 11.2C20.7999 10.4 20.7 9.8 20.6 9.2Z" stroke="#17191C" stroke-width="1.5" stroke-miterlimit="10" stroke-linecap="round" stroke-linejoin="round"/>
<path opacity="0.8" d="M37.836 12.26C36.504 12.26 35.58 11.276 35.58 9.92C35.58 8.564 36.504 7.58 37.836 7.58C38.916 7.58 39.636 8.204 39.852 9.224H41.94C41.676 7.112 40.068 5.684 37.848 5.684C35.388 5.684 33.528 7.46 33.528 9.92C33.528 12.38 35.388 14.156 37.848 14.156C40.068 14.156 41.676 12.728 41.94 10.616H39.852C39.636 11.636 38.916 12.26 37.836 12.26ZM45.9164 8.024C44.0444 8.024 42.7124 9.308 42.7124 11.096C42.7124 12.896 44.0444 14.156 45.9164 14.156C47.7884 14.156 49.1084 12.896 49.1084 11.096C49.1084 9.308 47.7884 8.024 45.9164 8.024ZM45.9164 12.536C45.1004 12.536 44.5364 11.948 44.5364 11.096C44.5364 10.256 45.1004 9.656 45.9164 9.656C46.7204 9.656 47.2844 10.256 47.2844 11.096C47.2844 11.948 46.7204 12.536 45.9164 12.536ZM53.6183 8.024C52.9943 8.024 52.4902 8.216 52.0223 8.564V8.18H50.0663V14H52.0223V10.34C52.3583 9.968 52.7303 9.788 53.0783 9.788C53.7263 9.788 54.1463 10.16 54.1463 10.988V14H56.0903V10.676C56.0903 9.02 55.0823 8.024 53.6183 8.024ZM61.7136 12.128C61.3656 12.26 61.0536 12.368 60.6816 12.368C60.1176 12.368 59.7696 12.092 59.7696 11.492V9.848H61.7496V8.18H59.7696V6.2H57.8256V8.18H56.6856V9.848H57.8256V11.552C57.8256 13.124 58.7856 14.156 60.3696 14.156C60.7056 14.156 61.3296 14.12 61.9296 13.868L61.7136 12.128ZM64.0383 7.268C64.6623 7.268 65.1783 6.8 65.1783 6.176C65.1783 5.54 64.6623 5.072 64.0383 5.072C63.4023 5.072 62.8983 5.54 62.8983 6.176C62.8983 6.8 63.4023 7.268 64.0383 7.268ZM63.0783 8.18V14H65.0223V8.18H63.0783ZM70.0597 8.024C69.4357 8.024 68.9317 8.216 68.4637 8.564V8.18H66.5077V14H68.4637V10.34C68.7997 9.968 69.1717 9.788 69.5197 9.788C70.1677 9.788 70.5877 10.16 70.5877 10.988V14H72.5317V10.676C72.5317 9.02 71.5237 8.024 70.0597 8.024ZM77.793 8.18V11.828C77.457 12.2 77.085 12.404 76.725 12.404C76.089 12.404 75.657 12.008 75.657 11.18V8.18H73.713V11.48C73.713 13.136 74.721 14.156 76.197 14.156C76.821 14.156 77.325 13.952 77.793 13.592V14H79.737V8.18H77.793ZM83.8109 8.024C82.0109 8.024 80.7749 9.32 80.7749 11.084C80.7749 12.86 82.0469 14.156 83.9549 14.156C85.3229 14.156 86.4029 13.448 86.7509 12.308H84.7829C84.6029 12.524 84.3509 12.62 83.9189 12.62C83.1269 12.62 82.7309 12.152 82.5989 11.552H86.8109C87.0989 9.488 85.8629 8.024 83.8109 8.024ZM83.8589 9.464C84.5189 9.464 84.9389 9.764 85.0469 10.436H82.6229C82.7789 9.848 83.1749 9.464 83.8589 9.464ZM97.8158 8.18L96.9998 11.504L95.9318 8.18H94.3838L93.3158 11.528L92.4998 8.18H90.4598L92.3798 14H94.1078L95.1638 10.616L96.2078 14H97.9358L99.8558 8.18H97.8158ZM101.773 7.268C102.397 7.268 102.913 6.8 102.913 6.176C102.913 5.54 102.397 5.072 101.773 5.072C101.137 5.072 100.633 5.54 100.633 6.176C100.633 6.8 101.137 7.268 101.773 7.268ZM100.813 8.18V14H102.757V8.18H100.813ZM108.694 12.128C108.346 12.26 108.034 12.368 107.662 12.368C107.098 12.368 106.75 12.092 106.75 11.492V9.848H108.73V8.18H106.75V6.2H104.806V8.18H103.666V9.848H104.806V11.552C104.806 13.124 105.766 14.156 107.35 14.156C107.686 14.156 108.31 14.12 108.91 13.868L108.694 12.128ZM113.431 8.024C112.807 8.024 112.303 8.216 111.835 8.564V5.48H109.879V14H111.835V10.34C112.171 9.968 112.543 9.788 112.891 9.788C113.539 9.788 113.959 10.16 113.959 10.988V14H115.903V10.676C115.903 9.02 114.895 8.024 113.431 8.024ZM123.813 9.416V11.012L126.153 11.036C125.745 11.828 125.025 12.308 124.077 12.308C122.637 12.308 121.713 11.24 121.713 9.956C121.713 8.516 122.661 7.52 124.065 7.52C124.797 7.52 125.613 7.796 125.961 8.744H128.097C127.749 6.8 126.021 5.684 124.017 5.684C121.533 5.684 119.661 7.46 119.661 10.004C119.661 12.344 121.449 14.156 124.005 14.156C125.145 14.156 125.997 13.724 126.585 13.004L126.669 14H128.181V9.416H123.813ZM132.436 8.024C130.564 8.024 129.232 9.308 129.232 11.096C129.232 12.896 130.564 14.156 132.436 14.156C134.308 14.156 135.628 12.896 135.628 11.096C135.628 9.308 134.308 8.024 132.436 8.024ZM132.436 12.536C131.62 12.536 131.056 11.948 131.056 11.096C131.056 10.256 131.62 9.656 132.436 9.656C133.24 9.656 133.804 10.256 133.804 11.096C133.804 11.948 133.24 12.536 132.436 12.536ZM139.62 8.024C137.748 8.024 136.416 9.308 136.416 11.096C136.416 12.896 137.748 14.156 139.62 14.156C141.492 14.156 142.812 12.896 142.812 11.096C142.812 9.308 141.492 8.024 139.62 8.024ZM139.62 12.536C138.804 12.536 138.24 11.948 138.24 11.096C138.24 10.256 138.804 9.656 139.62 9.656C140.424 9.656 140.988 10.256 140.988 11.096C140.988 11.948 140.424 12.536 139.62 12.536ZM147.993 8.18V8.468C147.561 8.192 147.045 8.024 146.397 8.024C144.825 8.024 143.505 9.212 143.505 10.988C143.505 12.56 144.825 13.796 146.397 13.796C147.045 13.796 147.561 13.64 147.993 13.376V14.072C147.993 14.864 147.477 15.272 146.817 15.272C146.097 15.272 145.689 14.936 145.593 14.396H143.673C143.769 15.908 145.053 16.916 146.817 16.916C148.641 16.916 149.937 15.86 149.937 14.036V8.18H147.993ZM146.793 12.248C146.001 12.248 145.413 11.624 145.413 10.988C145.413 10.148 146.001 9.62 146.793 9.62C147.213 9.62 147.621 9.74 147.993 10.16V11.696C147.621 12.116 147.213 12.248 146.793 12.248ZM151.258 5.48V14H153.214V5.48H151.258ZM157.264 8.024C155.464 8.024 154.228 9.32 154.228 11.084C154.228 12.86 155.5 14.156 157.408 14.156C158.776 14.156 159.856 13.448 160.204 12.308H158.236C158.056 12.524 157.804 12.62 157.372 12.62C156.58 12.62 156.184 12.152 156.052 11.552H160.264C160.552 9.488 159.316 8.024 157.264 8.024ZM157.312 9.464C157.972 9.464 158.392 9.764 158.5 10.436H156.076C156.232 9.848 156.628 9.464 157.312 9.464Z" fill="#110000"/>
</svg>
